<?xml version="1.0" encoding="utf-8"?>
<!-- Generator: Adobe Illustrator 18.0.0, SVG Export Plug-In . SVG Version: 6.00 Build 0)  -->
<!DOCTYPE svg PUBLIC "-//W3C//DTD SVG 1.0//EN" "http://www.w3.org/TR/2001/REC-SVG-20010904/DTD/svg10.dtd" [
	<!ENTITY ns_flows "http://ns.adobe.com/Flows/1.0/">
	<!ENTITY ns_extend "http://ns.adobe.com/Extensibility/1.0/">
	<!ENTITY ns_ai "http://ns.adobe.com/AdobeIllustrator/10.0/">
	<!ENTITY ns_graphs "http://ns.adobe.com/Graphs/1.0/">
]>
<svg version="1.0" id="Layer_1" xmlns:x="&ns_extend;" xmlns:i="&ns_ai;" xmlns:graph="&ns_graphs;"
	 xmlns="http://www.w3.org/2000/svg" xmlns:xlink="http://www.w3.org/1999/xlink" xmlns:a="http://ns.adobe.com/AdobeSVGViewerExtensions/3.0/"
	 x="0px" y="0px" viewBox="-4 0 620 620" enable-background="new -4 0 620 620" xml:space="preserve">
<g>
	<ellipse fill="#EFEEE9" cx="305.9" cy="310" rx="309.9" ry="310"/>
	<path fill="#D4D0BE" d="M33.9,167.3L33.9,167.3c0,0,0,0,0.4-0.2c-0.2,0.4-0.6,0.8-0.6,1.4c0,0,0,0,0.2-0.2c0.4-0.4,1-2,1.2-3
		c0.2-0.4,0.2-0.8,0.2-1.4c0-0.2,0.2-0.4,0.2-0.6c0,0,0,0-0.2,0.2c0-0.2,0-0.2,0-0.4c-0.2,0.2-0.2,0.2-1,2.2
		C34.3,165.7,34.1,166.5,33.9,167.3 M36.1,157.7C36.1,157.5,36.1,157.5,36.1,157.7l-0.8,1.2c0,0,0,0,0.2-0.4
		C35.9,158.1,36.1,157.7,36.1,157.7 M23.7,215.9c0,0,0.2-0.4,0-0.6c0,0-0.2,0-0.4,0.2c0,0.2,0,0.4,0,0.4
		C23.5,216.5,23.7,215.9,23.7,215.9 M24.7,219.3c0,0.2,0.2,0,0.4-0.2c0.2-0.2,0.2-0.6,0-0.6C24.9,218.1,24.5,218.7,24.7,219.3
		 M28.9,228.3c-0.2,0-0.4,0.2-0.8,0.4c-0.2,0.2-0.2,0.4-0.2,0.4c0,0.2,0.8,0,1-0.4C28.9,228.7,28.9,228.5,28.9,228.3 M34.9,171.8
		c-0.8,0,0.6-2.4,0.6-2.4c0,0.2,0,0.4-0.2,0.4l-0.2,2c0,0.6,0,0.6,0.2,0.6c0.2,0,0.4,0,0.4,0.4s-0.2,0.6-0.2,1v0.2l0.2-0.2
		c0.4-1.2,0.6-2.4,1-3.6c0.4-1,1.2-2,1.6-3c0.4-1,0.2-1,0.2-1c0-0.4,0.4-1,0.8-1c0,0.2,0.2,0.2,0.2,0.4c0,1-0.6,2-0.8,3
		c0.4,0,0.6-0.2,1-0.4c0,0.2-0.2,0.4,0,0.6h0.2c0,0,0.2,0.2,0,1.2c-0.2,1.2-0.2,1.4-0.2,1.6h0.2v0.2c0,0.2-1,2.8-1,2.8
		c-0.2,0.4-0.2,0.6-0.2,1c0.2,2.2-0.6,3.4-1,3.8c-0.2,0.2-0.4,0.2-0.4,0.4c0,0-0.8-0.8-0.4-2.2c0-0.4,0-0.4,0-0.6
		c-0.2-0.2-0.6,0.4-0.8,0c-0.2-0.4,0.2-0.8,0.2-1.2c0,0,0,0-0.2,0c0,0,0-0.2-0.2-0.2c-0.8,0.6-1,1.6-1.8,2.2c0.2-1.2,1.6-2.2,1-3.8
		c-0.4-1-0.4-1-0.4-1.2s0-0.4,0.2-0.6C34.9,172,34.9,172,34.9,171.8 M30.5,220.5c0,0-0.2,0-0.6,0.8c0,0-0.2,0.4-0.4,0.6
		c-0.2,0.2-0.4,0.2-0.6,0.4c0,0,0,0.2-0.2,0.2c-0.4,0.4-0.4,1.2-0.4,1.4c0.2,0.4,1.8-2.2,2-2.8C30.5,220.5,30.5,220.5,30.5,220.5
		 M22.7,212.3c0.2-0.2,0.2-0.6,0.2-0.6c-0.2,0-0.4,0.8-0.4,0.8S22.5,212.5,22.7,212.3 M28.9,174.4c0-0.2,0.2-0.6,0.4-0.8
		C29.3,173.6,29.1,173.6,28.9,174.4c-0.2,0.2-0.4,0.4-0.4,0.4C28.7,175,28.7,174.8,28.9,174.4 M22.3,222.1c0.2,0.2,0.2,0,0.4-0.2
		c0.2-0.4,0.2-0.6,0-0.6C22.5,221.1,22.1,221.5,22.3,222.1 M29.5,172.2c0.2-0.2,0.2-0.4,0.2-0.6c-0.2,0-0.6,0.8-0.4,1
		C29.3,172.4,29.5,172.2,29.5,172.2 M22.1,210.1c0-0.2,0.2-0.4,0.2-0.6s0-0.4,0-0.6c0-0.2,0-0.2,0-0.2c0.4-1,0.4-1,0.2-1.2
		c-0.4-0.4-0.8,2.2-0.6,2.8C21.9,210.3,22.1,210.3,22.1,210.1 M22.5,209.5c0.2-0.4,0.2-0.4,0.2-0.2c0,0.4-0.4,1.6-0.4,1.6
		c-0.2,0.4-0.2,0.2-0.2,0.2s0,0,0-0.2c0-0.2,0.2-0.4,0.2-0.8C22.5,209.9,22.5,209.7,22.5,209.5 M22.5,205.3c0-0.2,0.2-0.6,0.2-0.8
		c0,0-0.2,0.2-0.4,0.4c-0.2,0.2-0.2,0.6-0.2,0.8C22.3,205.7,22.3,205.5,22.5,205.3 M39.1,161.7c0.2,0,0.2,0,0.6,0c0,0,0.2,0,0.2,0.2
		h0.2l2.8-7.8c0,0,0,0-0.2,0l7-15.7c0-0.2,0.2-0.4,0.4-1c0.2-0.6,0.4-0.6,0.4-1c0-0.2,0-0.2,0-0.4c0,0,0,0-0.2,0
		c0-0.2,0.2-0.4,0.2-0.6c-0.6,0.6-1.2,1.4-1.8,2v-0.2c-0.2,0.4-0.2,0.4-0.8,1.4c0.4-0.4,0.6-0.8,0.8-1c0,0.2,0,0.2,0,0.4
		c0.2-0.2,0.4-0.4,0.6-0.4l-5.8,12.4c-0.8,1.2-0.8,1.4-1,1.8c-0.6,1.2-0.6,2.4-1.2,3.6c-0.6,1.2-1,1.4-1.6,2
		c-0.4,0.4-0.6,0.6-0.6,0.8C40.3,159.1,38.9,160.5,39.1,161.7 M23.3,214.7c-0.2,0.4-0.4,0.6-0.6,0.4c0-0.2,0-0.6,0.2-1
		c0.2-0.2,0.2-0.2,0.4-0.2c0,0,0.2,0,0.2,0.2C23.3,214.3,23.5,214.5,23.3,214.7 M33.7,215.9c0,0,0.6-1.2,0.6-1.4s0-0.2,0-0.2
		c-0.2,0-0.4,0.4-1,1.4c-0.2,0.4-0.4,0.8-0.2,1C33.1,216.9,33.5,216.5,33.7,215.9 M38.3,190.4c0,0.4,0.4,0.2,0.8,0
		c0.2-0.2,0.2-0.4,0.2-0.6c0,0-0.2-0.2-0.4,0C38.3,189.8,38.3,190.2,38.3,190.4 M47.5,140.1c0,0.2-0.4,0.6-0.8,1.2
		c-0.2,0.2-0.6,0.8-0.6,0.8C46.1,141.9,47.3,140.3,47.5,140.1 M35.1,212.7c0.2-0.2,0.2-0.4,0.2-0.6c0-0.2,0-0.6,0.2-0.8
		c0-0.2,0.2-0.4,0.2-0.6c0-0.2,0-0.4,0-0.6c-0.2,0-0.4,0.2-0.4,0.6c0,0.2,0,0.4-0.2,0.6c-0.2,0.4-0.4,0.6-0.4,1c0,0.2,0,0.4,0,0.4
		C34.7,213.1,34.9,213.1,35.1,212.7 M38.3,186.6C38.3,186.8,38.5,186.8,38.3,186.6c0.2-0.2,0.4-0.4,0.4-0.4c0.2-0.2,0.4-0.2,0.6-0.4
		c0.4-0.4,0.2-1,0.2-1v-0.2c0-0.2-0.4-0.2-0.4-0.4c-0.2-0.4,0-0.8-0.2-1.2c0-0.2-0.2-0.4-0.2-0.4c-0.2-0.2-0.6,0.2-0.8,0.6
		c-0.2,0.4-0.4,1.6-0.2,1.8c0,0.2,0.2,0.2,0.2,0.2s0.2,0,0.2,0.2C38.3,185.8,38.1,186.2,38.3,186.6 M42.7,160.3
		c-0.2,0.2-0.6,0.6-0.6,0.4s0.2-0.6,0.2-0.8c0.2-0.2,0.4-0.2,0.4-0.2C42.9,160.1,42.7,160.3,42.7,160.3 M37.7,205.7
		c0,0.2,0.4-0.2,0.4-0.4c0.2-0.4,0.2-0.6,0-0.6C38.1,204.5,37.7,205.3,37.7,205.7 M44.7,160.7C44.7,160.7,44.7,160.5,44.7,160.7
		c0-0.2,0.2-0.4,0.2-0.4c0-0.2,0-0.4,0-0.6c0,0,0-0.4,0.2-0.6c0.4-0.8,0.6-0.8,0.6-0.8C45.9,158.3,45.1,160.3,44.7,160.7
		 M37.1,207.3c0.2-0.2,0.4-1,0.2-1.2c-0.2,0-0.4,0.4-0.6,0.6c0,0-0.8,1.8-0.6,2C36.1,208.7,36.5,208.1,37.1,207.3 M33.9,222.3
		c0.2-0.6,0.6-1.6,0.4-1.8c-0.2,0-1,1.8-1,2.2C33.5,222.7,33.7,222.9,33.9,222.3 M48.6,147.9L48.6,147.9c0-0.2,0.2-0.4,0.4-0.4
		c0,0.2-0.8,1.8-0.8,1.8v-0.2c0-0.2,0.2-0.2,0.2-0.2s0.2-0.2,0.4-0.8C48.6,147.9,48.6,147.9,48.6,147.9 M38.7,199.2
		c-0.2,0.2-0.2,0.6-0.2,0.8c0,0.2,0.4,0,0.4-0.4c0-0.2,0.2-0.4,0.2-0.6C39.1,199,38.9,198.8,38.7,199.2 M40.1,187.6
		C40.3,187.6,40.3,187.6,40.1,187.6c0.2,0.4,0.8-0.2,1-0.4c0,0,0.2-0.2,0-0.4c0,0,0-0.2-0.4,0c0,0,0,0,0-0.2c0-0.2,0-0.4,0-0.4
		s-0.8,0-1,0.8C39.7,187.2,39.9,187.8,40.1,187.6 M39.9,194.6c-0.2,0-0.4,0.4-0.4,0.6c0,0-0.4,2.2-0.2,2.4
		C39.5,197,40.1,194.8,39.9,194.6 M31.7,217.9L31.7,217.9c-0.2,0.4-0.2,0.8-0.2,1.2c0,0.2-0.2,0.4-0.4,0.6v0.2c0,0,0,0,0.2-0.2
		c0.2-0.2,0.2-0.4,0.2-0.6c0.2-0.2,0.4-0.6,0.4-0.8c0,0,0-0.2,0.2-0.2c0.2-0.4,0.2-0.4,0-0.6c0,0,0,0-0.2,0
		C32.1,217.3,31.9,217.7,31.7,217.9 M246.1,5.8c-0.4,0-0.8,0.2-1.4,0.2c0.6-0.2,1.2-0.2,1.8-0.4c-1.4,0.2-2.4,0.4-3.2,0.6
		c0.8-0.2,1.6-0.2,2.4-0.4C245.9,6,246.1,5.8,246.1,5.8 M252.9,4.6c-1,0.2-1.8,0.2-2.6,0.4c0.4,0,0.8-0.2,1.2-0.2
		C251.9,4.8,252.3,4.8,252.9,4.6 M345.8,2.6c1.4,0.2,2.8,0.4,4.2,0.6C348,2.8,347.6,2.8,345.8,2.6 M243.3,6.4L243.3,6.4 M345.8,2.6
		c-0.4,0-1-0.2-1.8-0.2c-11-1.4-19.9-2-26.1-2.2c5.2,0.2,6,0.2,16.8,1.2C338,1.6,342,2.2,345.8,2.6 M227.3,10.2
		c-1,0.2-1,0.2-1.6,0.4c0,0,0,0-0.2,0c0.2,0,0.4,0,0.6-0.2c0.4,0,0.6-0.2,1-0.2H227.3 M3.2,243.6C3.2,243.8,3.2,243.8,3.2,243.6
		 M418.2,67.4l-2.6-6.4h0.2c0.2-0.4-0.4-0.6-0.2-1c0.2-0.2,0.2-0.2-1.2-2.2c0,0,0-0.2,0.2-0.2c0,0,0,0-0.2-0.4c0,0,0,0,0-0.2
		c0.2,0,0.2,0,0.4,0c-0.2-0.4-0.2-0.4-0.2-0.4c0.4,0,0.4,0,0.6-0.8c0.4-0.2,0.4-0.2,0.4-1.2h0.2c1.2-0.6-0.6-2.4-0.6-2.4
		c-1.2-1-2.6-1-2.6-1c-0.2,0.8-0.2,0.8-0.2,1c0.4,0.8,0.2,1,0.2,1c-0.8,1.2-1,1.2-1.6,1.4c-0.6,0-0.6,0-0.6,0.2c0,0.2,0,0.2,0.2,0.4
		C410,55,410,55,409.8,55c0,0.2,0,0.2,0,0.4l-0.2,0.2c0,0.2,0,0.2,0.4,1l-0.2,0.2c0,0.4,0,0.4,0.4,1.2c0,0,0,0,0,0.2c0,0,0,0-0.2,0
		l1.8,3.4c0.2,0.4,0.4,0.6,0.6,0.8c0,0,0,0,0,0.2c-0.2,0-0.2,0-0.4,0c0,0.2,0,0.4,0,0.6c0.4,1,1.4,1.2,1.8,2.2
		c-0.2,0.2-0.4,0.2-0.6,0.4c0,0.2,0,0.2,0.6,0.8c0,0,0,0,0,0.2h-0.2c0,0,0,0,0,0.2c0.2,0.4,0.2,0.4,1,1.2c0.2,0.2,0.2,0.2,0.6,1.6
		c-0.2,0-0.4-0.2-0.6-0.2c0,0,0,0-0.2,0c0,0.6,1.2,2.4,2,2.4c0.4-0.4,0.4-0.4,0.4-0.4c0.4,0.2,0.2,0.6,0.4,1l2,1.2c0,0,0,0,0.2,0
		c0-0.2-0.2-0.2-0.2-0.4c0.6,0.4,1,1,1.6,1.4c0.4,0.2,2.4-0.2,2.6-0.4c0.2-0.2,1,0,1.8,0.4c1,0.4,0.8-0.4,0.6-0.8
		c-0.2-0.2-0.4-0.4-1.2-0.6c-2-0.6-4.4-2.4-5.4-3.6C418.6,68.2,418.2,67.6,418.2,67.4 M615.4,314.6c0,0,0-0.4,0-0.8
		c0-0.2,0-0.4,0-0.4C615.4,313.8,615.4,314.6,615.4,314.6 M615.6,316L615.6,316c0-0.4,0-0.4,0-0.4c0,0.2,0,1.4,0,1.4
		C615.4,317,615.6,316.6,615.6,316 M411.2,18.7c0,0-0.2-0.2-0.4-0.2h-0.2c0,0,0,0,0.2,0C411,18.7,411.2,18.7,411.2,18.7 M429.1,52.6
		C429.1,52.6,429.3,52.6,429.1,52.6c0-0.4-0.4-0.6-0.6-0.6s-0.6-0.4-0.6-0.2c0,0,0,0,0.6,0.6C429.1,52.8,429.1,52.8,429.1,52.6
		 M364.1,5.8c-0.6-0.2-0.6-0.2-0.6-0.2c-0.2,0-0.4,0-0.6-0.2c2.4,0.2,14.6,3,14.6,3c-0.2,0-0.4,0-0.8-0.2c1.4,0.4,2.8,0.8,4,1h-0.2
		h0.4c15.4,4.2,18.7,5.2,42.5,16.7c2.8,0.4,6.4,2.6,10.8,6.6c-4.4,0.4-7.8-2.6-11.8-3.6c0.4,0.8,0.4,0.8,2.8,2.2c-0.4,0-1,0-1.4,0
		c0.4,0.2,0.8,0.6,1.2,0.6c-0.2,0.2-0.6,0.2-0.8,0.4c1,0.8,2.2,1.2,3.2,1.8c0,0.4,0.2,0.8,0.2,1.2c3.4,2,3.4,2,3.8,2.2
		c-18.3-3.4-18.3-3.4-22.5-4.6c0.4,0.2,0.8,0.4,1.2,0.6c-2.6,0-4.8-2.6-7.6-1.8c0.2,0.2,0.4,0.4,0.4,0.4c-0.4,0.2-1,0.2-1.4,0.2
		c0.2,0.2,0.4,0.2,0.4,0.4c-0.4,0.2-1,0.2-1.4,0.2c0.2,0.2,0.4,0.4,0.6,0.4c-0.2,0-0.4,0.2-0.6,0.2c0.2,0.2,0.4,0.4,0.4,0.6
		c-0.4,0-1,0-1.4-0.2c1.8,1.2,1.8,1.2,2,1.8c-0.6,0-0.6,0-2.2-0.4c0,0.2-0.2,0.4-0.2,0.6c-0.4,0-1-0.2-1.6-0.2
		c-0.2,0.2-0.4,0.4-0.4,0.4c0,0.2,0.2,0.4,0.2,0.6c0.4,0.2,0.8,0.6,1.2,0.8c-1.4-0.2-2.8-0.4-4.4-0.6c-0.4,0.6-1,0.8-1.4,1.4
		c-1,0-1.6,0-3.2-0.6c0,0.2-0.2,0.4-0.4,0.6c-0.6,0-0.6,0-3.2-0.6c0.2,0.2,0.4,0.6,0.4,0.8c-0.2,0.2-0.4,0.4-0.4,0.4
		c-2-0.6-2-0.6-4.2-0.4c0,0.2,0,0.4,0.2,0.6c-0.8,0-3.6,0.4-3.6,0.6c-3-0.2-5.8-1.8-8.8-1.2c-2.2-2.2-2.2-2.2-4.6-2.2
		c-2.2,2-4.4-1.8-6.8-0.2c-3.6-3.8-8.8,2-12.4-1.8c0.2-0.6,0.2-0.6,1.8-1.2c-1.4-0.8-1.4-0.8-1.6-1c-0.4,0-1,0-1.4,0.2
		c0.2-1,0.2-1,0.8-2.2c0-0.2-0.2-0.4-0.2-0.6c-0.2,0-0.4-0.2-0.6-0.2c0.4-0.8,0.4-0.8,1.6-1.4c0-0.2,0-0.4-0.2-0.6
		c-1.8-0.2-3-2-4.8-2c0.4-0.2,1-0.4,1.4-0.6c-0.2,0-0.2,0-3.4-0.2c-0.2-0.2-0.2-0.4-0.4-0.6c-1.8,0-3.6-0.2-5.4-0.2
		c0-0.2,0.2-0.4,0.2-0.6c0.2,0,0.4-0.2,0.6-0.2c-0.4,0-1-0.2-1.4-0.2c0.2-0.2,0.4-0.2,0.6-0.4c-0.2-0.2-0.8-0.6-1.2-0.6
		c0.6-0.4,0.6-0.4,2.2-0.6c-0.2,0-0.4-0.2-0.6-0.2c0.8-0.2,1.4-0.2,2.2-0.2c0,0-4.8-3.6-13.4-6.6c-0.2-0.4-0.4-0.8-0.6-1
		c0.2-0.4,0.4-0.8,0.8-1.2c-0.4-0.4-0.8-0.6-1.4-0.8c-0.2-0.6-0.2-0.6-1.4-1.6c0-0.4,0-0.8-0.4-1.2c1.6-1.8,3.8-1.8,5.8-3
		c-3.8-2-8.2-1.2-12-2.6c0.2-0.4,0.6-0.8,0.8-1.2C328.8,0.2,348.4,3.2,364.1,5.8 M240.7,7L240.7,7c0.8-0.2,1.6-0.4,2.4-0.6
		C241.5,6.8,240.9,7,240.7,7 M59.8,128.4C59.8,128.4,60,128.4,59.8,128.4c0,0,0.4-0.4,0.6-0.8v-0.2c0,0-0.6,0.6-0.8,0.8
		C59.4,128.4,59.6,128.4,59.8,128.4 M58,131.8c-0.4,0.4-0.4,0.6-0.4,0.6c0.2-0.2,0.4-0.4,0.6-0.6s0.2-0.2,0.4-0.4l0.2-0.2
		c0.2-0.2,0.4-0.4,0.4-0.6c0,0,0,0-1,1C58.2,131.6,58,131.6,58,131.8 M172.1,74.6h-2c-3.8,1.2-7.4,3.2-11.2,4.4h-0.2
		c0,0,0,0-1.6,0.4c-0.6,0.2-1.2-0.2-1.8,0c-0.4,0.2-0.4,0.2-0.4,0.4c0,0,0,0,0.6,0.2c0,0,0.8,1-0.4,0.8c0,0-2.6,0-3.4,0.6
		c-0.4,0.2-1.4,1.2,0.6,1.8c1,0.2,0.4,1.6,0.8,2.2c0.4,0.6,1.4,0.6,1.8,0.8c0.2,0.6-0.6,0.8-0.6,1.4c0.6,0.2,1-1,1.6-0.4
		c0.2,0.2,0.2,1.2-0.8,1.2c-2.6,0-2.6,0.4-2.6,1.2c0.4-0.2,0.6-0.4,0.8-0.4c0.6,0,1-0.6,1.6-0.2v0.2c0.4,0,1-0.2,2.4-0.6
		c-0.6,1-1.4,1.6-2.8,2.2c-0.8,0.2-1.2,0.4-1.4,0.8c0.4,0.2,0.8-0.4,1.2,0c-0.2,0.8-1.2,0.6-1.6,1.2c0.4,0.2,0,0.6,0.2,0.8
		c0.6,0.2,5.2-2.6,5.2-2.6c1-0.6,1-0.8,1-1c-0.6,0.2-1,0.4-1.6,0.6c0,0,0,0-0.2,0c0.6-0.8,2.2-0.4,2.6-1.6c0,0-1.6,0.2-2.4,0.6
		c-0.4,0.2-0.6,0.2-0.8,0.2c0.2-0.4,0.6-0.6,0.6-0.6c0.6,0,1.2-0.6,1.6-0.8c0.8-0.2,1.4-0.2,2.2-0.4c0.2,0,0.8-0.4,1-0.6
		c-0.2-0.2-0.2-0.2-1.8-0.4c1.8-1.6,1.8-1.6,2.6-1.6c0.2,0,0.8,0,1.2-0.6c0.4-0.4-0.4-0.8,0-1.4c0.2-0.4,0.8-0.2,1-0.6
		c-0.6-0.6-1-0.4-1.4-0.2c-0.4,0.2-1,0.4-1.2,0.2c0.2-0.6,0-1.4,0.4-1.8c0.4-0.6,1-0.4,1.6-0.6c0.2,0,0.4-0.4,0-0.6
		c0-0.2,0.4-0.4,0.4-0.6c-1-0.2-1.8,0.6-2.8,0.4c0.2-0.2,1.6-1,1.6-1l4.2-1.6c0.6-0.2,1.4,0,1.8-0.6c0.2-0.2,0-0.4,0.2-0.6
		s0.4,0,0.4,0c0.4,0.4,1.2,0,1.4-0.4c0,0,0,0-0.6-0.2C172.1,74.8,172.1,74.8,172.1,74.6 M417.6,78.7
		C417.4,78.7,417.4,78.7,417.6,78.7c-1,0.4,0.8,2.6,2,2.8c0.6,0.2,1.8,0.4,1.2-0.8C419.8,79.3,418,78.7,417.6,78.7 M13.3,209.3
		L13.3,209.3l-0.4,1c0,0,0-0.2,0.2-0.4C13,209.7,13.3,209.5,13.3,209.3 M57.4,397.5c-0.2,0.4-0.4,0.8-0.6,1c-0.4-0.2-1-0.4-1.4-0.4
		c0,0-1.2,1.8,0.2,11.2c0.2,1.6-1.4,17.9-1.4,18.1c-0.2,0-0.4,0.2-0.6,0.2c-1.2,3.8-1.2,3.8-1,8.6c-0.4,0.2-1,0.2-1.6,0.2
		c-0.4,0.6-0.4,1.6-0.8,2.2c-2.2-1-3-4.2-6.2-3.6c0,0.2,0,0.2-4.4,0.8c-3.4,8.8,2.2,16.9,2.2,25.3c-0.2,0.2-0.4,0.2-0.6,0.4
		c1.6,6.4,1.6,6.4,1.6,7.6c-3-2-7.4-10-7.6-10c3,6.4,7.6,12,10.2,18.7c-1.2-1-1.6-1.6-3.2-4.2c-20.7-36.1-24.3-46.8-35.3-81.7
		c-5.2-19.3-7.6-36.3-8.4-42.7v-0.6l-1.8-20.1c-1.8-31.3,1.8-55.4,5-76.6l0.2-1c0.2-1,0.4-2.2,0.6-3.4c0.2-1,0.2-1.2,0.4-1.6v-0.2
		c0,0.2,0,0.2,0,0.4c0-0.4,0.2-0.8,0.2-1.2c0-0.2,0.2-0.6,0.2-1c0,0,0,0,0-0.2c0,0,0,0,0-0.2c0,0,0,0,0,0.2c0-0.2,0-0.4,0.2-0.8
		c3-12,7.4-23.9,10.6-35.9c0-0.4,0.2-0.6,0.2-1c-0.2,0.4-0.2,0.8-0.4,1.2c0,0.2-0.2,0.2-0.2,0.4c0,0,0,0,0-0.2c0,0.2-0.6,1.8-1,3
		c-0.4,1.6-0.6,1.6-0.6,1.6c0-0.2,1.2-3.4,2-5.8v-0.2l0.8-2c0.4-0.8,0.4-1.6,1-2.2c0,0.2-0.2,0.4-0.2,0.6c0,0.4-0.2,0.8-0.2,1
		c0,0,0,0,0,0.2c-0.6,2.8-2.2,5.2-2,8.2c1.8-2.6,2.2-6,4.6-8.2c0,0.2,0,0.6,0,1c0.2-0.2,0.4-0.4,0.8-0.6c0.2,0.2,0.4,0.4,0.6,0.6
		c0.8-0.6,1.6-1.6,2.4-2.2c0,6.2-7,9.4-6.2,16.1c4.6-8.4,4.6-8.4,4.8-8.4c0.8-2.4,0.8-2.4,1.6-3.2c0,0-2.4,10-2.6,12.6
		c3.2,1.4,0.4,5,2.4,7c0.6,0,1.4-0.2,1.8-0.6c1,0.8,1,0.8,2.2,2.8c-0.6,1.2-0.4,2.4-0.4,3.8c0-0.2,0.2-0.2,0.2-0.2
		c0.2,0,0.2,0,0.2-0.2c0.2-0.6,0.2-1.2,0.6-1.8c0-0.2,0.2-0.4,0.6-0.2c0,0,0,0,0.2,0.2c0,0.2,0,0.2,0,0.4c-0.2,0.4-0.4,0.6-0.4,1
		c-0.2,0.4-0.2,0.8-0.4,1c0,0.2-0.2,0.6-0.6,0.6l-0.4-0.4c0.2,1.8,0.2,3.4-1,5c-0.2,0-0.6-0.2-1-0.2c0,0.2,2,26.5,3,27.9
		c0.2,0,0.6,0,1,0c9.6,15.2,5.8,33.5,4.4,38.7c-0.6,0-1.4,0-2,0.2c0,0,0.2,0.2,0.6,0.6c0.2,0.2,0.2,0.6,0.4,0.8
		c-0.2,0.2-0.6,0.4-0.8,0.6c-0.2-0.2-0.4-0.4-0.8-0.6c-0.2,0.2-1.8,1.4-3.4,5.2c2.2-3.2,2.2-3.2,3.2-3.8c0,0-0.8,4.2-1.2,6.2
		c0.6-1.4,0.6-2.8,1.4-4.2l1,0.2c3.4,6.2,3.4,6.2,1,10.8c1.2-1.2,2.4-2.4,3.4-3.6c5,1.2,3.6,7.6,7.6,9.6c0.8,4.2,0.8,4.4-0.2,8.2
		c0.2-0.2,0.6-0.4,0.8-0.6c3.6-1.4,14.6,14.2,14.8,14.4c13.4,24.9,13.4,24.9,11.4,34.3c-1.6,6.4-8.2,9.4-10.6,15.2
		C58,397.3,57.6,397.5,57.4,397.5 M147.8,79.7c0,0.2,1.2,0,1.8-0.4c0.2,0,0.4-0.2,0.2-0.2C149.6,78.7,147.8,79.5,147.8,79.7
		 M155.7,73.4c0-0.2-0.2-0.2-0.2-0.2c0-0.2,0.2-0.4,0.2-0.6s0-0.2,0-0.2s-0.2-0.2,0-0.4c0,0,0-0.4,0.2-0.6c0.4-0.6,0.8-1,1-1.8
		c0-0.2,0.4-0.8,0.8-0.2c0.2,0.2,0.4,1.4,0,2.2c-0.2,1-1.4,3-1.8,3h-0.2C155.7,74,155.7,73.8,155.7,73.4 M316.5,12.6L316.5,12.6
		c-1.2-0.4-2.4-0.2-3.4-0.4c0.2,0,0.2,0,0.4,0c0.2,0,0.4,0,0.4,0c-0.4,0-4.6-0.2-4.6-0.2c0.4,0.2,0.4,0.2,0.4,0.2
		c-0.2,0-0.6,0-0.8,0c0.6,0.2,0.6,0.2,0.6,0.2c-0.2,0-0.2,0-0.6,0s-0.4,0-0.4,0.2c0,0-1,0-1.2-0.4c0.2,0,0.4,0,0.4-0.2
		c-0.2,0-0.4,0-0.6-0.2c0,0,0,0,0-0.2c-0.6,0-1.4,0-1.4,0c-0.2,0-0.4,0-0.6,0c-0.4,0.2-1,0-1,0c-0.8-0.4-1.6,0.2-2.4,0.2
		c0.2,0,0.6,0,0.8,0.2c-0.2,0-0.2,0-0.2,0.2c0.6,0,1-0.4,1.6,0c-0.8,0.2-1.4-0.2-2.2,0.2c0.6,0.2,1.4-0.2,2,0.2c-0.4,0-0.6,0-1,0.2
		c1.2,0.2,2.2-0.2,3.4,0.4c-0.6,0-1.2-0.2-2-0.2c0.8,0.2,1.8,0.2,2.4,0.8V14c0,0,1.4,0,1.6-0.2c-0.2,0-0.2,0-0.2-0.2
		c0.8,0,0.8,0,1-0.2c-0.2,0-0.2,0-0.4-0.2c0.2,0,0.4,0,0.6,0s0.6,0,1.6,0.2c0.2,0,1,0,1.6,0c-0.2,0-0.4,0-0.6-0.4
		c0.8-0.2,1.6,0.2,2.4,0c0,0-0.2,0-0.2-0.2c0.4,0,0.4-0.2,0.6-0.2c0.4,0,0.6,0.2,1,0c0.6,0,1.4,0,1.6,0c0.4,0,1.8,0.2,2.2,0
		c0.2,0,0.2,0,0.4,0c-0.6-0.2-1.2,0-1.8-0.4c0.2,0,0.2,0,0.4,0C317.7,12.8,317.1,12.8,316.5,12.6 M246.1,22.9
		c-0.2-0.4-0.2-0.4-0.2-0.4c-0.4-0.2-4.8,0-5.4,0.8c0,0-0.4,0.6,0.4,0.8c1.2,0.2,2.2-0.2,3.2-0.4h0.2c0.2,0,0.4,0,0.6-0.2
		C245.1,23.5,246.1,22.9,246.1,22.9 M218.8,27.5L218.8,27.5c0,0.2,0.2,0.2,0.6,0.2c0.8-0.2,1.2-0.6,1.4-1
		C220.7,26.5,218.8,27.1,218.8,27.5 M317.9,0.2C313.5,0,310.1,0,308.1,0c2.2,0,5,0,9,0.2C317.3,0.2,317.5,0.2,317.9,0.2 M222.7,21.1
		c-1.2,0.2-1.8,0.4-1.8,0.6c0.2,0,0.2,0.2,1.8,0c0.6,0,0.6,0,0.8,0v0.2c0.2,0,0.2,0,0.6-0.2c1-0.2,1-0.2,1.2-0.2c0,0,0,0-0.2,0.2
		c0.2,0,0.4,0,0.6,0c0,0-0.2,0-0.4,0.2c-0.2,0-0.6,0.2-0.8,0.2c-0.2,0.2-0.4,0.4-0.6,0.6c-0.2,0.2-0.6,0-1,0.2c0,0-0.4,0.4-1.6,1.2
		c0.4,0,1,0.2,1.4,0c0.4,0,1-0.4,1-0.4c0.2-0.2,0.6-0.2,0.6-0.6c0-0.2-0.2-0.2-0.4-0.2c0-0.2,0.2-0.2,0.6-0.2c0.6,0,1.4-0.2,3-0.8
		c0.2,0,0.2-0.4,0.4-0.4c0.2-0.2,0.6-0.4,1-0.4c0.4-0.2,1-0.4,1.4-0.6c0.6-0.4,1.2-0.4,1.8-0.8c-0.2,0-0.6,0-0.8,0
		c1.2-0.4,2.4-0.4,3.4-1.2c-0.2-0.2-6.2,0.8-7.4,1.2c-1,0.2-1,0.2-1.2,0.2c-0.8-0.4-0.8-0.4-1.8-0.2c0,0-0.4,0-0.4,0.2
		c-0.2,0.2,0,0.2,0,0.4c0.2,0,0.4,0,0.6,0C224.1,20.9,223.9,20.9,222.7,21.1 M263.2,14.8c0,0.2,0,0.2,0,0.2c0,0.2,0,0.2,0.2,0.2
		c0,0,0,0,0.2,0c0.6,0,1.2-0.6,1.8-0.8c1.6-0.6,3.2-0.2,4.8-0.4c0.2,0,0.4,0,0.6-0.2c1.4-0.4,4.8,0,5.2,0.4c0.4,0.2,0.6,0,1.2-0.4
		c-1.4-1.2-1.4-1.2-8.2-1.4c0,0-3.2,0.2-3.4,0.2c-0.2,0-1.4,0.6-1.6,0.8c0,0,0,0,0.4,0.2c-0.6,0.2-1.2,0-1.8,0.6
		C262.4,14.6,263.2,14.6,263.2,14.8 M251.7,20.3c0,0-0.2,0-0.4,0c-0.2,0-0.8,0-0.8,0c-0.2-0.4-1.2,0-1.4,0.2c0,0.2,1.4,0.2,1.8,0.2
		C251.1,20.5,251.5,20.3,251.7,20.3 M242.9,24.5c0.2-0.2,1.6-0.6,1.8-0.4l-0.2,0.2c-0.2,0.2-0.2,0.2-0.2,0.2c-0.2,0-0.2,0.2-0.6,0.2
		c-0.2,0-0.2,0-0.4,0C243.3,24.9,243.3,24.7,242.9,24.5 M230.1,33.5c0,0-5.2,4-8,4.8c0.2-0.2,0.2-0.4,0.4-0.4c-0.2,0-0.2,0-2.2,0.8
		c-0.2-0.2-0.4-0.2-0.6-0.2c0-0.4,0.4-0.8,0.2-1.2c0.2-0.2,0.2-0.2,1-0.6l-0.2-0.2c0.6-1,1.6-1,2.4-1.6c-0.2,0-0.4,0-0.6,0
		c0-0.2,0.2-0.4,0.4-0.4v-0.2c-0.8-0.2-3.8,2.2-3.8,2.2s-3.4,2.6-3.6,2.6c-0.6,0.4-0.8,0.4-1.2,0.6c-0.2-2,0.2-2.4,3.4-4.4
		c-0.2-0.8-0.2-0.8,0.2-1.2h-0.2c0.2-0.2,0.2-0.2,1.6-0.8c-0.2,0-0.2,0-0.4-0.2v-0.2c1.2-0.6,1.4-0.6,1.8-0.8c0.2,0,0.2,0,0.2,0
		s0,0,2-1.2c0.2-0.2,0.2-0.2,0.2-0.2s2.6-1.6,3.6-1.8v-0.2c0,0-0.2,0-0.2-0.2c0.2-0.2,0.4-0.4,0.6-0.6c0.2-0.2,0.2-0.2,0.2-0.2
		c-0.4,0-0.8,0.2-1.2,0.2c0-0.2,0-0.2,0.6-0.6c-0.4-0.2-1.2-0.2-1.6-0.6c0.8-1.6,2.2-1.6,5.4-1.6l0.2,0.2c0,0.4,0,0.4-1.2,1
		c0.2,0,0.4,0.2,0.6,0.2c0.2,0.2,0.4,0.2,0.6,0.2c0,0,0,0.2,0,0.4c0.2,0.2,0.2,0.2,0.8,0.2v0.2l-0.2,0.2c1.6,0,2.8-1.6,4.4-1.4
		c1.4,0.2,4.8,0.2,4.8,0.2s5.2-1.6,6-2l-0.2-0.2c0.6-0.4,1.4-0.4,2.2-0.6c-0.2,0-0.4,0-0.6,0v-0.2c-0.4,0-0.4,0-1-0.2
		c0.6-0.4,1.4-0.6,1.8-0.6l0.2,0.2c0.6-0.2,0.6-0.2,1-0.2c0,0,0-0.2-0.2-0.2c3.4-1.4,6.8-2.8,8.6-3.4c0,0,0-0.2,0-0.4
		c-1.2-0.2-2,1.2-3.2,0.4c0.4-0.6,1.2-0.8,1.6-1.2l-0.2-0.2c0.2-0.2,0.4-0.2,0.6-0.4c-0.4-0.2-0.8,0.2-1.2,0.2
		c0.4-0.2,0.6-0.4,1-0.6c0,0,0-0.2-0.2-0.2c1-1.4,1.6-1.6,3.4-1.8H260c0,0,0.4-0.2,0.6-0.2c-0.2,0-0.4,0-0.6,0c0,0,0-0.2,0.2-0.2
		c0.4-0.2,0.6-0.2,1-0.4c0.2-0.2,0.8-0.4,2.8-0.8v0.2c-0.8,0.4-0.8,0.4-1.2,1.2c0.2,0,0.4,0.2,0.6,0.2c-0.2,0.2-0.2,0.2-1.2,0.6
		c0.6,0,4-0.2,4.4-0.2c-0.2,0-0.4,0-0.6,0c0.4-0.2,2-0.6,2.4-0.6s0.8,0,1,0c-0.2,0.2-0.4,0.4-0.8,0.4c0.6,0,1.2,0,1.6-0.2
		c0,0,0-0.2,0.2-0.2c2-0.2,2.2-0.4,3-0.2c0,0-0.2,0-0.2,0.2c0.6,0.2,1.4,0,2,0c0.4,0.6,1.2,0.6,1.6,1.2c-0.8,1-2,0.4-3,0.8
		c1,0.6,2-0.4,3,0c-0.4,0.2-0.8,0.4-1,0.4c0,0.6,0.2,1.6-3.8,2c0-1,0-1-0.8-1.4c0.8-1,2-0.2,3-0.8c0,0-3.2-0.4-7,0.4
		c0.2,0,0.4,0.2,0.6,0.2c0.4,0,1,0,1.4,0c-0.2,0.2-0.4,0.2-0.6,0.2c0,0,0.2,0,0.4,0.2c-0.6,0.4-1.6,0-2.2,0.6l0.2,0.2
		c1.4-0.2,3.4-0.4,4-0.2c0.2,0.2,0.2,0.2,0.2,0.2c-0.4,0.4-0.8,0.4-1.2,0.8c0,0.2,0,0.2,0,0.2s0,0.2-0.2,0.2
		c-0.4,0.2-1.2,0.4-2.4,0.2l0.2-0.2c-0.4,0-0.4,0-1,0.2c0,0,0,0,1,0.4c0,0,0,0.2,0,0.4c-1.2,0.2-1.4,0.2-1.8,0.2v0.2
		c-1.4,0.4-1.4,0.4-3,1c0.8,0.2,1.4,0,2.2,0.2c-1.4,2.4-4.4-1.2-6,1.2c0.6,0,1-0.2,1.6-0.2c0.2,0.2,0.2,0.2,1.2,0.6
		c-1.2,0.8-2.6,0-3.8,0.4c0.8,0,1.8-0.2,2.6,0c-0.2,0-0.4,0.2-0.6,0.2c0.2,0.2,0.4,0.2,0.6,0.4c-1,1.8-3-0.4-4.2,0.4
		c0.2,0,0.2,0,1,0.2v0.2c-0.2,0-0.4,0.2-0.6,0.2c0.8,0.2,1.4,0,2.2,0c-0.6,0.2-1.8,1-2.6,1c0-0.2,0-0.4-0.2-0.6c0,0-3.6-0.4-8,2.2
		l0.2,0.2c-0.4,0.8-0.4,0.8-1.4,1c0,0.2,0,0.4,0,0.6c0.2,0,0.4,0,0.6,0c-0.2,0.2-0.2,0.2-0.8,0.6c0,0,0,0.2,0,0.4
		c-0.8,0.6-2,0.4-2.8,1.2v0.2h0.2c-0.6,0.4-1.2,0.2-1.8,0.4l0.2,0.2c0.4,0,0.4,0,1.4,0.6c-1,1-1.8,1.2-2,1.2l-0.2-0.2
		c-0.4,0-0.6,0.2-1,0.2c0-0.2,0.2-0.4,0.2-0.6l-0.2-0.2c-2.2,1-3,1.2-4.2,0.4c-1.4,0.2-2.6,1-4,1.2c0.4-0.2,0.4-0.2,1.2-0.6
		c0.2-0.4,0.6-0.6,0.8-1l-0.2-0.2c1.8-1.2,2.4-1.2,3-1c-0.2-0.2-0.2-0.4-0.4-0.4c0.8-0.4,3.4-1.8,3.4-1.8c-0.6-0.2-0.6-0.2-1.8-0.2
		l0.2-0.2C234.7,30.7,230.9,32.9,230.1,33.5 M307.7,105.3c0.2,0,0.4-0.4,0.6-0.6c0-0.2,0.2-0.4,0-0.4c-0.2,0-0.4,0-0.8,0.2
		s-0.4,0.6-0.4,0.8C307.1,105.5,307.7,105.3,307.7,105.3 M303.5,92.1c0.2-0.2,0.2-0.6,0.6-0.8c0,0,0.2,0,0.2-0.2
		c0,0,0.2-0.2,0.4-0.2c0.2,0,0.4-0.2,0.4-0.2c0.4-0.4-0.4-1-0.6-1c-0.6-0.2-2.2,0-2.6,0.6c-0.2,0.4,0.2,0.6,0.6,0.8
		c0.2,0.2,0.2,0.2,0.2,0.2c0,0.2,0,0.2-0.2,0.6c-0.2,0.2-0.4,0.6-0.4,0.6c0,0.2,0,0.2,0,0.4c0,0.2-0.2,0.4-0.2,0.6c0,0,0,0,0,0.2
		c0,0,0.8,0.4,0.8-0.8c0-0.4,0-0.4,0.2-0.4C303.1,92.1,303.3,92.1,303.5,92.1 M316.1,99.3c-0.2,0-0.4,0-0.6,0.2c-0.2,0-0.4,0-0.6,0
		s-0.4,0.2-0.4,0.2c-0.2,0.2-0.6,0.4-0.8,0.6c-0.4,0.2-0.8,0.4-1.2,0.8c-0.2,0.2-0.4,0.2-0.4,0.4v0.2c0.2,0.2,0.4,0.2,0.6,0.4
		c0.2,0,0.2,0.2,0.2,0.4c0,0,0.2,0,0.4,0c0.2,0,0.4-0.2,0.4-0.2c0.2-0.2,0.4-0.4,0.6-0.6s0.6-0.4,1-0.6l0.2-0.2c0.2-0.2,0-0.4,0-0.6
		C315.9,99.9,316.1,99.7,316.1,99.3 M212.8,41.3c-0.2,0.2-0.4,0.2-0.4,0.2s0.2,0,0.6,0c0.6-0.2,1-0.4,1-0.8c0,0,0,0-0.2,0
		c0,0-0.6,0-0.8,0.2c0,0-0.2,0,0,0.2c0,0,0.2,0,0.2,0.2C213,41.1,213,41.1,212.8,41.3 M216.8,24.5c0.2,0,0.4,0,0.6,0h0.2
		c0,0,0.4,0,0.6,0c0.4,0,0.4-0.2,0.4-0.2c0-0.2,0-0.4-0.2-0.4c0-0.2,0.2-0.2,0.2-0.4c0,0,0,0-0.2,0s-0.6,0-0.8,0c-0.2,0-0.4,0-0.8,0
		h-0.2c-0.6,0.2-1,0.4-1,0.4s-0.2,0,0,0.2c0,0-0.2,0-0.2,0.2c0,0,0.2,0,0.6,0C216.2,24.7,216.6,24.5,216.8,24.5 M211.4,28.1
		L211.4,28.1c0.4,0,0.6-0.2,1-0.2c0.4,0,0.6,0,1-0.2c0,0,0.2,0,0.4,0c0.4-0.2,1.2-0.4,1.4-0.6C214.2,26.7,211.4,27.7,211.4,28.1
		 M294.3,122.2c0.2-0.2,0.2-0.4,0-0.4c-0.2,0-0.2,0-0.6,0.2c-0.2,0-0.2,0.2-0.4,0.2c-0.2,0.2-0.4,0.2-0.6,0.4c0,0-0.2,0.2,0,0.2
		C292.7,123.2,293.7,123,294.3,122.2 M305.5,9.2L305.5,9.2c-0.2,0-1.4-0.2-1.6,0c0,0-0.2,0.2,0,0.4C304.3,9.4,305.5,9.2,305.5,9.2
		 M309.5,6.6c-0.4,0-0.6,0-0.6,0c-0.2,0-0.2,0.2-0.4,0.2c0,0,0.2,0.2,1,0.4c0.4,0,0.6,0,0.6,0.2c0,0,0,0.2,0.2,0.2
		c0,0,0.6,0.2,0.8,0c0,0,0-0.2,0.2-0.2s0.4,0,0.6-0.2C311.5,6.6,309.5,6.6,309.5,6.6 M304.1,7C304.1,6.8,304.1,6.8,304.1,7
		c-0.2-0.2-0.6-0.2-0.8-0.4c0,0,0,0,0-0.2c-0.8-0.2-1.8,0.2-2.6,0c-0.2,0-0.8,0-1,0c-0.4,0-1.8,0-1.8,0c1.6-0.6,3.4-0.2,5-0.4
		c0.6,0,1.2,0,2-0.2c0.6,0,1.2,0,1.8,0c0.2,0,0.2,0,0.2-0.2l-0.6-0.4c0,0-2-0.6-2.2-0.6c0,0-1,0-1.2,0c-0.4,0-0.8,0-1.2,0
		c0,0,0,0,0,0.2c-0.4,0-0.8,0-1.2,0c0.4,0.2,1,0.2,1.4,0.4c-0.8,0.2-1.6-0.6-2.4-0.2c0.2,0.2,0.4,0.2,0.6,0.4c-0.4,0-0.8,0-1.2,0
		c0,0.2,0,0.2,0,0.2c-0.2,0-0.2,0-1-0.2c0.2-0.2,0.6,0,0.8-0.2V5l0.2-0.2c-0.4,0-2.6,0-2.8,0.2l-0.2,0.2c0.2,0.2,0.6,0.2,0.8,0.4
		c-0.2,0.2-0.4,0-0.6,0.2c0.2,0,0.2,0.2,0.4,0.2c-0.2,0.4-0.6,0-1,0.2l0.2,0.2c-0.4,0-0.6,0-1,0c-0.2,0-0.2,0-0.2,0.2
		c0.2,0.2,2.2,0.4,2.4,0.4s1,0.2,2.2,0c-0.4-0.2-0.6,0-1-0.2c0.4,0,0.6,0,1,0c1.6,0,1.6,0,2.2,0C301.1,6.8,303.5,7,304.1,7
		 M306.5,9.6c-0.2,0-0.4,0-1,0c-1,0-1.6,0-1.8,0.2c0,0,0,0.2,0.4,0.2s4.6,0.2,4.6,0.2c0.4,0,0.4,0,0.4-0.2c0.6,0,1.2,0.2,1.8,0
		c-0.2-0.2-0.6,0-0.8-0.2c1.2,0,2.2,0.4,3.4,0c0,0,0,0,0-0.2c-1.4-0.6-2.8,0.4-4-0.2c-0.4-0.2-1.4-0.2-1.6,0c0,0,0,0,0,0.2h-0.2
		C307.3,9.4,306.9,9.6,306.5,9.6 M313.3,6.8C313.5,6.8,313.5,6.8,313.3,6.8c-0.2-0.2-1.6-0.4-1.8-0.2c0,0,0,0,0.2,0.2
		C312.1,6.8,313.3,6.8,313.3,6.8 M313.3,7.2L313.3,7.2c0,0.2,0.2,0,0.2,0.2c0,0-0.4,0-0.6,0.2c-0.2,0-0.2,0-0.2,0
		c-0.2,0.2-0.4,0-0.8,0c0.2,0.2-0.2,0.2-0.4,0.2c0,0,0,0,0.2,0c1,0.2,2.4,0,2.4,0c-0.2-0.2-0.4-0.2-0.4-0.2s0,0,0.2,0s0.2,0,0.2,0
		s-0.2,0-0.2-0.2C314.1,7.2,313.3,7.2,313.3,7.2 M299.7,11.2c-0.2,0.2-0.2,0.2-0.4,0.2c0,0,0,0.2,0.8,0.2c0.4,0,0.6,0,0.6,0
		s0,0,0-0.2c0,0,0,0,0-0.2c0.2,0,0.4-0.2,0.4-0.2c0.2,0,0.2,0,0.2,0c-0.2-0.2-1-0.4-1.4-0.2h-0.2c0,0,0,0,0,0.2
		C299.7,11,299.9,11,299.7,11.2 M317.5,15.2c-1.2,0-2.4-1-3.6-0.4h0.2c-0.4,0-0.4,0-0.6,0.2v0.2c0.4,0,0.8,0,1.2,0.2
		c-1.2,0.2-1.2,0.2-1.4,0.2c0.4,0.2,0.8,0.4,1.2,0.8h-0.2c2.4,0.4,2.4,0.4,2.4,0.6c-2-0.2-3.4-0.4-4.2-0.8c-0.4-0.4-0.4-0.4-0.4-0.4
		v-0.2c-1.4,0-2.8,0.8-4.4,0.2c4.2-0.6,4.2-0.6,4.2-0.8v-0.2c0.2,0,0.2-0.2,0.4-0.2c-0.6-0.2-2.4-0.2-3-0.2v0.2
		c-1.8,0.2-2.8,0.2-3.2,0c-1-0.2-1.2,0.2-1.2,0.2s0,0-0.2,0c-2.2,0.4-2.2,0.4-2.4,0.2c0,0,1.6-0.4,2.4-0.6c0-0.2-0.4-0.4-0.4-0.6
		c-0.2-0.2-3-0.8-3.4-0.4c0.2,0,0.4,0.2,0.4,0.2s0,0-0.2,0c-0.4,0-0.4,0-0.6,0c0.2,0.2,0.4,0.2,0.6,0.2c-1.2-0.2-2.6-0.6-3.8,0.2
		v0.2c0.8,0.2,1.8,0,2.6,0.4c-0.8,0.2-2.8-0.2-2.8-0.4c-0.2,0-0.2,0-0.4,0V14c-0.2,0-0.4-0.2-0.4-0.2s2.4-0.2,3.8-0.6V13
		c-1.4-0.4-2.8,0.4-4.2,0c0,0,0-0.2,0.2-0.2c-0.4-1-2.8-0.8-3-0.6c0.4,0,0.8,0,1.2,0.2c-1.8,0-1.8,0-2.2,0.2c0.8,0,0.8,0,1,0.2
		c-1,0-1,0-1.2,0.2c0.2,0,0.6,0,0.8,0.2c-1.2,0-1.2,0-2.2,0.6c0.6,0.2,1.2,0.2,2,0.2c-1,0.2-1,0.2-1.2,0.2c0.6,0,1,0,1.6,0
		c-1.6,0.2-1.6,0.2-1.8,0.4c0.4,0,0.8,0,1.2,0.2c-0.8,0-0.8,0-1,0.2c0.2,0,0.2,0.2,0.4,0.2c-0.8,0.2-1.6,0-2.4,0.2
		c0.8,0.2,2.4,0.6,2.6,1c0,0,1.4,0,2-0.2c-1-0.2-1-0.2-1.2-0.2c2-0.2,2-0.2,2.2-0.2c0,0,0-0.2,0.2-0.2c-1.2,0.4-1.2,0.4-1.4,0.4
		c0.8,0,0.8,0,1.4-0.4c-0.6-0.2-0.6-0.2-0.6-0.2s2.2,0,2.8,0c-0.8,0.2-1.6,0.2-2.2,0.4c0,0.2,0,0.4,0.2,0.4v0.2
		c0.6,0.2,1.2,0.4,2.6,0c0.6-0.2,0.6-0.2,0.8,0.2c0,0-0.2,0.2-0.4,0.4c0.2,0,0.2,0,1,0.2c0,0,0.8,0.6,2,0c1.6,0.6,1.6,0.6,2.4,0
		c0,0,3-0.2,3.4,0c-0.6,0.2-0.6,0.2-0.8,0.4c0.4,0.2,0.8,0.2,1.2,0.4v0.2c1.4,0,1.4,0,1.4,0c-0.2,0-0.4,0.2-0.6,0.2v0.2
		c0.2,0.2,1.8,0.4,2.4,0.4c-0.2,0-0.2-0.2-0.4-0.2c0.6,0,0.8,0.2,1.2,0.4c1.4-0.2,1.4-0.2,1.6-0.2c-0.4,0.2-0.6,0.2-1,0.2l7,1.2
		v-0.2c-0.2,0-0.2,0-0.4,0v-0.2c0,0,0,0-0.2,0s-0.4,0-0.4-0.2l2.6,0.6l-0.2,0.2c3.2,0.6,3.2,0.6,3.4,0.6c0.4,0,0.4,0,0.6-0.2
		l0.2-0.2c-0.2,0-0.4,0-0.4,0s1.8-0.2,2.4-0.2c-0.4,0-0.4,0-0.6-0.2c0.2,0,0.4-0.2,0.6-0.2c-0.4,0-0.4,0-1-0.4c0.6,0,0.6,0,0.8-0.2
		v-0.2h0.2h-0.2c0,0,0.4,0,0.8,0c-0.2,0-0.2,0-0.4,0c0.4,0,0.4,0,0.8-0.2c-0.4-0.2-1-0.2-1.4-0.2c0.4,0,1,0,1.4-0.2
		c-0.2,0-0.2,0-0.4,0c0,0,0-0.2-0.2-0.2c-0.8-0.2-1.4,0-2.2,0c0.2,0,0.4,0,0.4-0.2c0,0,0,0,0.2,0c0.6,0,1,0,1.6,0c0,0,0-0.2,0.2-0.2
		c-1-0.6-2,0-3.2-0.2c-0.2,0-0.4,0-0.4-0.2c1,0,1.8,0,2.8-0.2c-0.6,0-0.6,0-0.8-0.2c0.2,0,0.6,0,0.8,0c-0.2,0-0.2,0-0.4-0.2
		c0,0,0,0,0.2,0h0.2c-0.6,0-1.2,0-1.6-0.2c0.6,0,0.6,0,0.8,0c0,0,0,0-0.2,0c-0.4,0-0.4,0-0.8-0.2c0.2,0,0.2,0,0.6,0
		c-1.2-0.2-2.4,0.2-3.6-0.4c0,0,0,0,0-0.2c0.8-0.2,1.6-0.2,2.4-0.2c-1.4-0.4-1.4-0.4-1.8-0.4c-0.2,0-0.6-0.2-0.8-0.2
		c0.8,0,0.8,0,1.2-0.2c-0.4-0.2-0.8-0.2-1.2-0.4c0.2,0,0.4,0,0.4,0v-0.2c-1-0.4-1-0.4-1.4-0.4c0.4,0.2,0.4,0.2,0.6,0.4
		c-6,0-6,0-6.4,0C315.3,14.8,316.7,14,317.5,15.2 M300.9,14.2c0.6,0.2,1.2,0,1.8,0.2C302.1,14.6,301.5,14.4,300.9,14.2 M310.7,5.4
		c0,0-0.2,0-0.6-0.2c-1.4-0.4-1.6-0.2-1.6-0.2c0.2,0.2,0.4,0,0.4,0.2h-0.2c0,0,0.2,0.2,1.4,0.4c0.6,0,1,0.2,1.2,0.2c0,0,0,0,0.2,0
		c0.6,0.2,1.6,0,1.6,0c-0.2-0.2-0.4-0.2-0.6-0.2c0.2,0,1,0,1.4,0c0.2,0,0.2,0,0.2,0c0-0.2-0.2-0.2-0.2-0.2c-0.2-0.2-0.6-0.2-1-0.4
		c0,0,0,0,0.2,0c0,0-0.2,0-0.4-0.2c0.2,0,0.2,0,0.4-0.2c-0.2-0.2-0.8-0.2-1-0.2c0,0,0,0-0.6,0s-0.6,0-0.6,0c0.2,0,0.4,0,0.4,0.2
		c0,0,0,0-0.6,0c-1.2-0.2-1.4,0-1.4,0s0.2,0,0.8,0.2c0.6,0,0.6,0,0.8,0.2c-0.4,0-0.6,0-1,0c0,0,0,0,0.4,0.2
		C310.7,5.2,310.7,5.2,310.7,5.4c0.2,0.2,0.4,0,0.6,0.2C310.9,5.4,310.7,5.2,310.7,5.4 M286,10.2c-0.4,0.2-0.6,0-1,0.2
		c0,0,0,0-0.6,0.4c0,0,0,0,0.8,0.2c1.8,0,2.2,0,2.6,0c0,0,2.2-0.2,2.4-0.4c-0.2-0.2-0.6,0-0.8-0.4c-0.2-0.2-0.6,0-1-0.2
		c-0.2,0-0.2,0-0.4-0.2c-0.2,0-0.8,0-0.8,0s0,0,0.2,0c-0.4,0-0.8,0-1.2,0C286.2,10,286,10,286,10.2 M304.3,11.2h0.4
		c0.2,0,0.4-0.2,0.6-0.2c0.6,0,1,0,1.6,0c0.2,0,0.4,0,0.8-0.2c0,0-1-0.2-1.6-0.2c-1.2,0-1.4,0-1.8,0c-0.4,0.2-0.8,0-1.4,0
		c-0.2,0-0.4,0-0.6,0.2s0.2,0.2,0.4,0.2C302.9,11,302.9,11,304.3,11.2 M293.7,9.6l-4.8-0.4c0.2-0.2,0.6-0.2,0.8-0.2
		c-0.2,0-0.2,0-0.4-0.2c0.4-0.2,2.8,0,2.8,0h-0.2c0.8,0.2,1,0.2,1.4-0.2c0-0.2,0-0.4,0.4-0.4c1-0.2,1.8,0,2.8-0.2
		c0.6-0.2,3.2,0,3.8,0.2c-0.8,0.2-3.8,0.2-3.8,0.2c-0.4,0-2,0.2-2,0.2c0.2,0.2,1.8,0,1.8,0c0.4,0,1.4,0,1.6,0.2c-0.2,0-0.2,0-0.8,0
		c-1.6,0-3,0.2-3,0.2c0.4,0.2,2.4,0,2.4,0c0.4,0,1,0,1.4,0c0,0.2-0.4,0.2-0.8,0.4c-0.6,0-0.6,0-0.8,0c0.2,0.2,0.4,0.2,0.8,0.2
		C296.7,9.8,294.5,9.6,293.7,9.6 M282.8,9L282.8,9c-0.4-0.2-0.4-0.2,0-0.4c0.4-0.4,1.2,0,1.6-0.6c-0.2-0.2-0.4,0-0.6,0
		c-0.8,0.2-4.6,0.4-5,0c1-0.6,2,0,3-0.6c-0.4-0.4-1.6-0.2-3.8,0.2c-0.2,0-0.4,0.2-0.6,0.2c-1,0.2-1.6,0.2-2.2,0.2
		c-1.2,0.2-2.4,0.2-3.8,0.4c-0.6,0.2-0.8,0.2-0.8,0.2c0.6,0,1.4-0.2,2,0c-0.4,0-0.6,0-1,0c-0.2,0-0.2,0-0.2,0.2
		c0.2,0.4,0.2,0.4,2.8,0.4c0,0,3.8,0,4.2-0.2c-0.2,0-0.4,0-1,0c-1.2,0-1.2,0-1.2,0c0.8-0.2,1.4,0,2.2-0.2c-0.2,0-0.4,0-0.4-0.2
		C279.8,8.4,281.2,9.8,282.8,9 M295.7,3c-0.2,0.4-0.6,0.6-0.8,0.8c0,0,5.6,0,6-0.2c0-0.2-0.2-0.2-0.4-0.2c1.6-0.2,3,0,4.6-0.2
		c0.8-0.2,1.6-0.2,2.4-0.4c-0.2,0-1.6-0.2-2.4-0.2c-1,0-1.8-0.4-2.8-0.6c-0.6-0.2-1.4-0.4-2-0.4c-1.2,0-2.2,0.2-3.4,0.2
		c-1,0-1.8,0-2.8,0h-0.2c0,0-0.2,0-0.4,0.2c0,0-0.2,0-0.4,0c-0.4,0-0.6,0.2-0.6,0.2c0.8,0.2,1.8,0,2.6,0.2c-0.4,0-0.6,0-1,0.2
		C294.9,2.8,295.3,2.4,295.7,3 M279.8,15.7c0-0.2,0-0.2,2.4-0.6c-0.6-0.4-1.2,0.2-1.8,0c0,0,0,0,0.2-0.2c0,0,0,0,0.6-0.2H281
		c0.2-0.2,0.4,0,0.4-0.2c-0.2,0-0.6,0-0.8-0.2c0.2-0.2,0.4-0.2,0.6-0.4c0,0,0,0-0.2,0c0-0.2,0.4-0.2,0.4-0.4c-0.2,0-0.2,0-0.2-0.2
		c0,0,0,0,0.6,0c0.8,0,1,0,1.2,0c0,0,0,0,0.4-0.2c-0.4-0.2-1,0-1.4,0c0.2-0.2,0.6-0.2,0.8-0.4c0.4-0.2,1,0,1.4-0.2
		c-0.4-0.2-0.6,0-1-0.2c0.8-0.2,3.4-0.4,3.4-0.4c1,0,1.8,0.2,2.8,0.2c1.4,0,2.6-0.2,4-0.2c0,0,0.4,0,0.6,0c-0.2,0.2-0.4,0.2-0.6,0.2
		c0,0,0.2,0.2,0.4,0.2c-1.4,0.6-2.6-0.2-4,0c0.2-0.2,0-0.2-0.2-0.2c0,0.2,0.2,0.2,0.4,0.2c-0.2,0-0.6,0-0.8,0c-0.2,0.2-1,0.2-1,0.2
		c-0.4,0-1.4,0-1.4,0s0,0,0.8,0.2c-0.2,0.2-0.6,0-0.8,0.2c0.2,0,0.2,0,0.4,0.2c0,0,0,0-0.6,0.2c0.2,0,0.2,0,0.4,0.2
		c-0.2,0-0.6,0.2-0.8,0.2c0.2,0.2,0.6,0.4,0.8,0.8c0.2,0,0.4,0.2,0.6,0.2c-0.8,0.2-0.8,0.2-0.8,0.4c0.4,0.2,0.4,0.2,0.6,0.4
		c-0.4,0.2-0.6,0.2-1,0.4c-0.6,0-0.6,0.2-0.8,0.4l-1.6,0.4h-0.2c-0.6,0-1.2-0.2-1.6-0.2c-0.6,0-1,0.4-1.6,0
		C280.6,15.9,280,15.9,279.8,15.7 M419.2,46.6c0.2,0-0.4-0.4-0.4-0.4c-0.2-0.2-0.4-0.2-0.6-0.2C418.2,46.1,419,46.8,419.2,46.6
		 M307.5,5.8c0,0,0.8,0,1,0.2h-0.2c-0.4,0-0.6,0-1,0C307.3,5.8,307.5,5.8,307.5,5.8 M307.5,4.4c0,0,0.2,0.2,0.2,0.4c0,0,0,0,0,0.2
		c0,0,0,0-0.2,0c-0.4,0-1-0.4-1-0.4C306.3,4.4,306.9,4.2,307.5,4.4 M314.1,11c0,0,0,0-0.6,0s-0.6,0-0.6,0s0,0,0.6,0.2
		c1.8,0.2,2,0.2,2.2,0.2C315.5,11.2,314.3,11,314.1,11 M296.9,10.2c-0.6,0-1.4,0-2,0.2h-0.2h-0.2c-0.2,0-0.2,0.2-0.4,0.2
		c-0.2,0.2-0.6,0-0.8,0.2l1.4,0.2c0.2,0,0.8,0,1,0s0.2-0.2,0.4-0.2c0.4-0.2,0.8-0.2,1.2-0.2c0,0,0.4-0.2,0.6-0.2
		C297.9,10.4,297.9,10,296.9,10.2 M413,39.3c-0.4-0.2-0.4-0.2-0.4-0.4c-0.4-0.4-1-0.4-1.4-0.8c0.6,0,1,0.4,1.6,0.4
		c0.8,0.2,1.4,0.6,2.2,0.6c0,0-0.2,0-0.2-0.2c0.4,0,0.4,0,0.6,0c-0.2-0.6-1-0.4-1.4-0.8c0.6,0.2,1,0.4,1.6,0.6
		c-0.2,0-0.2-0.2-0.4-0.2c1,0.2,1,0.2,1.2,0.2c-0.4-0.2-0.8-0.2-1.2-0.6c1,0.4,1,0.4,1.2,0.2c0-0.2,0-0.2-0.4-0.4
		c-0.6-0.2-0.6-0.4-0.8-0.4c-1.2-0.6-2.4-1-3.6-1.4c0,0-1.6-0.6-2-0.4c-0.2,0-0.2,0-0.2,0c0.4,0.2,0.6,0.2,1,0.4c-4-1-4-1-4-1.2
		c0.2,0,0.2,0,0.2,0c-0.8-0.4-4.2-1-4.2-1c0.2,0.4,0.6,0.4,1,0.6c-0.2,0-0.2,0-0.2,0c0.2,0.2,0.6,0.2,0.8,0.4h-0.2
		c0.8,0.6,2,0.8,2.8,1.4c0.8,0.6,2,0.6,2.8,1.2c-0.6-0.2-0.6-0.2-0.6-0.2s2.8,1.4,3,1.4c-0.2-0.2-0.2-0.2-0.2-0.2
		c0.2,0,0.2,0,0.4,0.2c-0.2-0.2-0.4-0.2-0.6-0.4C411.8,38.9,412.2,39.3,413,39.3 M292.9,7.4c-0.4,0-0.4,0-0.4,0c0.4-0.4,2,0,2.2,0
		C294.5,7.4,293.3,7.4,292.9,7.4 M297.7,12c0.4,0,1.2,0,1.4,0.2c-0.2,0.2-0.4,0-0.6,0.2c-0.2,0-0.6,0-1.2,0c-0.6,0-0.8-0.2-0.8-0.2
		s0,0,0.2,0C297.5,12,297.7,12,297.7,12 M302.9,8.2C302.9,8.2,303.1,8.2,302.9,8.2c0.2,0,0.4,0,0.8,0h3l0,0
		C306.3,8.2,303.1,7.8,302.9,8.2 M41.7,191c0.2-0.4,0.2-0.4,0.2-0.4c-0.2,0-0.6,0.2-0.6,0.4c-0.2,0.4-0.4,0.8-0.4,1
		C40.9,192.2,41.5,191.4,41.7,191 M55,134.6c-0.2,0.8-4.2,6.4-4.2,6.4l-0.2,0.2c0-0.2,2.6-4.4,2.6-4.4
		C53.4,136.4,54.8,134.6,55,134.6 M41.3,192.4C41.3,192.4,41.3,192.2,41.3,192.4c-0.2,0-0.4,0-0.4,0.2c-0.2,0.2-0.2,0.6-0.2,0.6
		c0,0.2,0.4,0,0.4-0.2C41.3,192.6,41.3,192.4,41.3,192.4 M40.3,199c0.2-0.2,0.2-0.8,0.2-1c-0.2,0-0.4,0.2-0.4,0.2
		c-0.2,0.2-0.2,0.4,0,0.6C39.9,198.8,40.1,199.2,40.3,199 M50.6,143.9c0,0.2-1,1.8-1.2,2C49.4,145.7,50.4,143.7,50.6,143.9
		 M41.1,196.6c0,0,0.2,0.2,0.4-0.2c0.2-0.4,0.4-1.2,0.4-1.2C41.7,195,41.1,196.4,41.1,196.6 M312.7,14.2c0.4,0,1,0,1,0
		C313.3,14,312.9,14.2,312.7,14.2 M403.8,35.9c0-0.2-0.4-0.4-0.8-0.6c-0.8-0.4-1-0.2-1-0.2s0,0,0,0.2c0,0,0,0,0,0.2
		c0,0,1,0.4,1.2,0.4c0,0,0,0,0.2,0C403.8,36.1,403.8,35.9,403.8,35.9 M283.8,66.6c-0.2,0-0.2,0-0.4,0c-0.4-0.2-0.4-0.2-0.4-0.2
		c-0.2,0-0.4,0.2-0.6,0.2c-0.4,0-0.6,0-1,0.2h-0.2c0,0-1.4,0.4-1.6,0.4c-0.2,0.2-0.4,0.2-0.2,0.4c0,0,0.2,0,0.4,0c0.6,0,0.8,0,1,0.2
		c1.2,0.6,1.2,0.6,1.4,0.8c0,0,0,0,0.2,0.2c0.4,0,0.6-0.2,0.8-0.2c0.2,0,0.2,0,0.2,0c0,0.2,0.4,0,0.4,0c0.2,0,0.4-0.2,0.4-0.2
		c0.2-0.2,0.4-0.4,0.4-0.6c0,0-0.4-0.2-1,0h-0.2C282.8,67.8,284.2,67,283.8,66.6 M310.5,135.2c-0.6,1.4-1.2,1.4-2.8,1
		c0,0.6,0,1.4-0.8,0.8c0,0-0.2-0.2-0.2-0.4l-0.2,0.2c-0.2,1.2-0.2,1.4-2,1.2c0.8,1,2.2,0.6,3,1.4c0,1-2.6,1-2.6,1
		c-0.8-0.2-1.6,0.2-2.4-0.2c-0.6-0.2-1-0.8-1.8-1c-1.6-0.4-1.6-0.4-2-0.6c-0.2,0-1.2-0.6-1.6-0.8c-1.2-0.2-2.2,0.4-3.2,0.4
		c-1,0-1.4-1-2.4-1c-1.4-0.2-2,1.2-3,1.6h-0.2c-0.4-1.4-1.6-1-2.4-0.8c-2.2,0.8-2.2,0.8-2.6,0.4c0.2-0.2,4.6-3.2,4.6-3.2
		c1.4-0.4,1.4-0.4,4,0.4c1.4,0.4,2.4-0.6,3.6-0.8c-0.8,0-1.4-0.8-2.2-0.2c-0.4,0.2-1,0-1,0c-0.2,0-0.4-0.2-0.4-0.4
		c0-0.6-1.2-1.2-2-1.6c-0.8-0.4-1.8,0.2-2.6-0.4c-0.6-0.4-0.2-1.2-0.2-1.4c0.2-0.2,0.4-0.2,1,0c0.6,0,3-0.4,3.4-0.6s1.4-2.2,0.6-2.4
		c-0.6,0-1,0.4-1.6,0.2c0-0.2,0-0.4,0-0.4c0.4-0.4,1.2,0,1.4-0.8c0-0.4-0.4-0.6-0.2-1c0,0,0.2-0.4,0.8-0.2c4,2.2,4.2,1.8,6.4-1.6
		c-0.2-0.8-1.6-0.8-1.6-2c0-0.4,0-0.4,1.4-1.4c-0.6-1-1.6,0.2-2.4,0c0-0.2,0-0.4-0.2-0.6c-1.4,0.4-1.4,0.4-1.4-0.4
		c-0.4,0-0.6,0.4-1,0.2c-0.4-1-0.4-1,1.8-2.2c1-0.6,0.6-1.6,1-2.4c-0.2,0-0.4,0-0.6,0c-1.4,0.2-1.4,0.2-1.8,0.6
		c-1.4,1.2-1.4,1.2-1.6,1.2c-0.6-1.4,1.4-1.8,1.8-2.8c-0.2-0.2-0.2-0.4,0-1c-0.2-0.4-1-0.2-1-0.8c0-0.4,0.6-1.6,1.2-1.6
		c0.2,0,0.2,0,0.4,0.4h0.2c0.4-0.4,0.4-1,0.8-1.4v-0.2c-1.4,0.4-1.4,0.4-1.6,0.2c0,0,0.4-1.8,1.8-2c0.2,0,0.2,0,0.2,0
		s0.2,0.2,0.2,0.4c0.8-0.2,1.2-0.8,2-0.6c0.8-1,1.6-2,2.2-2.2c1.6-0.2,2.8,0.6,4,1c0.4,0.2,1.2,0.8,0,1.2c-0.6,0.2-1.2,0.2-1.8,0.6
		c-0.4,0.2-0.6,0.8-1,1.2c0,0,0,0.2,0.2,0.2c0,0,6,0.6,4.6,2.2c-2,2-4.4,3.4-6.4,5.4c3-1.6,4.2,1.8,3.6,3.6c-0.2,0.6-0.4,1-0.4,1.6
		c0,0.6,0.4,1,0.2,1.6c0,0.2,0,0.2,0,0.2c0.4,0,0.4,0,0.6,0.2c1.2,0,1.2,0,1.4,0.2c0,0,0.6,2.6,0.4,2.8c0,0,0,0-0.8-0.2
		c0.2,1,1.2,1.6,1,2.8c0,0.2,0,0.2-1.4,1v0.2c0.8,0.6,0.8,0.6,1.4,0.4c0.8-0.2,3.4,1.6,3.4,1.8C311.1,133.8,310.7,135,310.5,135.2
		 M273.8,129c0.2,0,0.6,0,0.8,0c1.8-0.2,3.4-1,5.2-1.2c0,0,2,0,2.4,0.2c0.8,0.4,1,0.4,1,0.2c0,0,2-1.6,2.8-3c0.2-0.4,0-1.2,0.6-1.4
		c0.8-0.2,0.4-1.2,0.6-1.6c0.8-1.4,1.2-1.4,1.8-1.4c0.6,0,1.2,0,1.4-0.2c0.2-0.2,0.2-0.4,0.2-0.8l-0.8-2.8c0,0,0-0.2-0.2-0.2
		c-0.4-0.2-0.8-0.2-1-0.4c-0.6-0.2-0.4-1-1-1.4c-0.6,0-1,0.8-1.4,0.4c-0.6-0.6-1-0.4-1.2-0.2c-0.8,0.8-1.6,1.8-2.6,2.4
		c-0.2,0.2-0.4,0.2-0.8,0c-0.8-0.2-1.2-0.4-2,0c-0.6,0.2-0.8,0.8-1.2,1.2c-0.6,0.4-1.2,0.8-1.6,1.2c-0.4,0.4-0.6,0.8-0.2,1.2
		c0.4,0.4,0.4,0.6-0.8,1.8c-1,1-2.6,1.4-3.6,2.6c-0.4,0.4-0.4,1.4-0.4,1.8C272,128.6,272.4,128.8,273.8,129 M290.9,115
		c0,0.4,0.8,0.8,1,0.4s-0.4-1-0.4-1C291.1,114.2,290.9,114.6,290.9,115 M341.4,34.1c-1.4-2-3.6-0.4-5.2-1.6c0,0-3.4,0.6-4.8,0.4
		c1.6-0.4,3.4-0.6,5-1.2c0-0.2,0-0.4,0-0.6c-1.4-0.4-2.8,0-4.4-0.2c0.8,0,1.6,0,2.4-0.2c0-0.2,0.2-0.4,0.2-0.6
		c-1.6-0.6-3.2-0.8-4.8-1.2c0,0,4.2-0.4,5.2,1c0,0,0,0,0.4,0c2,0.2,2,0.2,2.4,0.4c0,0,0,0,0.2,0c0.4,0,0.8-0.2,1.2-0.4
		c-0.6-0.6-0.6-0.8-0.4-1.6c0.2,0,0.4-0.2,0.6-0.2c0-0.2,0-0.4,0-0.6c-0.2,0-0.4-0.2-0.6-0.2c0.2-0.2,0.2-0.2,0.4-0.4
		c-1.2,0-2-1-3.2-1c0,0,0,0-3,0c0.4-0.2,0.8-0.4,1-0.6c-0.4,0-0.8,0-1.2,0c0-0.2,0.2-0.4,0.2-0.6c-1.4-0.2-2.8,0.2-4.2,0.2
		c0-0.2,0.2-0.4,0.4-0.4c0,0-2.4,0.8-3.4,1.2c0,0,0,0-0.2-0.2c0.6-0.2,0.8-0.8,1.4-1.2c0-0.2,0-0.4,0-0.6c-3.4,0.4-3.4,0.4-3.4,0.4
		c0.8-0.2,0.8-0.2,1.6-0.8c-2.8,0.4-2.8,0.4-4,0.2c3.4-0.4,3.4-0.4,4-0.6c-1.6-0.2-3-0.6-4.6-0.8c0.4,0,0.8-0.4,1-0.6
		c-1.4-0.4-3,0.2-4.4,0c0.2-0.2,0.2-0.4,0.4-0.4c-0.2,0-0.2,0-2,0c0.4,0,1-0.2,1.4-0.2c-5.2-1-5.2-1-6-0.6c0,0.2,0.2,0.4,0.2,0.4
		c-4.4,0.4-8.4-3.2-13-1.8c0,0.2,0,0.4,0,0.6c-1,0.2-1,0.2-1.8,0.4c0,0,0,0,0.4,0.4c0.2,0,0.4,0,0.6,0c-0.2,0.2-0.2,0.4-0.4,0.4
		c0.2,0.2,0.4,0.2,0.6,0.4c-0.6,0.2-0.6,0.2-1.6-0.2c0-0.2,0-0.4,0-0.6c-2.8-0.8-2.8-0.8-4,0.6c-1.2-0.6-1.2-0.6-1.6-0.4
		c0,0,0,0-0.4,0.2c-0.2,0-0.4,0.2-0.6,0.4c0,0.2-0.2,0.4-0.2,0.6c0.2,0,0.4-0.2,0.6-0.2c0.4,0.2,0.8,0.4,1.2,0.6
		c-0.4,0-0.8,0.2-1.2,0.2c1,0,1.2,0,1.8,0.4c-0.2,0-0.6,0.2-0.8,0.2c0.2,0,0.4,0,0.6,0c0.2,0.2,0.2,0.8,0.2,1
		c-6,3.8-7.2,4.2-14.6,6.2c0.2,0.2,0.2,0.4,0.4,0.4c-2.6,1-5.8-0.2-8.2,1.6c0,0.2,0.2,0.4,0.2,0.6c0.6,0,0.6,0,4.8-0.8
		c-0.4,0.2-0.6,0.6-0.8,1c-1.4,0.4-3,0.2-4.2,1.2c0.4,0,0.8,0,1.2,0.2c-0.4,0.2-0.6,0.6-0.8,0.8c0,0,0,0,0.2,0.2c0,0-11.2,5-13,3.4
		c0-0.2,0-0.4,0-0.6c-8.2,1.6-8.2,1.6-8.6,2c0,0.4-0.2,0.8-0.6,1c-5.4,0.4-11.4,5.8-11.4,5.8c1-0.2,1.8-0.4,2.8-0.6
		c0,0.2,0,0.4,0.2,0.6c0.4,0,0.8,0,1.2,0.2c-0.2,0.2-0.6,0.6-0.8,0.8c0-0.2,0-0.4-0.2-0.6c-5-0.2-10.2,5.4-10.2,5.4
		c0,0.2,0.2,0.4,0.2,0.6c-2.4,1.6-2.4,1.6-5,5c0.4,0,0.8,0,1.2-0.2c0.2,0.2,0.6,0.6,0.8,0.8c0.4,0,1,0,1.4,0c-1.2,1-1.2,1-1.4,1.6
		c0.2,0,0.4,0.2,0.6,0.2c-0.6,0.8-1.8,1.2-2.2,2.2c0.2,0.2,0.2,0.4,0.4,0.4c0,0.2,0,0.4-0.2,0.6c1.4,0.6,2,0,3.4-1.2
		c0.2,0,0.4,0.2,0.4,0.4c1.4-0.4,2.4-1.6,4-2c0,0.2,0.2,0.4,0.2,0.6c4.2-2,4.2-2,4.6-3.4c1,0,1.8-0.8,2.8-0.4c0,0.2,0,0.4,0,0.6
		c0,0,6.2-0.8,6.8-2.4c-0.2,0-0.4-0.2-0.4-0.4c0.2-0.2,0.6-0.4,1-0.6c1.2,1.4,2.4-0.6,2.4-0.6s4-1,5.4-1.2c0.4,0.4,2,1,2,1
		c0.2-0.2,2-0.8,3-1c0.2,0.2,0.4,0.4,0.4,0.4c-2.4,0.4-2.6,0.6-3.2,1.2c0.6,0.2,0.6,0.2,2.4-0.4c0,0,4,1.4,7.6,0.2l9-2.6
		c-0.2,0.6-0.4,1.2-0.4,1.8c0.2,0.2,0.4,0.4,0.4,0.4c0.8,0,1.6-0.2,2.4-0.2c0,0,0,0,0,0.4c2.4,1.2,13.6,1.8,16-0.2
		c-2-0.6-3.6-2.8-6-2.4c-0.2-0.2-0.4-0.2-0.4-0.4c1.8-0.6,3.8,0.4,5.6-0.2c0-0.2,0.2-0.4,0.2-0.6c-0.4-0.2-1-0.4-1.6-0.8
		c2.4,0.2,2.4,0.2,3.2-0.4c-0.2-0.2-0.6-0.6-0.8-0.8c0.4,0,0.8,0,1.2,0.2c0.2,0.6,0.2,0.6,0.8,1.4c-0.4,0.8-1,1.4-1.6,2
		c0,0.2,0,0.4,0,0.6c0.8,0.2,1.6,0,2.2,0c-0.2,0.2-0.4,0.4-0.4,0.6c1.4,0.6,2-1,3-1.4c0-0.2,0-0.4,0-0.6c-0.2,0-0.4-0.2-0.6-0.2
		c0.2-0.2,0.4-0.6,0.6-1c0.4-0.2,0.8-0.4,1-0.6c-0.2-0.6-0.2-1.2-0.4-1.6c-0.4,0-1-0.2-1.4-0.2c-0.2-0.2-0.2-0.4-0.4-0.4
		c0.2,0,0.4-0.2,0.4-0.4c0.2,0.2,0.4,0.2,0.4,0.4c1-0.2,1.6-1.2,2.6-1.4c0,0.2,0.2,0.4,0.2,0.6c-0.4,0.2-0.8,0.6-1,0.8
		c0,0.6,0.4,1.2,0.4,1.6c0.2,0,0.4,0,0.6,0.2c0.8-0.8,1.8-0.6,2.4-1.6c0-0.2-0.2-0.4-0.2-0.6c0,0,0,0-0.2-0.2c0-0.4-0.2-0.8-0.4-1
		c0.4-1,0.8-0.8,1.4-0.6c0,0.2-0.2,0.4-0.2,0.6c0.2,0.2,0.4,0.6,0.6,1c3.2,0.4,3.2,0.4,4-0.2c-0.2-0.4-0.2-0.8-0.4-1
		c0,0,0,0-0.4-0.2c0-0.2,0-0.4,0-0.6c0.2,0,0.4,0,0.6,0c1.2,1,1.2,1,2.6,0.6c0,0.2,0.2,0.4,0.2,0.6c0,0.2,0,0,0.4,0
		c0.4-0.2,0.6-0.6,0.8-0.8c-0.2-0.2-0.2-0.2-0.4-0.4c0.2-0.2,0.6-0.6,0.8-0.8c-0.4,0.2-0.8,0.4-1.2,0.4c0.2-0.2,0.6-0.6,0.8-0.8
		c1.4-0.2,1.4-0.2,1.8,0c0,0.2,0,0.4,0.2,0.6c0.6-0.2,1.6-0.8,2.8-2.6c-0.4-0.2-0.6-0.4-1-0.8c0.2-0.2,0.4-0.6,0.6-1
		c1.2,0.6,3-0.4,3.6,1.4c1.4-0.2,1.8-0.8,2-1.4c-1,0-1-0.2-1.4-0.8c-0.2,0-0.4-0.2-0.6-0.2c1.2-0.4,1.4-0.4,2.2,0
		c0.2,0,0.4-0.2,0.4-0.4c-0.2-0.2-0.6-0.6-0.8-0.8c-0.6,0-1.2,0.2-1.8,0.2c2.8-1,5.8-1.8,8.4-3c0.2,0.2,0.4,0.4,0.4,0.4
		c3.4-0.6,3.4-0.6,4-1.2c-0.2-0.2-0.6-0.4-1-0.6c2.2-1,4.4,0.4,6.6-0.2C341.2,34.5,341.4,34.3,341.4,34.1 M291.1,108.3
		C291.1,108.3,291.1,108.6,291.1,108.3c-0.2,0.2-0.2,0.4-0.2,0.4s0.2,0.2,0.4,0c0.2-0.2,0.4-0.6,0.6-0.8c0.4-0.2,0.4-0.2,0.4-0.4
		c0.2-0.2,0.4-0.6,0.4-0.6c0.2-0.2,0.4-0.2,0.6-0.2c0.2-0.2,0.4-0.2,0.6-0.4h0.2c0.2,0,0.2,0,0.6,0c0.2,0,0.4,0,0.4,0h0.2
		c0.2,0,0.4-0.4,0.8-0.4h0.2c0.2-0.2,0-0.2,0-0.2c-0.2,0-0.4,0-0.4-0.2c-0.2,0-0.4-0.2-0.6-0.4c0,0,0,0-0.2,0s-0.4-0.2-1.6,0.6
		c-0.4,0.2-0.6,0.6-1,0.8c-0.4,0.2-0.6,0.4-1,0.6c-0.2,0.2-0.2,0.6-0.4,1C291.7,107.9,291.3,108.1,291.1,108.3 M277,73.8
		c0,0,0,0,1.4,0.2c1.2,0.2,1,1.6,1.8,2c0.6,0.4,1.2,0.4,1.8,0.8c0.4,0.2,0.6,0.6,1,0.8c0.2,0.2,0.4,0.2,0.8,0.2c0.2,0,0.2,0,0.4,0
		c1,0,2-0.4,3-0.4c1.2,0,2.2,0.2,3.4,0c0,0,3.8-0.8,5-1.8c0.2-0.2,0.2-0.2,0.4-0.4c0.2-0.6-0.2-1,0-1.6c0.2-0.6,1-0.6,1-1.2
		c-0.2-0.2-0.6,0-0.8-0.2c0,0,0-0.2-0.2-0.4c0,0,0,0-0.2-0.2c-0.2-0.2-0.6-0.2-0.8-0.4c-0.4-0.2-0.2-0.8-0.6-1
		c-0.6-0.2-1,0.4-1.4,0.6c-0.4-0.2-0.8,0-1.2,0c-0.2,0-0.6,0.2-0.8,0.2c0.2-0.4,0.2-0.4,0.2-0.4c-0.2-0.2-0.6,0-0.8-0.2
		c-0.2-0.2-0.2-0.4-0.4-0.6c-0.8-0.2-1.6,0.4-2.4,0.2c-0.6,0-1-1-1.8-0.6c-0.6,0.2-1.6,0.8-2.6,0.4c0.2-0.4,0.2-0.4,0.2-0.6h-0.2
		c-0.6,0-1,0.6-1.6,0.8c-0.8,0-1.6-0.4-2.4-0.4c0,0-0.4,0-0.8,0.4c0,0,0,0,0,0.2c0.8,0.2,2.2,0.4,2.6,1
		C280.2,72.8,277.8,72.4,277,73.8 M368.1,51.4C368.3,51.4,368.3,51.4,368.1,51.4c0.4,0.2,0.6-0.2,0.8-0.2c0.6,0.2,0.8,0.8,1.4,1
		c0.2-0.2,0.2,0,0.4,0l0.6-1.2c0.2-0.2,0.4,0,0.6,0c0-0.2,0-0.8-1.2-0.8c-0.4-0.4-0.4-1-0.8-1.2c-0.2-0.2-0.8,0-1-0.4
		c0,0-0.6-0.8-0.8-1.4c0-0.4-0.2-0.6-0.4-0.6c0,0-1.4-0.8-1.2-1.2c0.2,0,0.6,0.2,0.8,0.4c0.4-0.6,1.2,0,1.2,0c0.2,0.4,0.8,1.2,1.4,0
		c0,0,0,0,0.4,0c0,0,0,0,0-0.2c0.2,0,0.2,0,0.6,0.2c0.4,0.2,0.6-0.4,0.6-0.6c0-0.4,0.6-0.2,0.6-0.4c0,0,0.2-0.2,0-0.6
		c-0.2-0.6-0.4-0.8-0.6-0.8c-0.4-0.2-0.8,0-1.2-0.2c-0.4-0.2-0.6-0.6-1.2-0.6c0,0-0.2,0.6-0.2,0.8c-0.2-0.2-0.2-0.6-0.4-0.8
		c-0.2-0.2-0.4-0.2-0.4-0.4c-0.2-0.2-0.4,0-0.4,0.4c0,0.4,0.2,0.6,0.2,1c-0.6,0-0.4-1.2-1-1c0,0.2,0,0.4,0,0.6
		c-0.2-0.2-0.2-0.6-0.4-0.8c-0.2,0-0.2,0-0.8-1c-0.4,0.2-0.2,0.8-0.4,1c0,0.2-0.2,0-0.2,0.2c0,0,0,0,0,0.2c-0.2-0.2-0.2-0.4-0.4-0.6
		c-0.2,0-0.6,0.4-0.4,1c0.2,0.4,0,0.4,0,0.6c-0.2,0-0.4-0.4-0.6-0.6c-0.2,0-0.2,0-0.2,0.4c0-0.2-0.6-0.6-0.6-0.6v0.2h-0.2
		c0,0,0,0,0.6,2.8c0,0,0,0-0.2-0.2c-0.8-1.4-0.8-1.4-0.8-1.4c-0.2-0.2-0.2-0.6-0.6-0.8c-0.2,0-0.2,0.4-0.2,0.4s-0.4-0.6-0.6-0.8
		c-0.4,0-0.4,0.4-0.8,0.6c0-0.2,0-0.4-0.2-0.6c0-0.2-0.6-0.8-1.2,0.2l-0.2-0.2c-0.2,0.2-0.2,0.6,0,0.8c0.2,0.6,0.2,1.6,0,1.8
		c0-0.2-0.2-0.4-0.6-0.2c-1,0.2,1,2.4,1.2,2.4c0.2-0.4,0-0.8,0-1c0,0,0.2,0,0.2,0.2c0.4,0.4,0.4,0.4,0.6,0.8c0,0.4,0.6,0,0.8,0.4
		l0.2,1.8c0,1,0.8,1.4,1,1.6c1,0.2,1,1.4,1.6,2c0.2,0.2,0.8,0,1,0c0.6-0.6,0.4-1.6,0.6-2.4c0.2-0.4,0.6-0.2,0.6-0.4c0,0,0,0,0-0.2
		c0.2-0.4,0-0.8,0-1s0.4-0.4,0.4-0.6c0-0.2,0-0.2,0-0.4c0-0.2,0.8-0.8,0.8-0.6c0.4,0.2,0.6,0.8,1,1.2c0.4,0.4,0.6,0.8,1,1.2
		C368.1,50.2,368.1,51,368.1,51.4 M38.5,201.9c0.2,0,0.2,0.4,0.4,0.2l0.2-0.2c0.2-0.4,0.4-0.4,0.4-0.4c0,0.2,0,0.4-0.2,1
		c-0.2,0.6-0.2,0.6-0.2,0.6s0.2,0,0.2,0.2c0,0,0,0.2,0,0.4c0,0,0,0.2-0.2,0.2c-0.2,0-0.2,0-0.6,0c-0.2,0-0.4-0.2-0.4,0
		c-0.2,0.2-0.6,1.6-0.8,1C37.3,204.1,38.1,201.7,38.5,201.9 M396.8,44.3L396.8,44.3c0-0.2-1.4-1.2-1.6-1c-0.4,0-1-0.4-1-0.6
		c0.6,0.2,0.6,0.2,0.6,0.2c0.2,0,0.4,0.4,0.6,0.2c-0.2-0.2-0.6-0.6-0.6-0.8c0,0,0-0.2-0.2-0.4c-1-0.8-3.2-1.4-3.4-1.4
		s-0.2,0.2-0.4,0.2c-0.4,0-0.6-0.2-1-0.2c-0.2,0-0.2,0-0.2,0c0,0.2,0.2,0.4,0.2,0.4c-0.4,0-0.6-0.2-0.8-0.4c0,0.2,0,0.2,0,0.2
		c-0.4,0-0.6-0.2-0.8-0.4c0,0,0,0,0,0.2c0,0,0,0.2,0.6,0.8c0.2,0.2,0.2,0.4,0.4,0.6c0.4,0.4,1,0.8,1.4,1.2c0,0,0,0,0.2,0.2
		c-0.4-0.2-0.8-0.8-1.2-1c0.2,0.4,0.6,0.4,0.8,0.8c0,0-0.2,0.2-0.4,0c0,0,0.8,1.2,1,0.6c0.4-0.2,0.4,0.2,0.8,0.2
		c0.2-0.2,0.2-0.2,0.2-0.2s0,0-0.2-0.2c0.2,0.2,0.6,0.4,0.8,0.4l-0.2-0.2c1.4,0.8,1.4,0.8,1.6,0.6c0,0,0,0,0-0.2h0.2v-0.6
		c0.4-0.2,0.8,0.6,0.8,0.6c0,0.2,0.8,0.6,1,0.6c0-0.2,0-0.2-0.2-0.4C396.2,44.1,396.4,44.3,396.8,44.3 M421,39.3
		c-0.2-0.2-0.4-0.4-1-0.6c-0.2-0.2-0.2-0.2-0.2-0.2s0,0,0.2-0.2c0.2,0,0.2,0,0.4,0c-0.6-0.2-1-0.4-1.6-0.8h0.2l-0.2-0.2
		c0,0,0,0,0.2-0.2c0-0.2-0.4-0.2-0.6-0.4c-0.2,0-0.6-0.2-0.8-0.2c0,0,0,0,0.2,0.2c0,0-0.8-0.2-1.6-0.4c-0.2,0-0.6-0.2-0.8-0.2
		c0.2,0,0.2,0.2,0.4,0.2c0,0,0,0-0.2,0c0.2,0.2,0.4,0.2,0.4,0.2c-0.4,0-0.6-0.2-1-0.2c0.2,0,0.2,0.2,0.4,0.2
		c-2.6-0.8-2.6-0.8-2.8-0.8c0.2,0.2,0.4,0.2,0.6,0.4c0.4,0.2,0.6,0.4,0.8,0.6c0.4,0.2,1.8,0.8,1.8,0.8c0.2,0,0.2,0.2,0.2,0.2
		s4.4,2.2,5,2.2c-0.2-0.2-0.4-0.2-0.6-0.4C420.8,39.3,420.8,39.5,421,39.3 M395.8,40.9C395.8,40.9,395.6,40.9,395.8,40.9
		c-0.2-0.2-1.8-1.2-2.2-1.2c0,0,0,0-0.2,0c0,0,0.2,0.2,0.4,0.2c0,0,0.2,0.2,0.2,0.4c0,0.2-0.4,0-0.4,0c-0.2,0-0.2,0-0.2,0
		c0,0.2,1.2,1,1.8,1.2c0.2,0,1,0,0.6-0.4C395.6,41.1,395.6,41.1,395.8,40.9 M390.9,44.9c-0.8-0.2-0.8-0.2-0.6,0
		c-0.2,0-0.4-0.4-0.8-0.4c0,0.2,0.2,0.2,0,0.4c-0.4,0-0.6-0.6-1-0.8c0,0.2,0,0.2,0,0.2c-0.2,0.2-0.4,0-0.4,0c0,0.2,0,0.2,0,0.2
		s0,0-0.6-0.4c-0.2-0.2-0.2-0.2-0.4-0.2c0,0.2,0,0.2-0.2,0.2c-0.6-0.2-0.8-0.8-1.4-1c-0.6-0.2-0.6-0.2-0.6,0h-0.2
		c0,0-0.2-0.2-0.4-0.4c0-0.2-0.2-0.6,0.4-0.4c0.4,0,0.4,0,0.4,0s0,0,0-0.2c0.2,0,0.2,0,0.4,0c0.2,0,0.2-0.2,0.4-0.2
		c0.2,0,0.4,0.2,0.4,0.2c0-0.2-0.2-0.2-0.2-0.4c0,0,0,0,0.2,0c0-0.2,0-0.2,0-0.2c0-0.4-0.2-0.4-0.4-0.6l1.4,0.8
		c0.2,0,0.4,0.2,0.6,0.4l0.2,0.2c0,0,0,0-0.2,0c0.2,0.4,0.2,0.4,0.2,0.4c-0.2,0-0.4-0.2-0.6-0.2c0,0.2,0.6,0.8,0.6,1v-0.2l0.8,0.4
		c0.2,0.2,0.2,0.2,0.4,0.2c0-0.2-0.2-0.2-0.2-0.4c0.2,0,0.8,0.6,1,0.6C390.7,44.7,390.9,44.7,390.9,44.9 M615.6,299.4
		c0.2,1.4,0.2,2.8,0.2,4.2C615.8,302.2,615.6,300.8,615.6,299.4 M348.4,211.3c-0.4,0-0.6,0.2-1,0c-0.4,0-0.6-0.2-1-0.2h-0.2
		c-0.6,0.2-1,0.4-1.6,0.6c-0.4,0-0.8-0.4-1.2-0.4c-0.6,0-1.2,0.4-1.8,0.4c-0.8-0.2-1.2-1-2-1.4c-0.6-0.2-1,0.4-1.4,0.2
		c0,0,0,0-0.2,0s-0.4-0.4-0.6-0.4c-0.6-0.4-1.8,1.8-1.6,2c0.2,0.4,0.4,0.4,0.6,0.6c0.4,0.2,0.6-0.2,1,0c0.8,0.2,1.6,1,2.2,1.4
		c0.4,0.4,1.2,1.2,2.4,2c0.4,0.2,0.6,0.4,1,0.6c0.6,0.4,0.8,1.2,1.4,1.6c0.2,0.2,0.6,0.4,1,0.4c0.4,0,1,0,1.8-1.8
		c0.4-0.8-0.4-1.2-0.2-2c0.4-1,1.4-1.6,1.6-2.6C349,211.7,348.8,211.5,348.4,211.3 M379.3,213.1c-0.4,0-0.4,1-0.2,1
		c0.2,0.4,1.4,1.4,2.2,2c0.4,0.2,0.8,0.4,1,0.8c0.4,0.4,1,0.8,1.4,1l0.2,0.2c0.2,0,0.2,0.2,0.4,0c0.2-0.4-0.2-0.8-0.4-1.2
		c0-0.2,0-0.4,0-0.4c0-0.2-0.2-0.4-0.4-0.4c0,0-0.8-0.6-1.6-1.2c-0.4-0.2-0.8-0.4-1-0.6c-0.4-0.2-0.8-0.6-1.2-0.8
		C379.7,213.1,379.5,213.1,379.3,213.1 M381.7,212.9C381.9,212.9,381.9,213.1,381.7,212.9c0.2-0.2-0.4-1.4-0.6-1.4h-0.2
		c-0.4,0.2,0,0.8,0.2,1C381.3,212.9,381.5,212.9,381.7,212.9 M383.5,214.7c-0.2,0-0.6,0-0.6-0.2s0.2-0.4,0.8-0.4
		c0.2,0,0.6,0.2,0.4,0.4C384.1,214.5,383.7,214.7,383.5,214.7 M321.7,194.8c0,0.2,0,0.4-0.2,1.2c-0.2,1-0.4,1.2-0.2,1.4
		c0,0.2,0,0.2,0,0.4c-0.2,0.4-0.4,0.8-0.4,1.2c0,0.6-0.2,1.2-0.4,2c0,0.2,0,0.2,0,0.4c0.6,1,0.6,1,0.8,0.8c0.8,0,0.2-1.4,1-1.4
		c0.4,0,0.6,0.2,1,0.2c0.2,0,0.6-0.2,0.8-0.4c0.4-0.4,0.4-0.6,0.4-0.8c0.2-0.4,0.2-0.8,0.8-2.4c0.2-0.4,0.4-0.8,0.4-1.2V196
		c0.2-0.4,0.2-0.8,0.2-1c0-0.2-0.2-0.6-0.2-0.8c0-0.4,0.2-0.6,0-1l-0.2-0.2c-1,0-1.8,0.8-3,0.6c-0.4,0-0.8-0.6-1.4-0.6
		C320.7,192.8,321.7,194.2,321.7,194.8 M302.9,194c0.2-0.2-0.2-0.6-0.4-0.6c-0.2,0-0.2,0-0.4,0.2l-0.2,0.2c0,0,0,0,0,0.2
		c0,0.2,0.2,0.2,0.6,0.2C302.5,194.2,302.7,194.2,302.9,194 M323.6,187c0,0.4,0.2,1.2,0.8,2.6c0,0.2,0.4,0.2,0.4,0.4
		c0.2,0.4,0.4,0.8,0.6,1.2c0.2,0.2,0.4-0.2,0.4-0.2c0.2-0.4,1.2-2.6,1.2-2.8c0,0,1-4.4,0.6-4.6c0,0,0,0-0.4,0.8c0,0-0.2,0.4-0.6,0.4
		c-1-0.4-2.6,0.6-2.6,0.6v0.2c0,0.2,0,0.2,0,0.4c0,0.2-0.2,0.4-0.2,0.8C323.6,186.8,323.6,186.8,323.6,187 M298.9,194.8
		c0-0.2,0-0.2,0-0.4c0,0,0-0.2-0.2-0.2c-0.2-0.2-0.4-0.2-0.6-0.4s-0.4-0.6-0.6-0.8c-0.8-0.2-1.2,2-1,2.2
		C296.9,196,298.7,195.2,298.9,194.8 M384.3,231.3l0.2,0.2c0.4,0.2,1,0.2,1.4,0.6c0.4,0.2,0.4,0.6,0.6,0.8c0,0,0,0,0.2,0
		c0.6,0.2,1,0,1.6,0c0.4,0,0.4,0,2.4,0.4c0.6,0,1,0.2,1.2-0.2c0-0.2,0-0.4-0.2-0.4c-0.2-0.2-0.8-0.2-1.2,0h-0.2
		c-0.2,0-0.6-0.4-0.6-1c0-0.2-0.2-0.2-0.2-0.2c-0.4-0.2-0.8,0.2-1.2,0.2c-0.8,0-1.6-0.8-2.4-0.8
		C383.9,230.7,384.1,231.1,384.3,231.3 M381.9,229.9c-0.2,0-0.6,0.4-0.4,0.6c0,0.2,0.4,0.2,0.4,0.2s0.2,0,0.2-0.2
		C382.1,230.5,382.1,229.9,381.9,229.9 M388.9,207.1c-0.2,0-0.4,0-0.6,0.2c0,0-0.4,0.4-0.2,0.6c0.2,0.4,1,0.2,1.2-0.4
		C389.1,207.1,389.1,207.1,388.9,207.1 M391.9,215.1c-0.4,0-0.6,0.4-0.6,0.4c-0.2,0.2,0,0.6,0.2,0.8c0.4,0.4,0.8-0.2,0.8-0.8
		C392.1,215.3,392.1,215.1,391.9,215.1 M381.3,219.5L381.3,219.5c-0.4,0-0.4,0.8-0.4,0.8c0.2,0.2,0.6,0,0.6-0.4
		C381.5,219.7,381.5,219.5,381.3,219.5 M208.6,36.7c0,0.2-0.2,0.4-0.4,0.4c0,0,0,0-0.2,0.2c-0.4,0.2-0.8,0.4-1.2,0.6
		c0.4,0,1,0,1.4,0.2c-4.8,1.8-9,3.2-10.2,4.2c0,0.2,0,0.4,0,0.6c-0.8,0.6-0.8,0.6-2.2,2.2c0.4,0,0.8,0,1.2,0c0.4,0,0,0,0.2,0
		c3.4-0.2,6.6-1.6,10-1.4c-2.6,1.4-4.8,3.4-7.2,5c-2.2,1.4-3.6,4-6.4,4.4c0,0-3.6,2.2-6.4,3.6c0.2,0,0.4,0.2,0.6,0.2
		c-0.4,1-0.4,1-2.6,2.8c0,0.4,0,0.8,0.2,1.2c-0.2,0.6-0.8,1-1,1.6c0.4,0.2,0.6,0.6,0.8,0.8c-0.2,0.2-0.6,0.8-0.8,1
		c-0.4,0-0.4,0-1.8-0.4c0,0.2-0.2,0.4-0.2,0.6c0.2,0.2,0.4,0.2,0.4,0.4c-0.8,1-2.2,1.4-3,2.2c1.4-0.4,1.4-0.4,2,0l-4.8,5
		c-1.2,0.6-1.2,0.6-6.2,1.6c-1-0.6-1-0.6-1.8-0.8c0,0-3.8,0-4.8,0.2c-1.6,0.2-2.6-0.8-4-1.2c0.2-2.2-2-6-2-6c-2-1.4-3.8,1.2-6,0.2
		c-0.4,0-0.8,0-1.2,0c0,0,0,0-0.4,0c-3,0.4-10.4,3.2-10.6,3.2c0.8,0,0.8,0,5.8-1.4c1.4-0.4,10-1,7,3.6c-0.2,0-0.4,0-0.6,0
		c-0.8,1.2-1,1.4-4,1.2c0-0.4-0.2-0.8-0.4-1.2c-0.2,0-0.4,0-0.6,0c0,0.2,0,0.4,0,0.6s0,0,0,0.2c-0.2,0.4-0.6,0.8-0.8,1.2
		c0.4,0,0.8,0,1.2,0.2c0,0.2,0,0.4,0,0.6c-1.2,0.8-3.2,0.4-3.4,2.4c-0.2,0-0.2,0-2.8,2.6c0,0.4,0.2,0.8,0.4,1.2c0,0,0,0-0.4,0.2
		c-0.2,0.2-0.4,0.2-0.6,0.4c0,0.2,0,0.4,0,0.6c0,0,0,0,0,0.2c0,0.4,0,0.8,0.2,1.2c-0.2,0.2-0.2,0.4-0.4,0.6c-0.2,0-0.4-0.2-0.6-0.2
		c-0.2,0-0.4,0.2-0.6,0.2c0.2,0.2,0.4,0.2,0.4,0.4c0,0,0,0,0.2,0c2.4-0.2,4.6-1.2,6.8-1.4c-3,2.4-3,2.4-2.8,2.8
		c-0.2,0.2-0.2,0.4-0.4,0.4s-0.4,0-0.6,0c0,0,0,0-0.2,0c-1.6-0.2-3.2,0.8-4.6-0.2c0.2-0.4,0.4-0.8,0.6-1.2c-3,1.8-3,1.8-3.2,1.6
		c-0.2-0.6-0.2-0.6-1.4-1.2c0-0.2,0-0.4,0-0.6c-4.8,2-5,2-6.2,1.6c4-5.2,10.4-5,10.4-5c0.2-0.2,0.2-0.4,0.4-0.4c-0.2,0-0.4,0-0.6,0
		c0,0,0,0-0.2-0.2c-0.6,0-1.2,0-1.8,0c-0.2-0.2-0.4-0.4-0.4-0.4l0.4-0.4c-1.6,0.6-1.6,0.6-2.2,0.2c0.2-0.4,0.4-0.8,0.6-1.2
		c-0.8,1.2-1.6,2.4-5.2,1.6c0,0,0,0,0-0.2c0.2-0.2,0.2-0.4,0.4-0.6c-2.4,1-5.4,0.6-7.6,2.4c-4.2,3.6-4.2,3.6-4.8,3.8
		c0-0.2,0-0.4,0-0.6c-0.2,0-0.4,0-0.6,0c0-0.2,0.2-0.4,0.2-0.6c-0.2,0-0.4,0.2-0.4,0.4c-0.2,0-0.4-0.2-0.6-0.2c0-1.2-0.4-1.2-2-1.4
		c-0.2,0.2-0.2,0.4-0.4,0.4c0.2,0.2,0.4,0.8,0.4,1c-0.6,0-0.6,0-1.6-0.6c0-0.2,0-0.4,0-0.6c-2,1.2-3.4,3.6-6.2,3.6
		c0.4-0.8,0.4-0.8,3.2-3c-4.4,1.2-6.2,6.2-10.4,7.6c3.2-2.8,7-5.2,9.8-8.6c0,0-5.2,4-6.4,4.8c0.2-0.4,0.4-0.8,0.6-1c0,0,0,0-0.2,0.4
		c-2.4,2.8-2.4,2.8-2.6,3c0.4-0.6,0.8-1,1.2-1.6c0,0-2.4,2.6-3.6,3.6c0.2-0.4,0.4-0.8,0.6-1.2c-2.8,4.6-4.8,4.6-4.8,4.6
		c0,1.2-0.2,2.6-2.2,2.6c0-0.4,0.2-0.8,0.4-1.2c-1.4,1.8-1.4,1.8-1.8,1.8c-0.4,1-0.4,1-1,1.2c0-0.2-0.2-0.4-0.2-0.6
		c-1.2,0.4-2,1-3,1.4c0-0.2-0.2-0.4-0.2-0.6c-0.2,0-0.4,0.2-0.6,0.2l-0.4,0.2c-6.2,3.8-6.2,3.8-8.4,6c-5.6,5.8-10,12.4-15.2,18.5
		c-1.4,1.8-3.4,3.8-3.8,4.2v-0.2c0-0.2,7.4-11.4,11.2-15c2.4-2.4,6.8-8.6,6.8-8.6c-0.2,0.2-0.8,0-1,0c1-1.4,2-2.2,2.8-3.2
		c24.9-27.7,48.9-44.3,70.2-58.2c21.7-13,40.7-20.5,56.2-26.5c10.4-3.6,15.6-5.2,23.1-7h0.2c-0.8,0.4-1.8,0.6-2.8,1
		c0,0,2-0.6,2.2-0.8c0.6-0.2,1.4-0.2,2.2-0.6c-0.4,0-0.6,0.2-0.8,0.2c3.6-1,8-2,13.6-3.2c1-0.2,1-0.2,1.2-0.2c-0.4,0-0.6,0.2-1,0.2
		c0.6,0,1.2-0.4,1.8-0.4c0.2,0,0.8-0.2,0.8-0.2c1.2-0.2,2.4-0.4,3.4-0.8c-0.6,0-1.2,0.2-1.8,0.2c0,0,0,0,0.2,0h0.2
		c1.4-0.2,2.8-0.6,4.4-0.8c-0.4,0-0.6,0.2-0.8,0.2c0.8-0.2,1.4-0.2,2-0.4c5.8-1,12.2-2,17.5-2.8c0.8,0,1.4-0.2,2.2-0.2l2.4-0.2
		c8.4-0.8,9.2-1,23.9-1.6c4.6-0.2,6.4-0.2,11,0c-1,0-1.8,0-2.2,0c0.2,0,0.2,0,0.4,0c-3.4,0.2-6.8,0.6-7.4,0.4c0.2,0,0.4,0,0.4,0
		c-1.4,0-1.6,0-2,0.2c0.2,0,0.2,0,0.4,0c-5.8,0-5.8,0-6.4,0.2c0.8,0,0.8,0,1.2,0.2c-1.6,0.2-3,0-4.6,0c-2.2,0-4.2,0-6.2,0
		c2,0,4.2,0,6.4,0c0,0,0,0,0.4,0c-6.6,0.8-10.8,1.4-14,1.8c2.8-0.4,6.6-0.8,8-0.8c-1.2,1.2-3.2,0.6-4.6,1.2v0.2c0.4,0,1.6,0,4.4-0.8
		c5-0.8,5-0.8,5.4-0.6c0,0,0,0-1,0.2c-0.2,0.2-0.2,0.2-0.4,0.4c0.2,0,0.2,0,1.4-0.2h0.2c0.2,0,2.8-0.6,4.4-0.2c0,0,0,0-0.2,0.2
		c0.4,0,0.8,0,1.4,0l0.2,0.2h0.2c0,0.2,0,0.2-0.6,0.4c0,0.2,0,0.2,0,0.4c-1.4,0.2-2.6-0.4-4,0c0.6,0.4,0.6,0.4,1.2,0.6
		c-1.4,0.6-3-0.4-4.6,0.2v0.2c0,0,0,0-0.8,0.2c0,0,0,0,0,0.2c1.6,0,2.2-0.2,2.8,0c-2.8,1.2-5.8,0-8.6,0.4c0.4,0.2,0.8,0.2,1.4,0.2
		c1.4,0,5.8,0,6.2,0c0,0.2-1,0.4-1.6,0.4c-1,0-1.4,0.2-1.6,0.2c1.4,0.2,2.8-0.6,4.2,0l-0.2,0.2c0,0,0,0.2-0.2,0.2
		c-0.4,0-0.8,0-1.2,0c-1,0.2-1.6,0-2,0c-1.2-0.2-1.8-0.4-6.6-0.2c-5.4,0.4-5.4,0.4-7.4,0.6c-0.6,0-0.8,0-1,0.2h0.2
		c0,0-3.8,0.8-4.2,0.8c-0.6,0-0.8,0-1,0c0.4-0.2,0.8-0.2,1.2-0.2c-0.2,0-0.2,0-0.4,0c0.4-0.2,0.8-0.2,1.2-0.2c-0.4-0.2-1,0-1.4,0
		c0,0,0,0,1.2-0.2c-0.8,0-1.6,0-2.6,0.2c0.2,0,0.2,0,0.4,0c-0.4,0.4-2,0.4-2,0.4V7.8h-0.2V7.6c0.4-0.2,3.2-1,4.6-1.2H266
		c0.6-0.4,1.4,0,2.2-0.2c-0.4-0.2-1-0.2-1.4-0.2c0.2-0.2,0.6-0.2,0.8-0.4c-0.2,0-0.2,0-0.4-0.2c0.6-0.4,1.2-0.8,2.4-1
		c-3,0.4-6,1-11,1.8c0,0,0,0-0.4,0C258.4,6,258,6,257.8,6c2.8-0.2,2.8-0.2,4-0.4l0.6,0.8c-0.8,0.2-7.2,1.2-8.6,3.2
		C261,9,261,9,262.4,9.4c0,0-4,0.8-6.2,1.2c-0.2-0.2-0.6-0.4-0.8-0.6c-2.4,0.6-5,0.4-7.2,1.6c11-1.6,22.1-0.8,33.3-1.6
		c0.2,0.2,0.4,0.6,0.6,0.8c-4.8,1.4-4.8,1.4-8,0.4c0.2-0.2,0.6-0.4,1-0.6c-4.2,0.2-17.5,1-24.9,3.4c2.2-0.2,2.2-0.2,3.8,0.2
		c-3.4,1-7.6-0.6-10.6,2.6c1.4,0,2.8-0.6,4.2-0.6c-0.2,0.2-0.6,0.4-0.8,0.4c8-0.6,8-0.6,8.6-0.4c-7.4,4-17.3,3.6-18.1,3.2
		c2.2-0.6,2.2-0.6,3-1.4c-2,0.8-2,0.8-3.2,1c0.6-0.8,1.8-1,2.2-1.8c0,0-9.6,1.2-12.2,1.4c0-0.2,0-0.6,0-1c-0.2-0.2-0.6-0.4-0.8-0.6
		c-1.2,0.6-1.4,0.6-3.2,1c-0.2-0.2-0.4-0.6-0.6-0.8c-8.4,0.6-12.8,1-27.5,7.4c-2.4,7-11.8,5-14.6,11.4c0,0,0,0-0.4,0.4
		c-3,2.2-6.6,3.6-10,5c-0.2,0.4-0.4,0.6-0.4,0.8c-0.4,0.4-1.6,1-1.8,1s-0.2,0-0.2,0s0-0.2,0.4-0.4c0.2,0,0.2-0.2,0.4-0.2v-0.2
		c0,0,0.2-0.4,0.4-0.4c-3.2,1.4-6.2,3-8.6,5.6c0.6-0.2,1.4-0.4,2-0.4c-0.2,0.2-0.6,0.4-0.8,0.6l-0.4,0.2c3.8-2,8-3.8,11.8-5.6
		c1.2-0.6,2.2-1.4,3.4-1.8c0.4-0.2,0.6-0.2,0.8,0c-1,0.4-2,0.8-3,1.2c1-0.4,2-0.8,3.4-1.2c4.8,1.6,14.4-3.4,16.8-5.4
		c1.4-1.2,19.7-6.8,21.5-6.6c-0.4,1-1.2,1.8-1.6,3c0.4,0,0.8,0.4,1,0.6c0,0,0,0-0.4,0.4c-4.8,3-4.8,3-6.8,3.4c0,0.2,0,0.4-0.2,0.6
		C207.6,36.7,208.2,36.7,208.6,36.7 M270,2.2c-1,0.2-2,0.4-3,0.6c2,0,2,0,10.4-1.4c0.4,0,0.8-0.2,1.4-0.2c0,0,0,0-0.2,0
		c-0.8,0-1.4,0.2-2,0.2c-0.6,0-1.2,0-2,0.2c0.4,0,1,0,1.4,0c0,0,0,0-0.2,0c-2,0.2-2,0.2-3,0.4c0.2,0,0.6,0,1-0.2c-1.8,0-2,0.2-4,0.4
		C269.8,2.2,269.8,2.2,270,2.2 M123.6,72c0.6,0,2.4,0.2,3.6-2.2c-0.4,0-0.8,0-1.2,0.2c0.8-1,0.6-1.2,0-2.2c-0.6,0.2-1.4,0.2-1.8,0.4
		c0,0.2-0.2,0.6-0.2,1c-0.6,0.4-1.4,0.8-1.8,0.8c-0.2-0.2-0.4-0.6-0.6-0.8c0-0.2,0.2-0.6,0.2-1c-0.6,0.2-1.4,0-2,0l0.6-0.6
		c-0.8,0.4-3.2,1.6-3.2,3.6c0.2,0,0.6-0.2,1-0.2c0.8,0.6,0.8,0.6,2.8,0.2l0.4-0.2c0.2-0.2,0.2-0.4,0.4-0.4c0.6-0.4,1.4-0.8,2.2-1
		c0,0.2,0,0.4,0.2,0.6C123.6,71.2,123.6,71.2,123.6,72 M137.6,57.2c0.2-0.6,0.8-1,1-1.6c-0.2,0-1.2,0.8-1.6,1.4
		c-0.4,1.2-1,2.2-2.6,2.8c1.2-1.4,2.4-2.8,3.4-4.4h-0.2c0.4-0.4,1-0.8,1.2-1.2h-0.2c0-0.2,0.4-0.4,0.4-0.6c-0.8,0.4-0.8,0.4-1,0.4
		c0.8-0.6,0.8-0.6,0.8-0.8c0,0-4,1.6-4.4,2c1-0.2,1.8-1,2.8-1c-1.2,0.8-2.6,1.2-3.8,1.8s-2.4,1.4-3.4,2c-1.6,1-8.2,5.2-8.6,6
		c0.6,0,0.6,0,7.6-4.8c1.2-0.8,2.6-1.4,3.8-2.2c0.6-0.4,0.6-0.4,0.6-0.4c0.8-0.4,1.4-0.4,1.4-0.4c-0.2,0.2-0.2,0.2-0.4,0.4
		c0.8-0.4,0.8-0.4,0.8-0.4c0.6,0,0.8-1,1.4-0.8c0.2,1-6.4,5.8-8.4,6l-0.8,0.8c0.4,0,0.8-0.2,1.4-0.4c-0.4,0.4-1.6,1.2-3.2,2.4
		c-1.2,0.8-1.4,1-1.4,1.2c0.4,0,0.8,0,1-0.2c1-0.6,2-1.4,3-2c0.6-0.4,1.4-0.6,2.2-1c0,0,1.8-1.2,2.4-1.8c0,0,0.4-0.4,0.8-0.6
		c0,0.2-0.2,0.4-0.8,0.8c-0.4,0.4-1.8,1.4-2,1.8c-0.4,0.4-0.8,0.8-1,1.4c0.4-0.2,0.8-0.8,1.2-1c0,0,0,0,0,0.2c0,0,4.8-3.6,5-4
		c0-0.2,0.2-0.8,0.6-1.2C136.6,58.4,137.4,57.6,137.6,57.2 M150.2,47c2.4-1.4,2.8-2.2,2.8-2.6c-0.4-0.4-0.8,0.2-1.2,0
		c0.2-0.2,0.6-0.2,0.8-0.4c0,0-0.2,0-0.4,0.2c-0.6,0.4-1.4,0.4-1.6,0.2l0.2-0.2c-0.8,0.2-2.6,0.4-3.2,1.2h0.2c0,0.2-0.4,0.4-0.8,0.6
		c-0.8,0.4-1.4,1-1.4,1c0.2,0,0.4-0.2,0.6,0c0,0,0,0,0,0.2c-0.2,0.2-0.2,0.2-0.2,0.2c0.6-0.2,1-0.2,1.6-0.4c0,0.2-0.4,0.4-0.4,0.4
		c-0.4,0-1.4,0.4-1.8,0.6c-0.2,0.2-0.2,0.4-0.4,0.6c-0.8,0.6-1.6,1-2.4,1.6c0,0,0,0,0,0.2s-0.4,0.2-0.2,0.4c0,0.2,0.2,0.2,0.2,0.4
		c-0.2,0.2-0.4,0.4-0.6,0.6c0.2,0,0.2,0,0.4,0c-0.4,0.8-1.4,0.4-1.6,1.2c0.4,0,0.4,0,1.6-0.8c0.2-0.2,0.4-0.4,0.6-0.6
		c0.4-0.4,1.2-0.4,1.6-0.8c0.6-0.4,1-0.8,1.4-1.2c0.4-0.2,0.8-0.2,1.2-0.4c0,0,0.6-0.4,0.4-0.6C147.2,48.8,148,48.4,150.2,47
		 M377.3,215.7c0.2,0,0.2,0.2,0.4,0.2c0.8,0.6,0.8,0.6,1,0.6c0.4,0.2,1.2,0.2,1.6,0.6c0.4,0.6,0.6,1.6,0.4,1.8v0.2h-0.2
		c-0.2,0-0.2,0-0.6-0.2c-0.2-0.2-0.6-0.4-0.6-0.2c-0.2,0.2-0.4,1.4-0.2,2c0.2,0.8,0.8,1.6,1,2.6c0,0.4,0.2,1.2-0.2,1.4
		c-0.6-0.2-0.4-1.6-1.2-1.4c-0.4,0.2-0.6,1-1,0.6c-0.2-0.2-0.2-0.4-0.4-1.2c0-1-0.2-1.2-0.4-1.4c-0.6,0.2-1.2,0.8-1.8,0.6
		c-0.2-0.2-0.2-0.6-0.4-0.8c-0.2,0-0.4,0.2-0.6,0c0,0,0-0.2,0-0.4c0.2-0.2,0.4-0.4,0.6-0.6c0,0,0.4-1,0.4-1.4c-0.2-0.8-1-1-1.6-1.6
		c-1.2-1.6,1.4-2.4,1.8-2.4h0.2c0.6,0.2,1,0.6,1.6,0.8C376.9,215.7,377.1,215.7,377.3,215.7 M493.8,281.5c-0.6,0-1,0.8-0.4,1.4
		c0.4,0.6,1,0,1.2-0.6C494.4,282.1,494.2,281.5,493.8,281.5 M611.6,340.3c0-0.2-0.2-0.2-0.2-0.4c0-0.4,0-0.6,0-1
		c-0.2,0.2-0.2,3.8,0,4c0-0.2,0.2-1.2,0.2-1.8S611.6,340.3,611.6,340.3 M496.3,181.4c0.6,0.4,0.4,1,0.6,1.6c0,0.2,0.2,0.2,0.2,0.4
		c0,0.4,0,0.6,0.2,1c0,0,0,0.2,0.2,0.2c0.2,0,0.4-0.2,0.4-0.4c0-0.2,0-0.2-0.4-1.4c-0.2-0.4,0.4-0.4,0.4-0.8c0-0.2,0-0.4,0-0.6
		c-0.2-0.4-0.6-1-1-1.2c0,0-0.2,0-0.2-0.2c-0.2-0.2-0.2-0.4-0.4-0.6c-0.2-0.4-0.4-0.4-0.4-0.4c-0.4,0.2-0.4,1-0.4,1.2
		C495.2,180.6,495.7,180.8,496.3,181.4 M614.8,335.1c-0.2,3.4-0.6,7-0.8,9.8C614.4,340.9,614.6,337.7,614.8,335.1 M360.1,204.7
		c-0.2,0.4-0.2,0.8,0,1c0.2,0.2,1.2,0.2,1.6-0.2c0.2-0.2,0.6-1.2,0.6-1.4c0,0,0,0,0-0.2c-0.6,0-1.4-0.2-2-0.2
		C360.3,203.9,360.3,204.1,360.1,204.7 M614.8,318.2c0,0,0-0.4,0-0.8c0-0.2,0-0.4,0-0.4C614.8,317.4,614.8,318.2,614.8,318.2
		 M615,314c0-0.4,0-0.6,0-0.8c0,0.2,0,1.8,0,2C615,315,615,314.4,615,314 M611.6,335.1L611.6,335.1c-0.2,0.4-0.4,1.8-0.2,2
		c0,0,0.2,0,0.2-1.2C611.6,335.3,611.6,335.1,611.6,335.1 M435.5,451.5c0-0.2,0-0.4-0.4-0.4c-0.2,0-0.4,0-0.6,0.2s-0.2,0.4-0.2,0.6
		C434.5,452.3,435.3,452.1,435.5,451.5 M479.8,254c-0.2,0.2-0.2,0.4-0.2,0.6c0,0.2,0,0.2,0.4,0.6C479.8,254.6,479.8,254.4,479.8,254
		 M434.7,452.9c-0.6,0-1,0.6-1,1c0,0,0.2,0.4,0.6,0.2c0.2-0.2,0.4-0.2,0.6-0.6C435.1,452.9,434.7,452.9,434.7,452.9 M385.7,217.1
		c0.2,0.4,1,0.4,1,0c0-0.2-0.2-0.4-0.4-0.4C385.9,216.7,385.5,216.7,385.7,217.1 M431.7,456.3L431.7,456.3c-0.2-0.2-1.4,0.4-0.6,2.2
		c0.2,0.4,0.8,0.4,1,0c0-0.2,0-0.4,0-0.4c0-0.2-0.2-0.4-0.2-0.6C431.7,456.9,431.7,456.7,431.7,456.3 M499.9,283.5L499.9,283.5
		c-0.8,0.2-0.8,1.8-0.4,2c0.4,0.2,1.4,0,1.4-1C500.7,283.9,500.3,283.5,499.9,283.5 M614.8,328.7c0,0,0,0,0-0.8
		c0.2-5,0.6-15.4,0-21.3c0,0,0,0,0-0.8c-1.4-18.1-3-23.3-3.2-23.3c0,0,0,5.8-0.2,9.2c-0.2,0.2-0.8,0.2-1,0.4
		c-2.8-25.1-8.8-28.9-8.8-29.1c0,0.4,0.2,0.8,0.2,1s0,0,0.4,0.6c-0.8,5.2-1.6,5.8-2.4,6.6c0-0.4-0.2-0.8-0.2-1.2
		c-4,16.9-4,16.9-8.2,42.9c-0.2,0.2-0.6,0.4-1,0.6c-1.8,10,1.8,20.1-0.2,30.1c0,0,0,0-0.6,0.4c-0.6,1.2-1.4,3.4-1.2,7
		c-2.6,2.2-2.2,5.8-4,8.4c-0.2-0.2-0.6-0.4-1-0.4c-3.6-11-4.2-22.9-7.8-33.9c-3.8-11.6-3.2-24.5-8.6-35.7c0,6.2,0,6.4-2.8,8.6
		c-1.6-0.4-5.8-4.8-6.4-6.4c1.4-0.6,3.2-3.2,3.4-4.6c-1.4,1.2-4.6,4.2-5.8-1.6c-2.6-0.6-4.8-1.2-3.8-4.4c-0.4-0.4-1.4-0.8-2-0.8
		c-1-1.2-1-2.8-2.4-3.6c-2.4,2.4-5.2,2.6-8.2,2.6c-1.4,1.8-4,1.4-5.6,2.8c-0.2-0.2-0.6-0.4-1-0.6c-0.2,0.2-0.6,0.4-0.8,0.6
		c-0.4-0.4-1.2-0.8-1.8-1c0,0-10.2,3.8-12-3c-0.4-1.4-2.4-7.4-8,0.2c-0.4,0-0.8,0-1,0.2c-0.6-0.4-1.4-0.8-2-0.8c0,0,0,0-0.2,0
		c-5.6,0-15-14.4-16.8-17.5c0,0,0,0-0.6,0.2c-0.6,0.2-1.6,0-2-0.2c-1.6,1-3.4,1.4-5,2.2c4.4,3.6,3.6,9.8,7.2,13.8
		c1.2,1.2,1.2,1.2,3.6,4.6c-0.6,2.2,3.2,8.2,3.2,8.2c-0.4-3.2-0.4-5.4,0.2-6.8c0.4-0.2,0.8-0.4,1-0.6c1.8,1.8,1.6,6.4,1,9
		c1,0.6,1.8,1.4,2.6,2.2c0,0,0,0,0.6-0.2c1.6-1.2,2-1.4,5.8-1c3.4-3.4,5-8.2,7.8-12c2,8.6,2,8.6,3,9.8c2,2.4,5.4,1.2,7.8,2.8
		c1.6,1.2,1,3.4,2.6,4.6c0.4,0.2,0.8,0.4,1.2,0.6l-4,11.8c-0.4-0.2-0.8-0.2-1-0.4c-1.2,2.6,0.4,5.6-0.6,8.2c0,0,0,0-0.2,0
		c0,0,0,0-1,0.2c-3.2,1.4-4,4.8-6.2,7c-1.8,1.8-1.2,6.8-4.8,6.2c-1.8-0.4-10,2.8-7.6,7.4c-1.4,1.4-2.8,3-18.9,11.2l-0.4,0.4
		c-0.2,0-11.2,7.8-17.5,7c-0.2-0.4-0.6-1-0.8-1.4c-3-7.4-2.4-15.4-4.6-23.1c-2.4-9-12.6-13-14-22.7c-1.4-10.2-1.8-13-7.8-16.3
		c0-0.2-6.8-18.9-11.2-21.3c0.8-2.2,0.8-2.2,0.4-7c-0.4,0.8-2,5-1.8,8.6c-0.4,0.2-1,0.6-1.6,1c-0.6-0.4-5.8-8.4-6.4-11.8
		c0,0,0,0-0.6,1.4c0.2,0.4,21.1,46.3,21.1,50c0,15,11.8,28.9,12,29.1c0.2,0.6,0.2,1.2,0.4,1.8c0.4-0.2,1.2-0.4,1.6-0.4
		c0,0,0,0,0.6,0.2c7.4,7.4,11.2,12.8,11,16.1c-0.8,0.6-1.8,1.6-2.2,2.6c0.6,0,1.2,0,1.8,0c1.8,3,1.8,3,12.6,3.6
		c2.6,0.2,4-2.6,6.8-2.6h0.2c0.2,0,0.4,0,0.8,0c1-0.2,1.6-1,2.4-1.2c1,0,2,0.4,3,0c0.6-0.2,0.8-0.4,1.2-0.8l0.2-0.2c0,0,2-0.6,3-0.8
		c1-0.4,1-1.8,2-2.2c0.8-0.2,1.4,0.4,2.2,0.2c0,0.2,0.2,0.4,0,0.6c-0.2,0.6-0.6,1.2-0.8,1.8c-0.4,1.4,0.2,3-0.2,4.4
		c-0.4,1.6-1.4,3-1.6,4.8c0,0.2,0,0.4,0,0.4c-0.2,0.8-0.2,1.4-2.8,6.4c-1,2.2-2.4,4.2-3.4,6.4c-3.8,8.4-6.8,13.6-10.2,18.3l-0.6,0.6
		c0,0-6.2,7.4-9.2,9.8h-0.2c-4.6,3-13.4,8.6-21.7,19.3c-5.2,6.6-11.6,12.2-16.8,18.7c-2.4,3-2.4,3-0.8,11c-3,4.2-1.4,9.4-2.8,14
		c2.8,4.4,2.8,4.4,2.8,5.4c-0.4,0.4-1.2,0.8-1.8,1.2c-2.4,18.1-5.4,20.3-11.2,23.1c-28.1,13.4-28.1,13.4-29.1,15.4
		c0.2,0.2,2.8,5.2-2.6,13.2c0,0.2,0.2,0.6,0.2,1c-4,5.2-11.2,2.8-15.8,6.6c0,0,0,0,0,0.2c1.6,8-33.7,24.7-40.1,23.3
		c-6-1.2-24.1-1.2-25.5,1.8c-2.4,0.2-6.4-1.8-7.4-4.4c-0.6,0-1.4-0.2-2-0.4c0.2-0.2,0.4-0.6,0.6-0.8c-0.2-0.8-0.2-0.8-1.4-2.6
		c0.2-0.4,0.2-0.8,0.4-1c3.4,1,3.4,1-2.8-15c-5-2-3.8-7.8-3.8-7.8c-5.8-5.4,3-11.2-0.2-16.9l-9-19.1c-0.2-0.6,1.6-9.8,1.6-10
		c2.8-1,4.4-5.6,5-7.2c1.6-0.8,1.8-2.8,3.6-3.4c0.4-1.2,0.6-1.6,2-2c2.6-0.8,6.6-3.2,4-10.4c-0.2-0.4-0.2-0.4,0.2-9.6
		c0.4-7-3.4-13-4.4-19.9l-6.6-10.4c-2.2-2.8-2.2-2.8-5-12.8c0.2-0.2,0.4-0.6,0.6-0.8c1-0.2,1-0.2,3.2-4c0.4,0.2,1.2,0.6,1.8,0.6
		c0-0.2,0-0.6,0-1c-0.2-0.2-0.6-0.6-0.8-0.8c0.4-3.6,2.6-6.6,3.6-10l0.6-1.4c0.8-1.8,1.6-4-0.6-8.6c-1,0.2-2.4-0.2-3.4-0.6
		c0-0.6,0-1.4,0.2-2c-1-0.6-2.2-1.2-3.4-1.6c-0.2,0-15.4,2.8-15.4-4.8c0-7.8-4.8-10.4-7.2-10.6c-10.8-1.2-21.3,4.6-32.3,1.8
		c-0.4-0.2-1-0.4-1.4-0.8c-11-6.6-25.7-0.2-35.9-9.8l-13.6-19.5c-3.8-8-4.2-17.1-7.8-25.1c0.4-0.2,1.2-0.4,1.6-0.6
		c0-0.4,0.2-1.2,0.4-1.6c-0.4-0.4-0.8-0.8-1.2-1.2c-0.6,0.2-1.2,0.4-1.6,0.4c-2.8-5.2-3.2-6.2-3.8-7.8l13-25.3
		c3.4-9.6,2.4-13.4,1.8-15.2c-1-3.2-1-3.2,8.6-12.6c17.7-17.1,20.3-17.5,23.3-18.1c6,1.8,17.3-3.8,17.7-7.8c0.2-1.6,0.6-5.4,6-9.4
		l20.9-11.4c1.4,1,2,2.6,3.2,3.8c1-0.2,2.4-0.4,3.4-0.4c2.8,3.2,5,2.6,6,2.4c8.4-2.2,17-1.8,58,3c0.6,1,1.2,2.2,1.6,3.2
		c0.6-0.2,1.2-0.2,1.6-0.4c0.2,0.4,0.4,1.2,0.4,1.6c-1,0.4-2.2,1-3,1.8c3.6,4.8,3.2,5-3.6,9.8c0,0.6,0.2,1.4,0.2,2
		c0.8,0.4,2.2,0.4,3.2,0.2c0.4,3.6,17.9,11.2,18.1,11.4c1.2,4.2,1.2,4.2,2,4.8c1.8,1.6,17.7,16.1,19.7,0.6c0.4-2.6,7.8-8.6,14.2-2.2
		c0,0.6,0,1.2,0,1.8c4.2,1.8,4.2,1.8,6.4,2.2c0,0,0,0,0.2,0c0.8,0.6,2,1.8,2.6,2.6c11.2,0.2,22.1,4.6,33.3,4.8c1,0,2.6,0,3.6-0.6
		c12-6.8,3.2-19.3,6.8-28.5c0,0-2.6-0.2-6.6-0.4c-1.8,1.8-3.4,3.6-6.6,3.2c-3.6-0.2-5.6-4-9-4.6c-0.2,0.6-0.2,1.2-0.6,1.8
		c-1.4,2.2-13.2-2.2-13.4-8.8c-0.8-0.6-2-1.6-2.8-2.2c0.8-0.4,1.8-1.4,2.2-2.4c-2.6-3.8-2.6-3.8-3.2-4.2c0-0.6,0.2-1.2,0.2-1.8
		c0.2-0.4,0.2-0.8,0.4-1c3.2-1.6,6.2,0.4,9.2,0.4c0.2-0.6,0.8-1.4,1.4-2c-5.4-0.8-5.4-0.8-6.6,0.6c-1.6-0.2-3-0.4-4.6-0.6
		c-0.2-0.4-0.2-0.8-0.4-1c-0.8-0.8-8-3.8-9,0.6c-0.4,0.2-0.8,0.4-1,0.4c-0.6-0.4-1.4-0.8-2-1.2c-0.4,0.6-0.6,1.4-0.6,2
		c0.2,0.2,0.2,0.2,0.2,0.4c0.2,0,0.2,0.2,0.2,0.4c0.4,0.6,0.4,1.4,0.8,1.8c0.2,0.2,1,0.4,0.6,0.8c0,0,0,0-0.4,0s-0.6,0.2-0.6,0.6
		c-0.2,0.4-0.2,0.6,0,1c0.2,0.2,0.2,0.2,0.2,0.4c-0.4,0.2-0.6-0.4-1-0.2c0,0,0,0-0.2,0.6c0,0.4-0.2,0.8-0.4,0.8
		c-0.6,0-0.4-0.6-0.8-0.8c-0.4-0.2-0.6,0-1,0c-0.2,0-0.6,0-1-0.2c-0.2,0-0.8-0.6-0.4-1c0.2-0.2,0.4-0.4,0.2-0.4
		c-0.8-1.2-1.6,0.2-1.6,0.6c0,0,0,1.4,1.2,1.8c0.8,0.4,1.2,0.6,1.2,0.8c-0.2,0-0.6,0-0.8,0c-0.2,0-0.2,0.4-0.6,0.4
		c-0.4,0-0.6-0.4-0.8-0.4c-0.4,0-0.6,0.2-1,0.2h-0.2c-0.2-0.2-0.6-1.8,0-2.6c0,0,0.4-0.4,0.4-0.8c0-0.4-0.4-0.4-0.4-0.6
		c-0.4-0.2-1,0-1.4-0.2c-0.2,0-0.4-0.2-0.4-0.2s-1.4-1.6-1.4-2.2c-0.4-1-0.4-1.2-0.6-1.6c-0.4-0.6-0.8-1-1.2-1.4
		c2.8,0.4,5.6,0.8,8.6,1c-2.8-0.4-5.8-1-9-2c-1-3.2,0.8-6.4,0.2-9.8c-0.4,0-0.8,0.2-1.2,0.2c-0.6-0.4-1.2-1.2-1.6-2
		c-0.4,0.2-0.8,0.2-1,0.4c-1-0.8-1.6-1.8-2.8-2.2c0,0,0,0-0.2,0c0,0,0,0-0.2,0l-12.2-13c-0.2,0.2-0.6,0.6-0.8,0.8
		c-1.4-1.2-1.6-3-2.4-4.4c-1.2,0-2.4,0.4-3.4,0.4c-0.2,0.2-0.4,0.6-0.6,1c0,0.4,0.2,0.8,0.4,1.2l6.6,14.8c1.2,1.6,3.4,2,5,2.2
		c0.2,0.2,0.4,0.6,0.6,1c-0.2,0.2-0.6,0.6-0.8,1c3,3.4,8.2,4.2,10,8.8c-0.6,0-1.4-0.2-2.2-0.8c-3.2-2-3.2-2-4.2-2.2
		c-0.4,0.6-0.8,1.4-1.2,2c-0.2,0-0.2,0-0.4,0c0.2,0,0.2,0,0.4,0c-1,1.4,0,2,0.4,2.4c0.8,0.6,1.8,1.4,1.2,3c-0.2,0.8-1,0.2-1.6,0.6
		s-0.4,1.2-0.8,1.6c-0.2,0.2-0.6,0.4-0.8,0.8c-0.2,0.2-0.2,0.6-0.4,0.8l-0.2,0.2c-0.2,0.2-0.6,0.4-1,0.6c-1.2,0.4-1.6-0.4-1.6-0.6
		c-0.4-0.8,0.4-1.4,0.6-2.2c0-0.4,0-0.6,1.2-0.8c1-0.2,0.8-1.4,0.8-1.4l-0.6-2.2c0-0.2-0.4-0.4-0.4-0.8c-0.2-0.4-0.2-1-0.4-1.4
		c-0.2-0.2-0.2-0.4-0.6-0.4c-0.8-0.4-1-0.4-1.4-0.8c1.4,0.2,2.8,0.4,4.2,0.6c-1.4-0.2-2.8-0.4-4.4-0.8c-0.2-0.6-0.4-1.6-0.4-2.2
		c-0.6-0.2-1.6-0.4-2.4-0.4c-2.8-7.6-11-11.6-13.6-19.5c0,0-1.8-3-5-3.4c-1-0.2-6.6,1.8-11,3.4c-4.2,1.4-6-4.2-10-3.4
		c-4.2,0.8-2.8,6.4-6.6,7.8c-4.2,1.4-9,1.4-13,3.8c-0.4,0.2-0.6,0.8-0.8,1c0,0,0,0.2-0.2,0.2c-0.8,1.2-2.6,1.2-3.2,2.6
		c-0.4,0.8-0.4,0.8,0.4,4.4c-0.6,0.8-1.6,0.4-2.4,0.8c-1,0.6-0.4,2-1,2.8l-0.2,0.2c-1.4,0.4-2.6-0.6-4-0.4c-2,0.2-2.6,2.6-4.6,2.8
		c-4,0-6-2-8.6-2c-5.8,0.2-5.8,0.2-6,0.6s-0.8,1-1.6,1c-2.8-0.6-1.2-4-2.2-5.8c-1.2-2-1.6-1.8-2.4-1.6c-1,0.2-2.6,0.6-3,0.2
		c-0.6-0.4-1-1.2-1.6-1.4c-0.6-0.4-1.6,0-2-1c0.2-0.2,0.6-0.4,0.8-0.8l2.2-4.8c0,0,0.2-2.4-1.2-2.4c-0.4,0-0.4,0-0.6-0.4
		c1-2.4,3.4-3.4,4.8-5.4l0.2-0.4c5-8,4.8-10.2,4.6-13.2c0.2-0.2,0.6-0.6,1-0.8c0.8,0,2,0.2,3,0.4c1.8-1.6,1.8-1.6,3.4-1.6
		c0,0,4.2,5.2,18.9,7.8c1.6,2.8,4,1.2,5,0.4c2.4-2.2,1.8-6,4-8.2c0.4,0.4,1,1.2,1.4,1.8c-0.4-2,0-4-0.2-6c-3.6-1-0.8-5.8-4.2-6.8
		c0-0.4-0.2-0.8-0.2-1.2c-1.4-0.6-2.8-1.4-4.4-1.8c0.6-1,0.2-2.2,0.4-3.2c3.6,0.2,3.6,0.2,3.8,0c0.6,0.4,1.2,1.2,1.6,1.8
		c1.4,0.4,3,0.2,4.6,0.6c1.2-1.6,1.2-1.8,1-3.4c0.4-0.2,0.8-0.4,1-0.6c0,0,0,0,0.8,0.8c1.4,1.8,4.4,1.6,5.4,1.6
		c-0.2-0.4-0.4-0.8-0.4-1c6.4-2.2,6.4-2.2,7-4c7.6-2.4,7.6-2.4,14.4-6.6c0,0.6,0.6,1.4,1,2c0.4-0.6,0.6-1.4,0.6-2.2
		c0.2-0.2,0.6-0.6,1-0.8c2.6,0.2,3.8,0.4,4.8,0.6c0.2-0.2,0.6-0.6,1-0.8c2.6,0.6,2.6,0.6,3.4,1c0.4-0.4,1.4-0.8,2-1
		c0.8-4,0.6-6.6-0.6-8c0.2-1.6,0.2-1.6,7.4-6.8c0.2,0.2,0.6,0.4,1,0.6c-0.4,4.2-0.4,4.2,0.6,4.6c-0.6,0.4-1.4,0.6-2,1
		c-6.6,5.2,0.2,8.4,0.4,8.4c0,0.4,0,0.8,0,1.2c0.6,0.2,0.6,0.2,5.6-1c0.6,0,1.6-0.2,2.2-0.4c0.2,0.2,0.6,0.6,1,0.8
		c-0.2,0.4-0.2,0.8-0.4,1c0,0,0,0,0.2,0c0.4,0.6,1,1.4,1.2,2c4.6,1,8.4-4,13.2-2.2c0,0,1.8,4.6,5.6,1c0-0.4-0.2-0.8-0.2-1.2
		c2,0.4,2,0.4,3.6-0.4c0.2-2.2-0.6-4.2-0.6-6.4c0.4-0.2,0.8-0.4,1-0.6c0.2-2.8,0.8-3,2.6-3c4.8,5.8,4.8,5.8,6.8,5.2
		c-0.4-2.2-2-4.4-1-6.8c-2.6-1.8-2.6-1.8-3.2-4.2c1.2-1.6,1.4-1.6,5.8-1.6c5,1.4,5,1.4,9.4-1.4c-2.2-0.4-2.2-0.4-3.6-2.6l-11.4,1.8
		c0,0,0,0-0.8,0.4c-7.2,0.2-5.8-13.6-5.6-13.8c4-0.4,4.2-5.4,7.8-6.4c-0.2-0.6-0.6-1.6-0.8-2.2c-0.4-0.2-0.4-0.2-3.2-1.2
		c0,0,0,0-1-0.2c-0.4-0.2-0.8-0.4-1-0.4c-3.6,0.2-2,4.8-3.8,6.6c-1.2,1.2-3.2,0.8-4.4,2.2c-0.2,0.2-0.6,0.6-0.8,0.8
		c-3.2,9-3.2,9,1,12.8c0,3.6-4.6,2.6-6,5s0,5.6-1.8,8c-1.2,1.4-2.4,1.4-3.2,1.2c0,0,0,0-1,0c-0.6,0-1.6,0.2-2.2,0.4
		c0,0.6-0.4,1.6-0.8,2.2c-1-0.4-2.2-0.6-3.2-1.2c0-0.6-0.4-1.6-0.8-2c0.2-0.6,0.6-1.6,1-2c-2.8-3.8-1-9.4-4.6-13l-6.6,3.2
		c-5.4,2.6-8.2-2.8-8.2-2.8c0-0.2-1.8-12.8,5.2-14.4c14.6-3.2,16.6-7.8,17.9-10.4c0.4,0,0.8,0,1.2-0.2c0.2-0.4,0.2-0.8,0.4-1
		c2.8-1.2,4.2-4.2,7.2-5.2c-0.2-0.4-0.2-0.8-0.4-1.2c-2.4,0.2-2.4,0.2-7,1.6c2-1.4,4.6-1.6,6.4-3.4c0,0,0,0,0.4,0.6
		c0.2-0.2,0.6-0.4,1-0.6c0,0.4,0.2,0.8,0.2,1.2c0.4,0,0.8,0,1.2,0c0.4-0.6,1-1.2,1.6-1.6c0.2-0.6,0.6-1.4,1.2-2c0,0,0,0,0.4-0.4
		c0.4,0,0.8,0,1.2,0c0.2,0.4,0.2,0.8,0.4,1c0.4-0.6,1.2-1.2,1.6-1.4c0.2,0.4,0.4,0.8,0.6,1c0.2-0.4,0.2-0.8,0.4-1.2
		c0.6,0,1.6-0.2,2.2-0.4c0.2,0.2,0.4,0.6,0.6,0.8c0-0.4,0-0.8,0-1.2c2.8-0.8,3-0.8,4.4-0.8c-0.2,0.6-0.4,1.6-0.2,2.2
		c0.4-0.6,1-1.2,1.6-1.6c0.2,0.4,0.4,0.8,0.6,1c0.2-0.6,0.4-1.6,0.6-2.2c1,0.6,1,0.6,5.6,2.4c-0.2,0.6-0.2,1.6-0.2,2.2
		c2.2,1.2,3.6,1,4.2,0.8c5,6.8,15.2,3.8,20.1,11c-1.6,2.8-2.4,4.4-16.2-0.4c2.4,3.8,6,6.4,8.4,10c2.2,0.2,3.8,2.6,6.2,2.2
		c0,0,0,0,0.4-0.4c-0.4-0.6-0.8-1.4-1.2-2c-0.4,0.2-0.8,0.2-1,0.4c-0.6-0.6-1.2-1.2-1.6-1.8c0.2-0.4,0.4-0.8,0.4-1.2
		c0.4,0.2,0.8,0.4,1,0.4c0,0,0,0,0.8,0.6c1.6,0.6,2,0.6,3.4,0.8c0.2-0.2,0.4-0.6,0.6-1c0.2-0.4,0,0-0.4-0.4c-0.4-0.6-1-1.4-1.4-2
		c0.6-0.4,1.4-0.8,2-1.2c0.2-0.6,0.6-1.6,1-2c0,0,0,0,0.6-0.6c1.2,0.6,1.2,0.6,3,1.6c0.2-0.2,0.4-0.6,0.6-1c0.6,0.4,1.6,0.8,2.2,0.8
		c-1.8-1-2.6-3.2-4.6-4c-0.6-2.8-3.6-4-4.6-6.6c2,1.2,4.2,2,6.4,3c-0.2,0.6-0.4,1.6-0.6,2.4c2.4,2.6,3.4,3.8,6.2,3
		c-0.4-0.6-0.6-1.6-1-2.2l0.2-0.6c0.4-0.4,0.4-1.2,0.4-1.8c0.8-0.6,0.8-0.6,1.8-2.2c0.6,0.2,1.4,0,1.8-0.2c0.2,0.2,0.6,0.2,0.8,0.4
		c0.2-0.2,0.6-0.4,0.8-0.4c0,0,4.8-0.6,5.6-2.8c0.8,0.4,1.6,0.8,2.4,1.2c0.2-0.2,0.6-0.4,0.8-0.6c-0.4-1-0.4-1-3.4-4.4
		c0.2-0.2,0.4-0.4,0.6-0.6c4.8,0.6,9,3.6,14,3.4c-0.6-0.8-0.6-0.8-15.6-14.2c-0.4-0.4-0.8-1-0.8-1.6c2-0.2,5,1.2,8.2,3.2
		c-0.4-0.4-0.8-1-1.2-1.4c0,0,0,0,0.2-0.6c0,0,0,0-3.8-3c0,0,1.6,0.8,8,5.6c1-0.6,2.2-0.4,3.4-0.6c-0.8-0.6-1.2-1-3.8-1
		c0,0,0,0-0.6-0.2c-1.4-0.8-1.4-0.8-1.8-1.8c0.4,0.2,1.2,0.2,1.6,0.2c-0.4-0.4-1-0.8-1.4-1.4c0.4-0.4,1.2-0.4,1.8-0.4
		c1.2,0.2,1.8,0.4,2.2,0.4c-4-2-7.8-4.2-8.2-5c0.8-0.6,1-0.8,1.6-3c0.2,0,0.6,0.2,0.8,0.2c-0.2-0.2-0.6-0.4-0.8-0.6c0,0,0,0-0.6-0.2
		c-1.6-0.6-3.8-1.6-6.4-5.2c0.2-0.2,0.4-0.6,0.4-0.8c0.2,0.2,0.6,0.2,1,0.4c0,0,0,0-0.4-0.4c-1.8-1.2-3-3-5-3.8c0,0,0,0-0.2,0
		c-0.6-0.8-1.4-1.2-2-1.8c1,0.4,4,1.6,5.4,2c0,0-6.4-4.8-8.4-6c0.4-0.2,1.8,0,5.6,0.6c-0.4-0.4-0.6-1.2-0.6-1.6c0.8,0,0.8,0,2.8,0.4
		c0.6,0.2,1.2,0.2,2,0.6c0.2,0,1.2,0.4,1.8,0.8c0,0,10.6,6.6,13.4,9c-1-1.4-1-1.4-6.8-5.8c0.2,0,0.6-0.2,0.8-0.2
		c-0.2-0.2-0.6-0.4-0.8-0.4l0.8,0.2c0.2,0,0.6,0.2,1,0.2c-1-0.6-1.4-1-1.2-2.4c0.6,0.2,1.4,0.4,2,0.6c-0.2-0.2-0.6-0.4-0.8-0.6
		c0-0.8,0-0.8-5.8-4c0.2,0,0.6-0.2,1-0.2c0-0.2,0-0.6,0-1c2.6,0.8,5.2,2,7.8,2.6c0,0,0,0,0.6-0.4c-5.2-2.6-5.2-2.6-6.4-4.4
		c0,0,0,0-0.6-0.2c-0.2-0.2-0.6-0.4-1-0.4c0,0,0,0-0.2,0c-2.4-1.2-5-1.6-7.4-3s0,0-0.4-0.2c-1-0.2-2.4-0.8-3.2-2.2
		c0.6,0.2,1.4,0.4,2.2,0.6c-4.8-2-4.8-2-5.2-2.4c0.6,0.2,1.4,0.4,2,0.4c-0.6-0.2-1.4-0.4-1.8-0.8c-0.4-0.4-1.2-0.8-1.8-1.2
		c-7-2.6-7.4-2.8-8.4-3.6c0.2,0,0.6,0.2,1,0.2l1.4,0.4c6.8,2.6,6.8,2.6,19.7,8.2c8.2,3.8,8.4,4,22.9,11.6c10.6,6,11.6,6.8,27.7,17.5
		c15.4,11.4,17.7,13.2,34.7,28.7c20.1,19.3,31.1,34.7,42.9,50.8l3.8,5.6c0.6,1,1.2,2,1.8,3c1,1.6,2,3.2,2.8,5
		c5.4,8.6,10.2,17.5,14.6,26.5c9,19.5,10.6,24.5,19.3,51.8c5,21.1,5,21.1,6.8,31.3v0.2c1.6,11.6,2.8,26.7,3.6,38.9
		c-0.2-1.6-0.4-3.4-0.4-5c-0.2,0.8,0.2,25.1,0.2,25.3c0-0.4,0-0.8,0.2-1c0,3.6-0.2,7-0.2,10.6v0.4c-0.2,1.8-0.4,3.6-0.4,5.6
		c0.4-5.2,0.2-7.6,0.2-8.2c0,0,0,0,0-0.4c0-0.4,0-0.8,0-1C614.8,326.3,614.8,327.5,614.8,328.7 M436.5,360c-0.6,0.4,0,1.6,0,1.8
		c0,0.2,0.4,0.2,0.4,0.2h0.2c0.2,0,0.4,0.2,0.4,0.2c0.2,0,0.2,0,0.2,0c0.2,0,0.2,0,0.4-0.4c0-0.4,0.2-0.6,0.2-1s0.2-0.6,0.2-1
		c0-0.2,0-0.2,0-0.4v-0.2c0-0.2,0-0.6-0.4-0.6C437.7,359.2,436.5,360,436.5,360 M426.4,401.1c-0.4,0.2-1.6,2.6-1.2,4.8
		c0.2,0.8,0.4,2,0.8,2.8c1.4,3,1.8,3.2,2.2,3.2c0.2,0,0.4,0,0.6-0.2c0.4-0.6,0-1.8-0.6-1.6c-0.4,0-1.2-2.2-1.2-2.4
		c-0.2-0.6-0.2-0.8,0.6-4.8C427.7,401.5,426.9,400.9,426.4,401.1 M366.9,504.2C366.9,504.2,367.1,504,366.9,504.2c0.2-0.6,0-1-0.2-1
		c-1.6-1-2.2-0.8-2.4-0.8l-4.4,2.8c-0.4,0.2-1.4,0.8-1.4,0.8c-0.4,0.2-0.6,0.6-0.2,0.6c0.6,0,1-0.2,2.2-1c1.2-0.8,2.6-1.6,3.2-1.6
		C364.9,503.8,365.9,504.6,366.9,504.2 M378.3,468.5c0-0.2,0.2-0.2,0.2-0.4c0-0.4-0.8-1.4-1.6-0.8c-0.4,0.2-0.8,0.8-1,1
		c-0.4,0.4-0.6,0.8-1,1.2c-0.2,0.2-0.4,0.4-0.6,0.6l-0.2,0.2c0,0.2-0.2,0.2-0.2,0.4c-0.4,0.6,0,1.4,0.4,1.4c0.2,0,0.4,0,1-0.6
		l2.8-2.6C378.1,468.7,378.3,468.7,378.3,468.5 M385.1,434c-0.2,0.4-0.2,0.8,0,0.8s0.2,0,0.4-0.2l0.8-0.4c0-0.2,0-0.4,0-0.6
		s0-0.4,0-0.8c0-0.2,0-0.2,0-0.2c0-0.2-0.2-0.2-0.4-0.2C385.5,432.6,385.3,433.2,385.1,434 M382.5,467.5L382.5,467.5
		c0-0.4-0.4-0.6-0.8-0.2l-0.2,0.2c0,0.2,0,0.2-0.4,0.6c-0.2,0.2-0.4,0.4-0.6,0.6c0,0,0,0-0.2,0.2c0,0.2-0.2,0.4,0.2,0.4
		c0.6,0,1.2-0.4,1.2-0.4C381.9,468.7,382.5,467.5,382.5,467.5 M385.7,501C385.7,501,385.7,500.8,385.7,501c0,0-1.2-0.2-1.8-0.4
		c-0.4,0-0.8,0.2-1.2,0c-0.4,0-0.6-0.2-0.6-0.2s-0.2-0.2-1-0.2c-0.2,0-0.6,0-0.6,0.2c0.2,0.2,2.2,0.8,3.4,0.8
		C384.3,501.4,385.7,501,385.7,501 M402.8,484.2c0.6-0.6,0.6-0.8,0.6-1c0-0.8-0.6-1.6-0.8-2.4c-0.2-0.4-0.2-0.4,1-4.4
		c0.2-0.8-1.6-3.4-2-3.2c0,0-0.8,0.6-1.2,2c-0.2,1,1,1.4,0.8,2.2c0,0.2-0.2,0.4-0.2,0.6c-0.4,0.6-1.2,3.4-1.2,4c0,0.6,0,1,0,1
		c0.2,0.4,0.2,0.4-1.8,2.2c-0.6,0.6-0.6,0.6,0,3.2c0.2,1-0.2,1.8-0.2,2.6c0,0.6,0.2,1,0.2,1.6c0,0.4,0,0.8,0,1c0,0.6-0.2,1,0.2,1
		s0.6-0.6,1.2-0.6c0.6,0.2,0.4,0.8,0.8,1c0.2,0,0.2,0,0.2-0.2c0.2-0.4,0.4-1.2,0-1.8c-0.6-1-0.6-1-0.2-2.2c0.4-1.6,0.4-3.2,1-4.8
		C401.4,485.6,401.6,485.6,402.8,484.2 M399.4,434.2c0,0-0.2,1-0.2,1.8c0,2.6,0,2.6,0.2,2.8c1.2-0.4,1.4-2,2.6-2.2
		c0.8-0.2,0.6,1,1,1.4c1,0,1.8-0.6,2.6-0.6c0.6,0,0.8,1.2,1.6,1c0.2,0,0.2,0,0.2-0.2c0.2-0.2,0.2-0.6,0.6-1c0.4-0.2,0.8-0.2,1.2-0.6
		l0.2-0.2c0,0,0,0-1.6,0c-0.4,0-0.6-0.2-0.4-0.6c0.4-0.6,0.8-0.6,1.2-1.2c0.4-0.4,0.4-1,0.6-1.4l0.2-0.2c0,0,0.2-0.2,0.4-0.2
		c0.4-0.2,0.4-0.2,0.4-0.2c0.4-0.6,0.6-1.2,1-1.8c0.2-0.4,0.6-0.6,1-1c0.2-0.4-0.2-1,0.2-1.6c0.4-0.6,1.2-0.2,1.8-0.6
		c0.4-0.2,0.8-0.4,1.2-0.6c0.4-0.2,0.8-0.4,0.8-0.4s0,0,0-0.2c-0.8-0.4-1.6,0.2-2.4,0c-1.4-0.2-0.6-2.2-1.8-2.4c-0.4,0-0.6,0.2-1,0
		c-0.8-0.2-0.6-1.4-1.6-1.4c-1,0-1.4,1.2-2.4,1.4c-0.2,0-0.2-0.2-0.4-0.2c0,0-3.2,0.4-4,2c-0.6,1.2-2.2,1.8-1.8,3.4
		C401.2,431.2,399.8,432.6,399.4,434.2 M393.2,462.5c-0.2-0.2-0.6,0-0.8,0.2c-0.2,0.2-0.4,0.6-0.2,0.8c0,0.2,0.2,0.2,0.2,0.4
		c0.2,0,0.2,0,0.4,0.2c0.2,0.2,0.2,0.4,0.2,0.6c-0.2,0.6-0.2,1,0,1c0.2,0.2,0.2,0.4,1,0.6c0.4,0,0.6,0,1-0.2c0,0,0,0,0.2,0
		s0.2,0.2,0.4,0.2c0.2,0.4,0.4,0.8,0.6,1.2c0.2,0.2,0.4,0.2,0.6,0.2c0,0,0-0.2-0.2-0.6c0,0-0.2-0.2-0.2-0.4
		c-0.2-0.4-0.2-0.8-0.4-1.2c0,0,0-0.2-0.2-0.2c0-0.2-0.2-0.2-0.4-0.4c0,0-0.4-0.4-1.2-1.4c-0.2-0.2-0.6-0.4-0.8-0.8
		C393.2,462.7,393.2,462.7,393.2,462.5 M401,412.1c-4.2,4.4-4.2,4.4-4.6,5c0.2,0.2,0.4,0.6,0.6,0.8c4.8-5.8,4.8-5.8,4.8-6h-0.6
		L401,412.1 M387.1,459.1c0-0.2-0.6-1.6-1.6-1.8c-0.2,0-1.8-1.2-0.6-2.2c1.4-1.4,0.8-6.6,0.4-9.6c-0.2-0.8-0.6-1.4-0.6-2.2
		c0-0.6,0.6-1.2,0.2-2c0,0,0,0-0.2,0c-0.4,0.2-1.4,4.2-1.4,4.2c0,0.4,0.4,0.6,0.4,1c0,0.2,0,0.2-0.6,1.4c-0.4,1-0.6,1.6-0.6,2.2
		c0,1,0.8,1.6,1,2.4c0.2,1-1,1.2-1.2,2.2c0,0.2,0,0.8,0.2,1.8c0.2,2.6,0.2,2.6,1.8,4c1,1,0,2,0.4,3c0.4,1,1.6,1.2,1.6,2.4
		c0,0.6-1.2,1-0.8,1.6l2.4,1.4c0.4,0,0.6-0.2,1-1.2c0.2-0.4,0.2-0.6,0.2-0.6c0-0.2,0-0.2-0.2-0.4l-1.6-3.4
		C386.5,461.9,387.5,460.7,387.1,459.1 M389.1,425.6c-0.2,0.2-0.4,0.4-0.6,0.4c-0.2,0.2,0,0.2,0,0.2c0.6,0,2-0.6,2.2-0.6
		c0.6-0.2,0.6-0.6,0.8-0.8c0,0,0,0,0-0.2c0.2-0.6-0.6-1.6-1-1.2c-0.2,0-0.2,0.2-0.2,0.4s-0.2,0.4-0.6,1
		C389.5,425.2,389.1,425.6,389.1,425.6 M495.9,172.6c-0.2,0.2-0.4,2,0.4,1.8c0.2,0,0.2-0.2,0.4-0.2c0-0.2,0.2-0.2,0.2-0.2
		c0.2,0,0.4,0.2,0.6,0.2c0.2,0,0.2-0.2,0.4,0c0.2,0.2,0.2,0.2,0.6,0.6c0,0,0,0,0.2,0.2c0.4,0.2,0.6-0.6,0.6-1.2
		c-0.2-0.8-1-0.6-1.2-0.6c0,0-0.2,0-0.4,0c-0.2-0.2-0.4-0.2-0.4-0.2c-0.2,0-0.2,0-0.4-0.2c0,0-0.2-0.2-0.4-0.4
		C496.3,172.6,496.3,172.6,495.9,172.6 M495,177c0.6,0,0,1.2,0.4,1c0.8-0.2,0.8-1.4,0-2c-0.2-0.2-0.4-0.4-0.2-0.8
		c0-0.2,0.4-0.4,0.6,0.2c0.2,0.4,0.6,0.8,0.6,0.6v-0.2c0.2-1,2.2-0.2,2.2-0.2s0,0,0.2,0.2c0,0,0.4,1.6,0.8,2c1,0.8,2,1.6,2.4,2.2
		c0.2,0.2,0.2,0.4,0.4,0.6c0.2,0.6-0.6,4.2-1,4.6c-0.2,0.4-2.8,1.4-3.2,1.2c-0.2-0.2-0.4-0.6-0.6-0.4c-0.2,0.2-1.8-0.4-2-1
		c-0.2-0.4,0-0.8-0.2-1.2s-0.6-0.6-0.6-1c-0.4-0.8-0.6-2.4-0.6-2.4c0-0.2,0.2-0.6,0.2-0.8c-0.2-0.6-0.4-1.6-0.4-2S495,177,495,177
		 M499.3,198.2c0,0,0.4,0,0.2-0.6c0,0,0-0.2-0.2-0.2c0,0,0,0,0-0.2c-0.2-0.2-0.4-0.6-0.6-0.8c-0.2-0.2-0.2-0.2-0.2-0.2
		c-0.2-0.4,0-0.6-0.2-1s-0.8-0.4-0.8-0.2c-0.2,0.2-0.2,1.2,0.4,2.2C498.1,197.6,498.5,198.2,499.3,198.2 M454.7,67.4
		c0,0-2.4-1.2-5.4-2.6c3,2.4,4.4,3,6.8,2.8c-0.2-0.2-0.4-0.6-0.6-0.8C455.1,67,454.9,67.2,454.7,67.4 M446.9,72
		c4.4,4,8.2,8.2,9.4,11c0,0,0,0,0,0.2c0.2,0.2,0.6,0.4,0.8,0.6c0,0.2,0,0.6,0,1c-0.6,0-1.2-0.2-1.8-0.4c0.2,0.2,0.4,0.4,0.6,0.6
		c-0.6-0.2-1.2-0.4-1.8-0.6c1.4,1,3.6,1.2,5.2,0.4c-4.2-6.4-4.2-6.4-7.2-9.6c0.4-0.4,0.8-0.8,1.4-1c9.2,3.6,9.2,3.6,12.4,4.2
		c-12.8-5-12.8-5-14.2-5c-0.2,0.4-0.8,0.8-1.4,1C449.3,73.6,448.1,72.8,446.9,72 M441.7,232.4c0.2,0,0.4,0,0.4-0.4
		c0-0.2-0.2-0.4-0.2-0.4c-0.2-0.2-0.4-0.2-0.8-0.4c-0.4-0.2-0.8-0.6-0.8-0.6l-0.2-0.2c0,0-0.2-0.2-0.4,0
		C439.5,230.5,440.7,232.1,441.7,232.4 M442.1,206.5c2,1.6,8.4,1.6,7.8-3.8c-0.4-3-3.6-5.2-4.8-5.8c-3-1.8-4.8-5-7.4-7.4
		c-1.2-1-2.8-0.6-4-1.4c-2.8-1.8-2.8-1.8-2.8-2.6c0-0.2,0.4-0.4,0.6-0.4l1.6-2c0.2-0.4,0.2-0.8,0.4-1.2c0.2-0.2,0.4-0.6,0-1
		c-0.6-0.6-2-0.4-2-1.6s1.6-1,2.2-1.6c1.4-0.2,2-0.8,2.2-1.2c0.2-0.4-0.2-1.2-0.4-1.2c-1.4-0.2-2.6,0.8-4,1c0,0,0,0-0.2,0l-6.6,2.4
		c-1,0.6-1.8,1.4-2.8,2.2c0,2,1,3.6,3,4.8c0,0.2-0.2,0.2-0.2,0.4c-0.2,0.2-3.8,2.6-4.2,2.6c-0.8,0-1-0.6-1.2-0.6
		c-0.2-0.8,0.4-1.4,0.2-2.2c-3.6-2-3.6-2-4-2c0.2-1.8,2.8-0.4,3-2.2c-1.2-1.6-1.2-1.6-2.2-1.4c-0.8,0.2-1.6,0.4-2.6-0.8
		c0.2-0.4,0.4-0.4,1.2-0.6l0.2-0.2c-3.4-1.6-5.2-1.6-5.2-1.6c-2.4,0.2-2.4,0.2-2.8,1c-1.6,2.8-1.6,2.8-2.2,2.8
		c-2.2,0.6-1,3.8-3.2,4.4c0,0-1,3.2-1,3.4c0,0.8,0.2,1.4-0.2,2.2c-0.4,0.6-1.2,0.2-1.6,0.8l-0.2,0.2c-0.4,1.2-0.4,1.2-0.2,3.8
		c0,0-0.2,0-0.2,0.2l-0.2-0.2c-0.6-0.8-1,0-1,0l2.6,5.6c0.8,1,2,1.2,2.8,1.8c1,0.8,2.2,0.2,3.4,0.4c1.2,0.4,2.6,0.4,3.8,0.6
		c0.4,0,1.4,0.2,1.8,0c0.4-0.2,0.6-0.4,0.6-0.8c0-0.4,0-0.4,1.8-1.2c1.2-0.6,2.4-0.8,3.6-1.4c2.4-1.2,4.6,1.6,7,0
		c0.6,0.4,0.6,1.4,1.2,1.8c0.4,0.2,0.4,0.2,2.6,0.2c1,1.8,1,1.8,1.2,2c1.2,0.8,2.8,0.8,4.2,1.6c1,0.4,2,0.4,3,0.8
		c0.4,0.2,1,0.4,1.8,0.6C439.9,206.9,440.9,205.5,442.1,206.5 M455.9,207.3c0.2,0,0.2-0.2,0.2-0.4c0-0.4-0.8-0.8-0.8-0.8
		c-0.2,0,0,0.4,0,0.6C455.3,206.7,455.5,207.3,455.9,207.3 M457.5,216.5c0.4-0.2,0.4-0.2,0.4-0.4c0-0.2-0.4-0.4-1,0
		c-0.4,0.2-0.8,0.4-1.2,0.6c-0.2,0.2-0.6,0.2-0.8,0.2l-0.2,0.2c0,0-0.6,0.6-0.4,1c0,0,0.4,0.4,1.4,0.6c0.4,0,0.4,0,0.6,0
		c0.2,0.2,0.2,0.2,0.4,0.4h0.2c0.4-0.4,0.2-0.8,0-1.2C456.7,217.1,456.7,216.9,457.5,216.5 M463,209.5c0.2,0,0.4-0.2,0.4-0.4
		c0-0.8-1.2-1.4-1.6-1.2c-0.2,0,0,0.2,0,0.2c0.2,0.2,0.4,0.4,0.6,0.6c0.2,0.2,0.2,0.4,0.4,0.4C462.8,209.5,463,209.5,463,209.5
		 M462.4,220.9c0.2,0,0.2-0.2,0.2-0.4c0-0.4-0.4-0.6-0.6-0.4c0,0,0,0.2,0,0.6C462.2,220.7,462.2,220.9,462.4,220.9 M461.4,243
		c0.6,0,0.6-0.4,0.6-0.6c0,0,0,0,0-0.2c0-0.2,0-0.4-0.2-0.4c-0.2-0.4-0.6-0.6-0.8-1c-0.2-0.4-0.4-0.8-0.8-1.2
		c-0.2-0.4-0.4-0.4-0.6-0.2c-0.4,0.4,0.2,2,0.6,2.8C460.5,243,460.9,243,461.4,243 M465.8,221.1c0-0.2,0-0.2,0-0.4
		c0.2-0.2,0.2-0.4,0.2-0.6c-0.2-1.2-2-1.2-2.2-0.8c-0.2,0.2,0.2,0.4,0.4,0.6c0.2,0.2,0.4,0.2,0.4,0.4c0,0,0,0.2-0.2,0.4
		s-0.2,0.4-0.2,0.6c0,0,0,0,0,0.2c0.2,0.4,0.8,0.4,1,0.8c0.6,1,0.8,2,1.4,3c0.2,0.2,0.2,0.2,0.4,0.2c0.4-0.2,0.4-0.6,0.6-0.8
		c0,0,0.2-0.2,0.4-0.2l0.2-0.2c0-0.6-0.6-0.6-0.8-1c-0.2-0.4,0-0.8-0.2-1.2c0-0.2-0.2-0.2-0.4-0.2
		C466.2,221.3,465.8,221.3,465.8,221.1 M462.4,246.2c0.2,0,0.2-0.4,0.2-0.4c0-0.6-1-1.2-1.2-1c0,0-0.2,0.2,0.2,0.8
		C462,246,462.2,246.2,462.4,246.2 M463.4,249.2c0.6,0,0.6-0.4,0.6-0.4c0-0.2,0-0.2-0.6-1c-0.2-0.4-0.4-0.4-0.4-0.6
		c0-0.2,0-0.2,0-0.2c0-0.2-0.2-0.2-0.2,0C462.4,247,462,249.2,463.4,249.2 M479.2,258.2L479.2,258.2c-1,0-1.8-0.4-2.8-0.4
		c-1-0.2-1.6-1-1.2-1.4c0.2,0,0.2,0,0.6-0.2c0.2,0,0.6,0,0.6-0.6c0-1.2,0.4-1.8,1-1.4c0.2,0,0.4,0.2,0.4,0.4
		c0.4,0.6,0.4,1.2,0.6,1.8c0,0.2,0.2,0.2,0.4,0.4c0,0,0.8,0.8,0.6,1C479.6,258,479.6,258.2,479.2,258.2 M480.2,257
		c-0.6-0.8-1.4-2-1.8-2.8c0.4-0.4,0.6-1.2,1-1.4c0.2-0.2,0.6-0.4,1-0.6c0,0.4,0,0.8,0,1.2c-0.6,1-0.6,1.4-0.4,1.6
		c0.2,0.4,0.4,0.8,0.6,1L480.2,257 M485.4,259.8C485.6,259.6,485.6,259.6,485.4,259.8c0.2-0.4-0.4-1.2-1-1.4c0,0-0.2-0.2-0.4-0.2
		c0,0-0.4-0.4,0.2-0.6c0.2,0,0.6-0.2,0.4-0.4c0-0.4-1.2-0.6-1.8,0.2c-0.4,0.4-0.6,1.2-0.6,2c0,0.4,0,0.4,0,0.4
		c-0.2,0.2-0.4,0.4-0.4,0.8c0,0.2,0,0.4,0.4,0.4c0.2,0,0.4-0.2,0.6-0.4c0.2-0.4,0.6-0.2,0.8-0.4c0.2-0.2,0.2-0.4,0.4-0.4
		C484.8,259.4,485,259.8,485.4,259.8 M481.8,222.3c-3.8-0.4-3.8-0.4-5.4-12.6v-0.4c0-0.8,0.8-1.4,0.8-2.2c0-0.4-0.4-0.8-0.4-0.8
		c-0.4-0.4-0.6-0.6-1-1c-0.2-0.2-0.2-0.6-0.6-0.8c-0.2-0.2-0.4-0.2-0.6-0.6c-0.2-0.2-0.2-0.2-0.4-0.8c-0.2-0.4-0.6-1.4-1.2-1.6
		c-0.2-0.2-0.6-0.4-1.6-1.6c-0.6-0.8-1.2-1.6-2-2.4c-0.4-0.4-0.8-0.4-1-0.8c-2-3-2.6-7-5.8-9.2c1.2-3.8,1.2-3.8,2-4.4
		c0.4-0.4,1-0.6,1.6-0.6c0.8-0.8,0.8-0.8,1.4-2.6c0.4-0.6,0.4-0.6,0.4-0.6c0.2-0.2,0.4-0.4,0.6-0.6c-0.4-2.6-0.4-2.6,4.8-3.2
		c0.2,0.2,0.4,0.4,0.6,0.6c0.6-0.2,1.2-0.6,1.4-1c3,0.8,3,5.8,1.8,6.4c-0.8,0.4-1.8,0.8-2.6,1.2c-0.2,1.2-0.2,1.2,0.4,3
		c-0.2,0.2-0.6,0.4-0.8,0.6c-0.2,0-0.6-0.2-0.8-0.2c-0.2,0.2-0.4,0.6-0.6,0.8l6.2,4.8c2.4,2.8,2.4,2.8,3.6,3.2c-0.2,1-0.2,1,3.8,7.2
		c-0.2,0.2-0.4,0.6-0.8,0.8c-0.2,0-0.6,0-0.8,0c-0.6,4,0,4.2,3.2,4.6c0.4,0.8,1,0.8,1.6,0.6c0-0.2,0.2-0.6,0.2-0.8
		c0.6,0,1.4,0,2,0.4l0.2,0.2c0.4,0.2,0.8,0.4,1,0.6c-0.2,0.4-0.4,0.8-0.6,1c-1.4,0.2-1.4,0.2-3-1.2c-0.6-0.2-1,0-1.6,0
		c0.2,0.4,0.4,0.8,0.6,1c-0.2,0.2-0.6,0.2-1,0.4c0.6,0.8,0.6,0.8,4,9.8c0.6,0,1.6,0.2,2.2,0.4c0.2,2,0.2,2,1.6,4.2
		C494.4,224.7,486.4,228.3,481.8,222.3 M500.1,204.5c0.2-0.2-0.2-1.8-0.2-1.8c-0.2-0.4-0.2-0.4,0-0.8c0.2-0.6,0.2-0.6,0.2-0.8
		c0-0.2-0.2-0.6-0.6-0.4c0,0-1,1-0.8,1.6C498.7,203.1,499.9,204.5,500.1,204.5 M535.4,111.2c0.4,0.8,0.6,1.6,1.2,2.2
		c0,0,0.8,0.6,1.2,0.4c0-0.2-2.4-4.2-4.6-6.8c-1-1.2-1.4-1.6-1.4-2.4l-3-3.8c-3-3-7.6-7.4-8.6-8.2c0,0,0,0-0.2,0
		c0.2,0.4,0.2,0.4,1,1.2c1.2,1.4,2.6,2.4,3.6,3.6c1.2,1.4,2.4,3,3.8,4.4l0.2,0.2c0.4,0.4,1.2,1.4,1.6,2c0.8,1.2,1.8,2.2,2.4,3.4
		C533.6,108.8,534.8,110,535.4,111.2 M535.2,161.7L535.2,161.7c0-0.4-0.4-1.4-0.4-1.6c-0.2-0.2-0.8-0.6-0.8,1.2c0,0.4,0,0.4,0,0.4
		c-0.4,0-0.6-0.2-1-0.2c-0.2,0-0.6,0.4-0.6,0.6c0,0.2,0,0.2-0.2,0.2c-0.8,0.2-1.4,0-2.2,0c-0.4,0-0.6,0-0.6,0
		c-0.4,0.2-0.6,0.4-1,0.6c-0.2,0.2-0.4,0-0.6,0c-1.4,0.6-0.6,4-0.6,4c0.6,1.8,0.8,1.8,0.8,2c0,0,2.6,2.4,2.8,2.6c0-0.4-1-1.6-1-1.6
		c-0.4-0.4-1.4-3.2-1.4-3.2c0-0.4,0.4-0.2,0.6-0.4c0.4-0.8-0.6-1.2-0.4-1.8c0.2-0.6,0.8-1.4,1.2-1.4c0.4-0.2,1.2-0.4,1.8-0.4
		c0.8,0,0.8,0,1.2-0.2c0.4-0.2,1,0.4,1.4,0L535.2,161.7 M612.8,353.5c0.6-4.2,0.6-9.2,0.6-9.2c0-0.2,0-0.6,0-0.8
		c-0.2,0.4-0.2,1-0.2,1.4c0,0,0-0.2-0.2-0.2c-0.2,1.4-0.2,1.4-0.4,1.6c0-0.6,0-0.6-0.2-0.8c0,0,0,0-0.2,0c0,0,0,0,0,0.2
		c-0.2,0.6-0.6,4.8-0.4,5.8h0.2c0.2,0.6,0.4,3.2-0.8,11.6L612.8,353.5 M435.9,54c-0.2-0.2-0.6-0.4-0.6-0.2c0,0.2,0.6,0.6,0.6,0.6
		c0.4,0.2,0.6,0.2,0.6,0.2C436.5,54.4,436.3,54.2,435.9,54 M438.9,61.8L438.9,61.8c0,0.2,0.2,0.6,0.2,0.6c0.2,0.2,0.4,0.2,0.6,0.2
		c0.2,0,0.4-0.2-0.2-0.6C439.3,62,438.9,61.8,438.9,61.8 M437.7,39.7L437.7,39.7c-0.2-0.2-0.2-0.2-0.4-0.2c-0.2-0.2-0.4-0.2-0.6-0.2
		C436.7,39.5,437.5,39.7,437.7,39.7 M612.2,344.1c-0.2-0.2-0.2-0.4-0.2-0.6s-0.2,0-0.2,0c-0.2,0.4-0.2,1-0.2,1s0,0,0,0.6
		c0,0.8,0,0.8,0,0.8c0.2,0,0.4-1.4,0.6-1.4C612.4,344.1,612.4,344.1,612.2,344.1 M438.5,60.2c-0.2-0.2-0.8-0.4-0.8-0.4
		c0,0.2,0.8,0.8,0.8,0.8c0.4,0.4,0.6,0.4,0.6,0.2C439.3,61,438.9,60.6,438.5,60.2 M434.7,60.2C434.5,60.2,434.5,60.2,434.7,60.2
		c0,0.2,0.6,0.6,0.6,0.6s0.2-0.2-0.2-0.4C434.9,60.2,434.7,60.2,434.7,60.2 M434.5,55.2C434.3,55.2,434.3,55.2,434.5,55.2h-0.2
		c0,0.2,1,0.6,1.2,0.6s0.2,0,0.2,0s0,0-0.2-0.2c0,0,0,0-0.2-0.2v-0.2c0.2,0,0-0.2,0-0.2s-0.2-0.2-0.4-0.2c0,0-0.2,0,0,0.2
		C435.1,55.4,434.7,55.2,434.5,55.2 M426,42.5c-0.4-0.2-0.4-0.2-0.4-0.2c0,0.2,1.8,1,1.8,1S426.9,42.9,426,42.5 M611.4,334.7
		c0,0.2,0,0.4,0,0.4c0,0.4,0,1-0.2,1C611,336.1,611,335.1,611.4,334.7 M610.2,368.8c-0.2,1-1,5-1,5.2c0.2-0.4,1-4.6,1-4.6
		C610.2,369.2,610.2,369,610.2,368.8 M610.4,367.6c0,0.2-0.2,0.6-0.2,0.8c0,0,0.2-0.6,0.2-1c0.2-0.8,0.6-3.6,0.6-3.6
		c-0.2,0.6-0.2,1-0.2,1.2l-0.4,2.8c0,0.2,0,0.2,0,0.2C610.2,368,610.2,367.8,610.4,367.6 M608.4,377.8l0.6-3c0-0.2,0-0.2,0-0.4
		C608.8,375.6,608.6,376.8,608.4,377.8 M611.4,360.4L611.4,360.4c-0.2,0.4-0.2,1.2-0.2,1.2l0.2-0.8
		C611.4,360.4,611.4,360.4,611.4,360.4 M611.2,363l-0.8,5C610.8,366.2,611,364.6,611.2,363 M611.2,359.4L611.2,359.4
		c-0.2,0,0-0.2-0.2-0.4c-0.2,0.4-0.4,1.6-0.4,2.2c0,0.4,0,0.4,0,0.2c0,0,0,0,0,0.2c0,0,0.2-0.8,0.2-1
		C611.2,360,611.2,359.4,611.2,359.4 M355.2,133.2c0.2,0.2,0.8,0,0.8-0.4c0-0.2-0.2-0.2-0.2-0.4
		C355.4,132.6,355.2,133.2,355.2,133.2 M355,131c-0.2,0-0.2,0-0.4,0.4c0,0.2,0,0.2,0.2,0.6c0.2,0.4,0.8,0.4,0.8,0
		C355.8,131.8,355.4,131.2,355,131 M348,128.6c0.2,0,0.4-0.2,0.6-0.4c0.2-0.4-0.2-1.4-0.8-1.6c-0.2,0-0.4,0.2-0.8,0.8
		c-0.2,0.4-0.4,0.6-0.4,0.6c-0.4,0,0-0.6-0.4-0.8c-0.2-0.2-1.4,0.2-1.4,0.4v0.2c0,0,0,0.2,0.2,0.4c0,0.2,0,0.6,0,0.8
		c0,0.4,0.4,0.6,0.4,0.6c0.2,0.2,0.2,0.2,0.8,0.2c0.4,0,0.4,0.4,0.8,0.6c0.2,0,0.4,0,0.4,0c0.2,0,0.4-0.2,0.6-0.4c0,0,0.2,0,0.2-0.2
		v-0.2c-0.2-0.2-0.2-0.4-0.4-0.6v-0.2C347.6,128.8,347.8,128.8,348,128.6 M431.3,75.6L431.3,75.6c0.2,0,0.4,0,0.8,0.4
		c0.2,0.2,0.2,0.2,0.4,0.2c0,0,0,0,0-0.2c-0.2-0.2-0.8-0.6-1.4-1c-0.4-0.2-0.8-0.2-1.2-0.4c-0.4-0.2-0.6-0.2-0.8-0.4
		c-0.2,0-0.2,0-0.2,0C428.7,74.4,430.3,75.8,431.3,75.6 M344,131.6c0,0.4,0.4,0.6,0.6,0.6s0.4-0.2,0.6-0.2c0.4,0,0.8,0.2,1.2,0
		c0.4,0,0.4-0.2,0.6-0.4c0.2-0.2-0.2-0.4-0.2-0.4c-0.4-0.2-0.8,0-1,0c0,0-0.2,0-0.4,0c-0.6,0-0.6-0.6-1.2-0.8
		C344.2,130.6,344,131.2,344,131.6 M399.6,228.3c0.2-0.4,0.2-0.8,0.4-1.4c0-0.2,0.2-0.4,0.4-0.8c-0.6,0-1.4,1.4-1.4,1.4
		c-0.2,0.4,0,1,0,1.4C399,229.1,399.2,228.9,399.6,228.3 M418,234.8h-0.2c-0.2,0-0.2,0-0.4,0c-0.2,0-0.4,0.2-0.2,0.4
		c0,0.2,0.4,1.4,1.8,2c0.6,0.2,1,0.2,1.4,0.2s0.6-0.2,0.8-0.4c0.4,0,0.6,0,1-0.2c0.6-0.2,0.6-0.2,0.8-0.4c0-0.2,0.2-0.4,0.4-0.4
		c0.2-0.2,0.4-0.2,0.6-0.2c0.6-0.2,0-0.8,0.2-1.4c0.2-0.4,0.4-0.6,0.6-0.8v-0.2c0,0,0,0,0-0.2c-0.8,0.2-1.6,0.6-2.4,0.8
		c-0.8,0-1.4-0.4-2.2-0.2c-0.4,0,0,0.6-0.4,0.8C419.4,234.6,418.2,234.8,418,234.8 M342.6,128c-0.2,0-0.2-0.2-0.2-0.2
		c0-0.2-0.2-0.4-0.2-0.4H342c-0.4,0-0.6,0-1,0.2c-0.2,0-0.2,0-0.2,0c-0.2-0.2-0.2-0.2-0.4-0.2c-0.2,0,0,0.6,0,0.8
		c0.4,0.8,0.6,1,1.6,1.4c0.2,0.2,1,0.4,1.2-0.2c0.2-0.6,0-0.8,0-1c0,0,0-0.2-0.2-0.2C343,128,343,128,342.6,128 M343.4,132.4
		c-0.8,0-0.8,0.4-0.6,0.6c0.2,0.2,0.8,0.6,1,0C343.8,132.6,343.8,132.4,343.4,132.4 M376.9,120.6c-0.2,0.2-0.2,0.6-0.6,0.8
		c-0.2,0.2-0.4,0-0.6,0.2c0,0.2,0,0.2,0,0.2c0.2,0.4,2.2,0.2,2.4,0.2c0.6-0.2,1.6-0.8,1.8-1.2c0-0.2,0-0.2-0.2-0.2
		c-0.4,0-0.8,0.2-1.2,0.2c-0.4,0-0.6,0-1.4-0.4C377.1,120.4,377.1,120.4,376.9,120.6 M377.7,120L377.7,120c0.4,0,0.6,0,0.8,0
		c0.2,0,0.4-0.2,0.4-0.2v-0.2c-0.2-0.2-0.4-0.2-0.6-0.4c-0.2-0.2-0.2-0.2-0.4-0.4h-0.2c-0.4,0-0.8,0.6-0.4,1
		C377.5,119.8,377.7,120,377.7,120 M430.9,62.4c0-0.2,0-0.2,0-0.4c0,0,0-0.2-0.2-0.2c-0.2-0.2-1-0.6-1-0.4c0,0-0.2,0.2,0.2,0.4
		c0.4,0.4,1.2,1.2,1.4,1C431.1,62.8,430.9,62.8,430.9,62.4 M367.5,122.4c0,0-1,0-1.4,0.6c-0.2,0.4-0.4,1.4-0.2,1.8
		c0.2,0.4,0.6,0.4,1.2-0.2c0.2-0.4,0.4-0.8,0.4-1c0-0.2,0-0.4,0-0.4c0-0.2,0.2-0.2,0.2-0.4C367.9,122.4,367.7,122.4,367.5,122.4
		 M362.3,125c0-0.4,0-0.6,0-0.6s0,0-0.2,0.2c-0.2,0.2-0.2,0.4-0.4,0.6c-0.2,0.4-0.6,0.8-0.8,1.2c-0.2,0.2-0.4,0.6-0.2,0.8
		C360.9,127.8,362.1,126.4,362.3,125 M383.9,230.3c0.2,0,0.2,0.4,0.2,0.6s-0.4,0.4-0.6,0.2C383.1,230.7,383.5,230.3,383.9,230.3
		 M393.2,212.1c0,0,0-0.8-0.6-1c-0.6,0-0.8,0.2-0.8,0.2c-0.4,0.4,0.2,1.2,1,1.2C393.2,212.7,393.2,212.3,393.2,212.1 M457.9,475.1
		c0.2,0.4,1-0.2,1.2-0.6c0-0.2,0-0.4-0.2-0.4C458.5,474.3,457.7,474.7,457.9,475.1 M463,476.1c0.2,0.4,0.8,0.2,1.2-0.6
		c0.2-0.4-0.2-0.4-0.2-0.4s-0.4,0-0.6,0.2C462.8,475.7,462.8,476.1,463,476.1 M458.7,472.1c-1.2,0.2-1.8,0.6-1.6,1.4
		c0.4,0.8,1.6,0,2-0.6C459.3,472.5,459.3,472.1,458.7,472.1 M611,330.7C611,330.5,611,330.5,611,330.7c-0.2,0.2-0.2,1-0.2,1
		s0.2-0.2,0.2-0.6C611,330.9,611,330.7,611,330.7 M442.5,482.8C442.5,482.6,442.5,482.6,442.5,482.8c0-0.2-0.2-0.2-0.2-0.4
		c-0.6,0-1.4,1.6-1.4,2.2c0.2,0.6,1.2,0.8,1.6,0.2c0.2-0.2,0-0.4,0-0.4s-0.2-0.2,0-0.4C442.3,483.4,442.5,483.2,442.5,482.8
		 M441.5,487.2c0.2,0.6,1.4,0.4,1.6,0c0,0,0.2-0.8-0.6-0.8C441.5,486.6,441.3,487,441.5,487.2 M448.5,488.6c0.2-0.6-0.4-0.6-0.4-0.6
		c-0.8,0.2-1.6,1.4-1.4,1.8C447.1,490.2,448.3,489.6,448.5,488.6 M506.5,356.4c0,0-0.2,0-0.2,0.2c0,0-0.2,0.2-0.4,0.4
		c0,0-0.2,0.2,0,0.4c0.2,0.4,0.8,0,0.8-0.4C506.9,356.8,506.9,356.4,506.5,356.4 M475,520.1L475,520.1c-0.2-0.4-0.4-0.4-0.6-0.4
		c-0.6,0-1.4,0.8-1.4,0.8c-0.2,0.2-0.2,0.2-0.2,0.4c0,0.2,0,0.8,0,0.8c0.2,0.6,1.4,0.2,2.2-0.8c0-0.2,0.2-0.2,0.2-0.4
		c0-0.2,0-0.4,0-0.4C474.8,520.3,475,520.1,475,520.1 M430.9,507.8c0.2-0.2,0-0.6-0.4-0.6c0,0-0.8,0-0.6,0.6
		C429.9,508.6,430.7,508,430.9,507.8 M478.4,474.5c-0.6,0.2-1.4,0.8-1.2,1.2c0.2,0.4,1-0.2,1.4-0.8
		C478.6,474.7,478.6,474.5,478.4,474.5 M510.7,353.3c-0.4,0-0.6,0.4-1,0.6c-0.2,0-0.2,0-0.4,0c-0.2,0-0.2-0.2-0.4-0.2
		c-0.6-0.2-1.8,0.8-1.4,1.6c0,0,0.8,1.4,2,1.2c0.8-0.2,2.2-1.6,2.4-2.2C511.9,353.7,510.9,353.3,510.7,353.3 M479.2,470.3
		c0,0-0.2,0-0.4,0.2c-0.4,0.4-1.4,1.8-0.8,1.8c0.4,0,1-0.8,1.2-1.2C479.6,470.5,479.4,470.3,479.2,470.3 M484.4,514.9
		c-0.2,0-0.4,0.2-0.8,0.4c-0.2,0.2-0.6,0.4-0.8,0.6c-0.2,0.2-0.2,0.4-0.4,0.6c-0.8,0.8-0.8,1-0.8,1c0.2,0.6,1.6-0.2,2.2-0.8
		c0-0.2,0.6-1.4,0.8-1.4C484.6,514.9,484.4,514.9,484.4,514.9 M503.1,358c0.2,0,0.6,0,0.6-0.4c0-0.2-0.2-0.8-1-0.8
		c-0.6,0-1.2,0.4-1,0.6C501.9,357.6,502.9,358,503.1,358 M479.8,468.3c-0.4,0-0.8,0.4-0.8,0.6c0,0,0,0,0,0.2c0,0,0.2,0.4,0.6,0.2
		c0.2,0,0.6-0.4,0.6-0.6C480.2,468.7,480.2,468.3,479.8,468.3 M184.1,37.9c-0.6,0.2-0.8,0.4-0.8,0.4
		C183.3,38.5,183.7,38.3,184.1,37.9c0.4,0.2,0.6,0,0.6-0.2C184.7,37.7,184.3,37.9,184.1,37.9 M183.9,37.3c-0.2-0.2-1.2,0.2-1.2,0.4
		s0.4,0,0.8,0C183.7,37.5,183.9,37.5,183.9,37.3 M185.5,37.1L185.5,37.1c0,0-0.4,0-0.8,0.2c0,0-1.2,0.4-1.4,0.6c0.2,0,1.8-0.6,2-0.6
		S185.5,37.3,185.5,37.1 M206.2,40.1c0,0-1.4,0.4-1.4,0.6c0,0,0.8,0.2,1.6,0c0.4-0.2,0.8-0.4,0.8-0.6
		C206.8,39.9,206.6,39.9,206.2,40.1 M169.7,42.9h0.4c0.4-0.2,0.4-0.4,0.4-0.4s-0.2,0-0.4,0C170.1,42.7,169.7,42.9,169.7,42.9
		 M144.4,78.1c-0.2,0-0.2,0.2-0.4,0.2s-0.2,0-0.4,0c0,0,0,0-0.2,0c0,0-0.2,0-0.2,0.2c-0.2,0.2-0.2,0.2-0.2,0.2s0,0,0,0.4
		c0,0.2,0,0.2-0.2,0.4s-0.4,0.4-0.4,0.4c0,0.2,0.4,0,0.8-0.2c0.2-0.2,0.2-0.2,0.2-0.2c0.2-0.2,0.2-0.2,0.2-0.4c0-0.2,0-0.2,0.2-0.2
		c0.2-0.2,0.4-0.2,0.6-0.4c0.2-0.2,0.2-0.2,0.2-0.4S144.6,77.9,144.4,78.1 M142.2,83.1c0.4,0,0.8-0.4,1.2-0.6h0.2
		c0.2,0,0.2-0.2,0.2-0.4c0-0.2-0.2-0.2-0.4-0.4c0-0.2,0-0.4,0-0.8c0.2-0.4,0.2-0.4,0-0.6c-0.4-0.4-1.4,0.4-1.6,0.6
		c0,0.2,0,0.2,0,0.2s0.2,0,0.2,0.2c0.2,0.2,0,0.6,0,0.8c0,0,0,0.2,0.2,0.2v0.2c0,0.2-0.4,0.4-0.6,0.8
		C142,83.1,142.2,83.1,142.2,83.1 M349.2,600.1c-0.6,0-1.2,0.4-1.2,0.4c0.2,0,0.4-0.2,0.8-0.2c0.2,0,0.2,0,0.4,0h0.2
		C349.8,600.3,349.6,600.1,349.2,600.1 M395.2,597.7L395.2,597.7c-0.4,0-0.6,0.2-0.8,0.2c-0.2,0-0.2,0-0.2,0s0,0-0.2,0
		c-0.6,0-1.4,0.4-1.4,0.6c-0.2,0.6,2,0,2.6-0.4C395.2,597.9,395.2,597.7,395.2,597.7 M426,595.7c1-0.6,1-0.6,1-0.6
		c-0.2,0-0.4,0-0.4,0.2c0.2,0,0.2-0.2,0.4-0.2c-0.4,0.2-4.4,2-4.6,2.2c0,0,0,0,0.8-0.2c0.8-0.2,0.8-0.2,0.8-0.2h0.2
		c0,0,0.6-0.2,1-0.4c0.2,0,2-0.8,2.4-1c0.6-0.2,0.6-0.2,0.6-0.4c0,0,0,0-0.4,0.2C427.1,595.3,426.6,595.7,426,595.7 M164.3,45.9
		h-0.4c-0.2,0-0.6,0.2-0.6,0.2l0.2,0.2c0,0,0.2,0,0.4-0.2C164.1,46.1,164.3,46.1,164.3,45.9 M390.3,597.5c-0.4,0-0.8,0.2-0.8,0.4
		c0,0.2,0.4,0,0.8-0.2C390.1,597.7,390.3,597.7,390.3,597.5 M350.6,599.7c-0.4,0-0.6,0.2-0.8,0.2c0,0,0,0.2,0.2,0.2
		C350.2,600.1,350.6,599.9,350.6,599.7c0.2,0.2,0.2,0.2,0.2,0.2C350.8,599.7,350.8,599.7,350.6,599.7 M466.8,484.8
		c-2,0.8-1.8,3-2.8,4.2c-1,1.4-3,1-4,2.2c0,0-1.8,2.8-2,3.4c0,0.2,0.2,0.4,0.2,0.8c0,0-0.2,0.2-0.4,0.2c0,0,0,0-0.2,0
		c-1,0.4-1.4,1.6-2.2,2c-0.2-0.2-0.2-0.4-0.4-0.6c0,0-1.4,0.8-1.6,1.6c0,0.6-0.2,0.6-0.8,0.8c0-0.2,0-0.4-0.2-0.6
		c-0.4,0.2-0.4,0.2-4.2,2.6c-2-1.4-3.2,1.4-4.8,1.8c0,0,0-0.2-0.2-0.4c-0.8,0-1.2,1-2,1.2c-0.2-0.2-0.8-1-1.6-0.4
		c-1,0.8-1,2.2-1.8,3.2c-2.6,2.6-2.6,2.6-2.8,3c0.2,0.8,0.2,0.8,0.2,1c-0.2,0.8-1,1-1.2,1.8c-0.2,0.6,0.8,0.6,0.6,1.2
		c-0.2,0.6-0.6,1.2-0.6,1.8c-1.4,4.2-1.4,4.2-1.8,4.6c-2.6,2-3,2.6-3.2,3c-1,1.2-2.6,2-3.6,3.2c-2.2,2.8-2.8,3.4-2,4.8
		c0.2,0,0.4,0,0.4,0s0,0.2,0.2,0.4c-2,2.4-2,2.4-2.8,6.8c2.6,3,2.6,3,11.6,0.2c2.6-0.8,6.4-5.8,6.4-5.8c2.8-3.8,2.8-3.8,14.8-17.5
		c3.6-4,5-7,5.4-8.4c0.4-1.2,1.6-2,2.4-3.2c0.8-1,0.4-2.4,1-3.6c0.4-0.8,0.4-0.8,0.8-1.2c0.2,0.2,0.2,0.2,0,2.2l0.2,0.2
		c0.6-0.2,0.6-0.2,1.6-2.4C465.2,499,469.4,486.2,466.8,484.8 M463.6,473.7c-0.8,0-1.4,0.6-1.2,1.2c0.2,0.8,1,0,1.4-0.6
		C464,473.7,463.8,473.7,463.6,473.7 M569.3,404.3c0-0.4,0.2-0.6,0.2-0.8v-0.2c0,0,0-0.2-0.2-0.2c0,0-0.2,0-0.2,0.2
		c-0.6,1-1.4,3.8-0.8,3.6c0.4-0.2,1-1.4,1-1.8c0.2-0.4,0-0.4,0-0.4C569.3,404.3,569.3,404.3,569.3,404.3 M567.5,410.7
		c-0.6,0.2-0.8,1.2-0.8,1.4c0.2,0.4,1-0.6,1.2-1C567.9,410.7,567.5,410.7,567.5,410.7 M570.9,394.5c0-0.4-0.4-0.6-0.6-1
		c0-0.4,0-1,0-1.4c0.2-3,0.2-3,0.2-3.4c0.6-3.4,0.6-4,0.6-4.4c-0.2,0-0.2,0-0.4,0c-0.4,0.2-0.4,0.2-1.2,8.4c0,0.6,0.2,1,0.2,1.6
		c-0.2,1-0.2,1.6,0,2c0.2,0,0.4-0.2,0.6-0.2c0.4,0.4-0.4,1.2,0.2,1.6c0.2,0,0.4,0,0.6-0.8c0.2-0.6,0-1-0.2-1.6
		C570.9,395.1,570.9,394.9,570.9,394.5 M556.4,445.8c0,0-0.2,0.2-0.6,0.6c-0.2,0.4-0.2,0.6,0.2,0.6c0.2,0,0.4-0.4,0.6-0.8
		C556.6,446,556.6,445.8,556.4,445.8 M502.9,447.2c0.2,0.4,0.6-0.2,0.8-0.6c0.2-0.6-0.2-1-0.4-1c-0.2,0-0.2,0-0.2,0
		c-0.2-0.2,0-0.2,0-0.4l-0.2-0.2c0,0-0.2,0-0.2,0.2c-0.2,0.2-0.6,1.2,0.2,1c0.2,0,0.2,0,0.2,0.6C502.7,447,502.7,447,502.9,447.2
		 M558.8,436.2c-0.4,0.2-0.6,1-0.6,1c0,0.2,0.6-0.4,0.8-0.8C559.2,436.4,559,436.2,558.8,436.2 M572.5,388.1
		c-0.4-0.2-0.4-0.6-0.4-0.8c0-1.2,0.8-2.2,1-3.6v-0.2c0,0-0.4-1.2-0.4-1.4c0-0.2-0.2-0.2-0.2-0.2c-0.2,0.2-0.6,2.8-0.6,2.8
		c0,0.6-0.2,2.4-0.8,7.8c0,0.6,0,0.6,0,0.8c0.2,0,1-1.8,0.8-2c-1-0.8,0.4-1.6,0.6-2.6C572.7,388.3,572.7,388.3,572.5,388.1
		 M575.5,352.7c0-0.2-0.2-0.4-0.2-0.4c-0.4,0.2-0.6,1.2-0.4,1.6C575.1,354.1,575.5,353.1,575.5,352.7 M614.6,303.4L614.6,303.4
		c0,0.2,0,1.4,0.2,1.6c0,0,0-0.4,0-0.6C614.6,304,614.6,303.6,614.6,303.4 M610.8,322.4L610.8,322.4c-0.2,0.2-0.2,2,0,2
		c0.2-0.2,0.2-1.2,0.2-1.4C610.8,322.8,610.8,322.4,610.8,322.4 M614.8,309.2V309v-0.2c0,0,0-0.6,0-0.8c0,0,0,0,0,0.2s0,0.4,0,0.6
		C614.8,308.8,614.8,309,614.8,309.2c0,0-0.2,0.6,0,0.6C614.8,309.6,614.8,309.4,614.8,309.2 M610.6,308v9.2c0,0.8,0,1,0.2,1.2
		c0-0.2,0-0.2,0-10C610.8,308.2,610.8,308.2,610.6,308 M593.9,358.4c-0.4-0.6,0.2-1,0.2-1.6c0-0.2,0-0.4,0-0.6
		c-0.2-1-0.6-1.8-0.8-2.8c-0.2-0.8-0.2-1.6-0.4-2.2c0,0-1-4.4-1.6-4.8c0,0,0,0-0.2,0c-1.2,1-0.8,1.8-0.8,1.8c0.2,0,0.2,0,0.2-0.2
		c0.4,0.4-0.4,5.6-0.6,6.6c-0.2,1-0.2,6.6-0.2,6.6c0,0.2,0.2,6,0.6,6.2c0,0,0.2,0.2,0.4,0c0.4-0.2,0.4-0.6,0.8-0.8
		c0.4-0.2,0.6,0,1-0.2c0.2-0.2,0.4-0.4,0.4-0.6c0.8-1.4,1.4-3.2,1.6-5.4C594.1,360.2,594.3,359.2,593.9,358.4 M608.2,279.1
		C608.2,279.1,608.2,278.9,608.2,279.1c0-0.2-0.2-0.8-0.4-0.6c-0.2,0.4,0,1.2,0.2,1.2C608.2,279.7,608.2,279.5,608.2,279.1
		 M571.3,382L571.3,382c0.8-0.6,0.6-1.6,1-2.2c0.2-0.4,0.6,0,0.8-0.2c0,0,0.2-0.2,0.2-0.4c0.2-0.8,0-1.2-0.2-1.8
		c-0.4-0.8,0-1.6,0-2.4c0-0.6-0.8-0.8-0.8-1.4c0-1.4,0.2-1.8,0.4-2.4c0.2-0.4,0.2-0.4,0.2-0.6c-0.4,0.2-1.2,2-1.2,2.8
		c0,0.4,0.4,0.8,0,1.2c-0.2,0.4-0.4,1.2-0.4,1.8c0,0.2,0,0.8-0.2,2.8c0,0.4-0.2,0.6-0.2,1C570.9,380.6,571.3,381.8,571.3,382
		 M505.1,444.2c-0.4,0-1,0.6-0.8,1c0,0.2,0.4,0,0.6,0c0,0,0.2-0.2,0.4-0.4C505.1,444.4,505.3,444,505.1,444.2 M485,562.2
		c0,0,0.6-0.4,0.8-0.4l0.2-0.2C485.6,561.8,485,562.2,485,562.2 M485,562.2c-0.2,0.2-0.8,0.6-1,0.8l0.6-0.4
		C484.8,562.4,485,562.2,485,562.2 M502.9,458.1c-0.4,0-0.8,0.6-0.6,0.8c0,0.2,0.2,0,0.4,0c0.2,0,0.2-0.2,0.4-0.4
		C503.1,458.5,503.1,458.1,502.9,458.1 M481.6,564.8c-0.2,0-0.8,0.6-0.8,0.6C481,565.4,481.2,565.2,481.6,564.8 M498.9,473.1
		c-0.4,0-1,0.6-0.8,0.8c0,0.2,0.6,0.2,0.8,0.2c0.2,0,0.4,0,0.4-0.2C499.5,473.7,499.5,473.1,498.9,473.1 M557.8,436.4
		c-0.4,0.2-0.6,1-0.6,1.2s0.6-0.2,0.6-0.8C558,436.8,558,436.4,557.8,436.4 M482.6,564.2c-0.2,0-0.6,0.4-0.6,0.4
		S482.2,564.4,482.6,564.2 M571.5,346.5c0,0,0-0.4-0.2-0.4c-0.4,0.2-0.4,0.8-0.4,1C571.1,347.3,571.5,346.9,571.5,346.5
		 M570.9,347.9c0,0-0.2,0.2-0.4,0.4c-0.4,0.6,0,1,0.2,1c0.2,0,0.6-0.4,0.6-0.8C571.3,348.3,571.1,347.9,570.9,347.9 M571.3,349.7
		c-0.4,0.2-0.6,1.4-0.4,1.6s0.8-0.8,0.8-1.2S571.5,349.7,571.3,349.7 M570.3,344.7c-0.4,0.2-0.6,1-0.4,1.2c0.2,0.2,0.6-0.4,0.6-1
		C570.7,344.7,570.3,344.7,570.3,344.7 M498.9,499c-0.2,0-0.4,0.2-0.4,0.2c-0.2,0.2-0.2,0.4-0.4,0.6c-0.2,0.4-0.4,0.4-0.6,0.8v0.2
		c0.2,0.2,1-0.4,1.6-1.4C499.3,499,498.9,499,498.9,499 M504.9,509.8c-0.4,0.2-1.2,0.6-1.2,0.8c0,0,0.2,0.2,0.6,0.2
		c0.2,0,0.6-0.4,0.8-0.6C505.1,510.2,505.3,509.8,504.9,509.8"/>
</g>
</svg>
