<?xml version="1.0" encoding="utf-8"?>
<!-- Generator: Adobe Illustrator 18.0.0, SVG Export Plug-In . SVG Version: 6.00 Build 0)  -->
<!DOCTYPE svg PUBLIC "-//W3C//DTD SVG 1.0//EN" "http://www.w3.org/TR/2001/REC-SVG-20010904/DTD/svg10.dtd" [
	<!ENTITY ns_flows "http://ns.adobe.com/Flows/1.0/">
	<!ENTITY ns_extend "http://ns.adobe.com/Extensibility/1.0/">
	<!ENTITY ns_ai "http://ns.adobe.com/AdobeIllustrator/10.0/">
	<!ENTITY ns_graphs "http://ns.adobe.com/Graphs/1.0/">
]>
<svg version="1.0" id="Layer_1" xmlns:x="&ns_extend;" xmlns:i="&ns_ai;" xmlns:graph="&ns_graphs;"
	 xmlns="http://www.w3.org/2000/svg" xmlns:xlink="http://www.w3.org/1999/xlink" xmlns:a="http://ns.adobe.com/AdobeSVGViewerExtensions/3.0/"
	 x="0px" y="0px" viewBox="203 0 206 400" enable-background="new 203 0 206 400" xml:space="preserve">
<path fill="#2B2B2B" d="M409,368.6c0,17.4-14.6,31.4-32.4,31.4H235.2c-17.6,0-32.2-14-32.2-31.4v-337C203,14,217.6,0,235.2,0h141.4
	C394.4,0,409,14,409,31.6V368.6z"/>
<g>
	<path fill="#6B6B6B" d="M324.6,371.4c0,10.2-8.4,18.4-18.6,18.4c-10.2,0-18.6-8.2-18.6-18.4S295.8,353,306,353
		C316.2,353,324.6,361.2,324.6,371.4"/>
	<path fill="#6B6B6B" d="M338.8,29.6c0,1-0.8,2-1.8,2h-62.4c-1,0-1.6-1-1.6-2v-0.8c0-1,0.6-1.8,1.6-1.8H337c1,0,1.8,0.8,1.8,1.8
		V29.6"/>
	<path fill="#6B6B6B" d="M398,340c0,0.8-0.6,1.4-1.4,1.4H215.4c-0.8,0-1.4-0.6-1.4-1.4V57.2c0-0.8,0.6-1.4,1.4-1.4h181.2
		c0.8,0,1.4,0.6,1.4,1.4V340"/>
</g>
</svg>
